SplineFontDB: 3.2
FontName: Inconsolata-UltraCondensed
FullName: Inconsolata Ultra Condensed
FamilyName: Inconsolata Ultra Condensed
Weight: Book
Copyright: Copyright 2006 The Inconsolata Project Authors (https://github.com/cyrealtype/Inconsolata)
Version: 3.000; ttfautohint (v1.8.3)
ItalicAngle: 0
UnderlinePosition: -297
UnderlineWidth: 102
Ascent: 1802
Descent: 246
InvalidEm: 0
sfntRevision: 0x00030000
LayerCount: 2
Layer: 0 1 "Back" 1
Layer: 1 1 "Fore" 0
XUID: [1021 737 -42707792 7084]
StyleMap: 0x0040
FSType: 0
OS2Version: 4
OS2_WeightWidthSlopeOnly: 0
OS2_UseTypoMetrics: 1
CreationTime: 1576097233
ModificationTime: 1732392375
PfmFamily: 81
TTFWeight: 400
TTFWidth: 1
LineGap: 0
VLineGap: 0
Panose: 0 0 0 0 0 0 0 0 0 0
OS2TypoAscent: 1759
OS2TypoAOffset: 0
OS2TypoDescent: -389
OS2TypoDOffset: 0
OS2TypoLinegap: 0
OS2WinAscent: 2056
OS2WinAOffset: 0
OS2WinDescent: 930
OS2WinDOffset: 0
HheadAscent: 1759
HheadAOffset: 0
HheadDescent: -389
HheadDOffset: 0
OS2SubXSize: 1331
OS2SubYSize: 1229
OS2SubXOff: 0
OS2SubYOff: 154
OS2SupXSize: 1331
OS2SupYSize: 1229
OS2SupXOff: 0
OS2SupYOff: 717
OS2StrikeYSize: 102
OS2StrikeYPos: 561
OS2CapHeight: 1276
OS2XHeight: 936
OS2Vendor: 'CYRE'
OS2CodePages: 60000193.cdd40000
OS2UnicodeRanges: a00000ff.0000f9eb.00000020.00000000
Lookup: 1 0 0 "'aalt' Access All Alternates in Latin lookup 0" { "'aalt' Access All Alternates in Latin lookup 0 subtable"  } ['aalt' ('DFLT' <'dflt' > 'latn' <'AZE ' 'CAT ' 'CRT ' 'KAZ ' 'MOL ' 'ROM ' 'TAT ' 'TRK ' 'dflt' > ) ]
Lookup: 3 0 0 "'aalt' Access All Alternates in Latin lookup 1" { "'aalt' Access All Alternates in Latin lookup 1 subtable"  } ['aalt' ('DFLT' <'dflt' > 'latn' <'AZE ' 'CAT ' 'CRT ' 'KAZ ' 'MOL ' 'ROM ' 'TAT ' 'TRK ' 'dflt' > ) ]

StartChar: A
Encoding: 65 65 1
Width: 459
VWidth: 2441
GlyphClass: 2
Flags: HW
AnchorPoint: "Anchor-3" 370 0 basechar 0
AnchorPoint: "Anchor-2" 221 0 basechar 0
AnchorPoint: "Anchor-0" 221 1521 basechar 0
LayerCount: 2
Fore
SplineSet
221 1076 m 1,0,-1
 162 576 l 1,1,-1
 278 576 l 1,2,-1
 221 1076 l 1,0,-1
345 0 m 1,3,-1
 294 445 l 1,4,-1
 146 445 l 1,5,-1
 95 0 l 1,6,-1
 -3 0 l 1,7,-1
 198 1547 l 1,8,-1
 244 1547 l 1,9,-1
 445 0 l 1,10,-1
 345 0 l 1,3,-1
EndSplineSet
Substitution2: "Single Substitution lookup 29 subtable" ordfeminine
Substitution2: "'aalt' Access All Alternates in Latin lookup 0 subtable" ordfeminine
EndChar

StartChar: AE
Encoding: 198 198 26
Width: 435
VWidth: 2441
GlyphClass: 1
Flags: HW
LayerCount: 2
Fore
SplineSet
146 547 m 1,0,-1
 211 547 l 1,1,-1
 243 1377 l 1,2,-1
 235 1377 l 1,3,-1
 146 547 l 1,0,-1
-15 0 m 1,4,-1
 168 1523 l 1,5,-1
 433 1523 l 1,6,-1
 433 1386 l 1,7,-1
 316 1386 l 1,8,-1
 316 864 l 1,9,-1
 408 864 l 1,10,-1
 408 722 l 1,11,-1
 316 722 l 1,12,-1
 316 137 l 1,13,-1
 431 137 l 1,14,-1
 431 0 l 1,15,-1
 211 0 l 1,16,-1
 211 420 l 1,17,-1
 133 420 l 1,18,-1
 82 0 l 1,19,-1
 -15 0 l 1,4,-1
EndSplineSet
EndChar

StartChar: B
Encoding: 66 66 28
Width: 512
VWidth: 2441
GlyphClass: 2
Flags: HW
AnchorPoint: "Anchor-2" 253 0 basechar 0
AnchorPoint: "Anchor-0" 253 1521 basechar 0
LayerCount: 2
Fore
SplineSet
144 137 m 1,0,-1
 238 137 l 2,1,2
 301 137 301 137 335 207.5 c 128,-1,3
 369 278 369 278 369 437 c 0,4,5
 369 574 369 574 329.5 663 c 128,-1,6
 290 752 290 752 220 752 c 2,7,-1
 144 752 l 1,8,-1
 144 137 l 1,0,-1
144 886 m 1,9,-1
 215 886 l 2,10,11
 296 886 296 886 320.5 957 c 128,-1,12
 345 1028 345 1028 345 1132 c 0,13,14
 345 1232 345 1232 318.5 1309 c 128,-1,15
 292 1386 292 1386 226 1386 c 2,16,-1
 144 1386 l 1,17,-1
 144 886 l 1,9,-1
32 0 m 1,18,-1
 32 1521 l 1,19,-1
 226 1521 l 2,20,21
 285 1521 285 1521 336.5 1488.5 c 128,-1,22
 388 1456 388 1456 419.5 1376 c 128,-1,23
 451 1296 451 1296 451 1153 c 0,24,25
 451 990 451 990 428 920 c 128,-1,26
 405 850 405 850 349 815 c 1,27,28
 401 780 401 780 440.5 685.5 c 128,-1,29
 480 591 480 591 480 427 c 0,30,31
 480 210 480 210 418.5 105 c 128,-1,32
 357 0 357 0 224 0 c 2,33,-1
 32 0 l 1,18,-1
EndSplineSet
EndChar

StartChar: C
Encoding: 67 67 29
Width: 524
VWidth: 2441
GlyphClass: 2
Flags: HW
AnchorPoint: "Anchor-2" 284 0 basechar 0
AnchorPoint: "Anchor-0" 273 1521 basechar 0
LayerCount: 2
Fore
SplineSet
288 -24 m 0,0,1
 218 -24 218 -24 160 47.5 c 128,-1,2
 102 119 102 119 68 289 c 128,-1,3
 34 459 34 459 32 752 c 0,4,5
 32 994 32 994 55 1148 c 128,-1,6
 78 1302 78 1302 116 1386 c 128,-1,7
 154 1470 154 1470 200 1501.5 c 128,-1,8
 246 1533 246 1533 290 1533 c 0,9,10
 362 1533 362 1533 411 1477 c 128,-1,11
 460 1421 460 1421 480 1302 c 1,12,-1
 416 1216 l 1,13,-1
 400 1197 l 1,14,-1
 390 1209 l 1,15,16
 388 1228 388 1228 391 1252.5 c 128,-1,17
 394 1277 394 1277 382 1314 c 0,18,19
 362 1363 362 1363 338 1377 c 128,-1,20
 314 1391 314 1391 288 1391 c 0,21,22
 224 1391 224 1391 181 1245 c 128,-1,23
 138 1099 138 1099 138 764 c 0,24,25
 138 440 138 440 183.5 278.5 c 128,-1,26
 229 117 229 117 292 117 c 0,27,28
 332 117 332 117 359 155 c 128,-1,29
 386 193 386 193 407 266 c 1,30,-1
 472 159 l 1,31,32
 438 64 438 64 395 20 c 128,-1,33
 352 -24 352 -24 288 -24 c 0,0,1
EndSplineSet
EndChar

StartChar: D
Encoding: 68 68 36
Width: 512
VWidth: 2441
GlyphClass: 2
Flags: HW
AnchorPoint: "Anchor-4" 249 762 basechar 0
AnchorPoint: "Anchor-2" 249 0 basechar 0
AnchorPoint: "Anchor-0" 216 1521 basechar 0
LayerCount: 2
Fore
SplineSet
151 135 m 1,0,-1
 177 135 l 2,1,2
 276 135 276 135 324 299.5 c 128,-1,3
 372 464 372 464 372 743 c 0,4,5
 372 931 372 931 355.5 1074.5 c 128,-1,6
 339 1218 339 1218 299 1301 c 128,-1,7
 259 1384 259 1384 190 1384 c 2,8,-1
 151 1384 l 1,9,-1
 151 135 l 1,0,-1
32 -2 m 1,10,-1
 32 1521 l 1,11,-1
 195 1521 l 2,12,13
 282 1521 282 1521 334.5 1473.5 c 128,-1,14
 387 1426 387 1426 420 1326 c 128,-1,15
 453 1226 453 1226 466.5 1091.5 c 128,-1,16
 480 957 480 957 480 752 c 0,17,18
 480 393 480 393 409.5 195.5 c 128,-1,19
 339 -2 339 -2 182 -2 c 2,20,-1
 32 -2 l 1,10,-1
EndSplineSet
EndChar

StartChar: Eth
Encoding: 208 208 37
Width: 483
VWidth: 2441
GlyphClass: 1
Flags: HW
LayerCount: 2
Fore
SplineSet
162 135 m 1,0,-1
 190 135 l 2,1,2
 283 135 283 135 324 297 c 128,-1,3
 365 459 365 459 365 747 c 0,4,5
 365 1040 365 1040 324 1211 c 128,-1,6
 283 1382 283 1382 200 1382 c 2,7,-1
 162 1382 l 1,8,-1
 162 876 l 1,9,-1
 234 876 l 1,10,-1
 234 734 l 1,11,-1
 162 734 l 1,12,-1
 162 135 l 1,0,-1
59 -2 m 1,13,-1
 59 734 l 1,14,-1
 17 734 l 1,15,-1
 17 876 l 1,16,-1
 59 876 l 1,17,-1
 59 1521 l 1,18,-1
 204 1521 l 2,19,20
 265 1521 265 1521 308 1479.5 c 128,-1,21
 351 1438 351 1438 378 1373.5 c 128,-1,22
 405 1309 405 1309 420 1237 c 0,23,24
 434 1179 434 1179 449.5 1064.5 c 128,-1,25
 465 950 465 950 465 755 c 0,26,27
 465 345 465 345 393 171.5 c 128,-1,28
 321 -2 321 -2 192 -2 c 2,29,-1
 59 -2 l 1,13,-1
EndSplineSet
EndChar

StartChar: E
Encoding: 69 69 42
Width: 512
VWidth: 2441
GlyphClass: 2
Flags: HW
AnchorPoint: "Anchor-3" 487 24 basechar 0
AnchorPoint: "Anchor-2" 257 0 basechar 0
AnchorPoint: "Anchor-0" 273 1521 basechar 0
LayerCount: 2
Fore
SplineSet
32 0 m 1,0,-1
 32 1523 l 1,1,-1
 480 1523 l 1,2,-1
 480 1386 l 1,3,-1
 150 1386 l 1,4,-1
 150 862 l 1,5,-1
 417 862 l 1,6,-1
 417 725 l 1,7,-1
 150 725 l 1,8,-1
 150 137 l 1,9,-1
 478 137 l 1,10,-1
 478 0 l 1,11,-1
 32 0 l 1,0,-1
EndSplineSet
EndChar

StartChar: uni01B8
Encoding: 440 440 65
Width: 512
VWidth: 2441
GlyphClass: 1
Flags: HW
LayerCount: 2
Fore
SplineSet
283 -27 m 0,0,1
 164 -27 164 -27 98 89 c 128,-1,2
 32 205 32 205 32 420 c 0,3,4
 32 637 32 637 95.5 760 c 128,-1,5
 159 883 159 883 257 904 c 1,6,-1
 64 1384 l 1,7,-1
 64 1521 l 1,8,-1
 436 1521 l 1,9,-1
 436 1384 l 1,10,-1
 183 1384 l 1,11,-1
 368 908 l 1,12,-1
 368 781 l 1,13,14
 351.389830508 782.661016949 351.389830508 782.661016949 336.046538351 782.661016949 c 0,15,16
 286.728813559 782.661016949 286.728813559 782.661016949 250.5 765.5 c 0,17,18
 203 743 203 743 180 666 c 128,-1,19
 157 589 157 589 157 432 c 0,20,21
 157 257 157 257 189.5 184.5 c 128,-1,22
 222 112 222 112 293 112 c 0,23,24
 349 112 349 112 383 161 c 1,25,26
 402 196 402 196 405 215.5 c 128,-1,27
 408 235 408 235 403 252 c 1,28,-1
 410 268 l 1,29,-1
 431 256 l 1,30,-1
 480 119 l 1,31,32
 441 33 441 33 391 3 c 128,-1,33
 341 -27 341 -27 283 -27 c 0,0,1
EndSplineSet
EndChar

StartChar: F
Encoding: 70 70 66
Width: 504
VWidth: 2441
GlyphClass: 2
Flags: HW
AnchorPoint: "Anchor-2" 242 0 basechar 0
AnchorPoint: "Anchor-0" 242 1521 basechar 0
LayerCount: 2
Fore
SplineSet
32 0 m 1,0,-1
 32 1523 l 1,1,-1
 472 1523 l 1,2,-1
 472 1386 l 1,3,-1
 156 1386 l 1,4,-1
 156 888 l 1,5,-1
 403 888 l 1,6,-1
 403 755 l 1,7,-1
 156 755 l 1,8,-1
 156 0 l 1,9,-1
 32 0 l 1,0,-1
EndSplineSet
EndChar

StartChar: G
Encoding: 71 71 67
Width: 512
VWidth: 2441
GlyphClass: 2
Flags: HW
AnchorPoint: "Anchor-2" 275 0 basechar 0
AnchorPoint: "Anchor-0" 284 1521 basechar 0
LayerCount: 2
Fore
SplineSet
286 -24 m 0,0,1
 169 -24 169 -24 100.5 164 c 128,-1,2
 32 352 32 352 32 743 c 0,3,4
 31.8260869565 765.086956522 31.8260869565 765.086956522 31.8260869565 786.440453686 c 0,5,6
 31.8260869565 1010.65217391 31.8260869565 1010.65217391 51 1154 c 0,7,8
 72 1311 72 1311 110.5 1394 c 128,-1,9
 149 1477 149 1477 194.5 1507.5 c 128,-1,10
 240 1538 240 1538 284 1538 c 0,11,12
 360 1538 360 1538 410.5 1473.5 c 128,-1,13
 461 1409 461 1409 478 1314 c 1,14,-1
 417 1237 l 1,15,-1
 402 1218 l 1,16,-1
 391 1230 l 1,17,18
 389 1251 389 1251 389 1273.5 c 128,-1,19
 389 1296 389 1296 373 1330 c 0,20,21
 339 1398 339 1398 282 1400 c 0,22,23
 242 1400 242 1400 209 1342 c 128,-1,24
 176 1284 176 1284 156.5 1148.5 c 128,-1,25
 137 1013 137 1013 137 778 c 0,26,27
 137 461 137 461 178.5 286.5 c 128,-1,28
 220 112 220 112 279 112 c 0,29,30
 305 112 305 112 329 128 c 128,-1,31
 353 144 353 144 373 181 c 1,32,-1
 373 589 l 1,33,-1
 271 589 l 1,34,-1
 271 720 l 1,35,-1
 480 720 l 1,36,-1
 480 122 l 1,37,38
 434 43 434 43 385.5 9.5 c 128,-1,39
 337 -24 337 -24 286 -24 c 0,0,1
EndSplineSet
EndChar

StartChar: H
Encoding: 72 72 74
Width: 512
VWidth: 2441
GlyphClass: 2
Flags: HW
AnchorPoint: "Anchor-4" 536 762 basechar 0
AnchorPoint: "Anchor-2" 536 0 basechar 0
AnchorPoint: "Anchor-0" 536 1521 basechar 0
LayerCount: 2
Fore
SplineSet
32 1521 m 1,0,-1
 158 1521 l 1,1,-1
 158 1504 l 1,2,3
 151 1490 151 1490 149 1473 c 128,-1,4
 147 1456 147 1456 147 1414 c 2,5,-1
 147 867 l 1,6,-1
 352 867 l 1,7,-1
 352 1521 l 1,8,-1
 480 1521 l 1,9,-1
 480 1504 l 1,10,11
 473 1490 473 1490 471 1473 c 128,-1,12
 469 1456 469 1456 469 1414 c 2,13,-1
 469 0 l 1,14,-1
 352 0 l 1,15,-1
 352 730 l 1,16,-1
 147 730 l 1,17,-1
 147 0 l 1,18,-1
 32 0 l 1,19,-1
 32 1521 l 1,0,-1
EndSplineSet
EndChar

StartChar: Hbar
Encoding: 294 294 75
Width: 442
VWidth: 2441
GlyphClass: 2
Flags: HW
AnchorPoint: "Anchor-4" 443 762 basechar 0
AnchorPoint: "Anchor-2" 443 0 basechar 0
AnchorPoint: "Anchor-0" 443 1521 basechar 0
LayerCount: 2
Fore
SplineSet
120 867 m 1,0,-1
 291 867 l 1,1,-1
 291 1214 l 1,2,-1
 120 1214 l 1,3,-1
 120 867 l 1,0,-1
-16 1214 m 1,4,-1
 -16 1351 l 1,5,-1
 25 1351 l 1,6,-1
 25 1521 l 1,7,-1
 129 1521 l 1,8,-1
 129 1504 l 1,9,10
 124 1490 124 1490 122 1473 c 128,-1,11
 120 1456 120 1456 120 1414 c 2,12,-1
 120 1351 l 1,13,-1
 291 1351 l 1,14,-1
 291 1521 l 1,15,-1
 397 1521 l 1,16,-1
 397 1504 l 1,17,18
 392 1490 392 1490 390 1473 c 128,-1,19
 388 1456 388 1456 388 1414 c 2,20,-1
 388 1351 l 1,21,-1
 432 1351 l 1,22,-1
 432 1214 l 1,23,-1
 388 1214 l 1,24,-1
 388 0 l 1,25,-1
 291 0 l 1,26,-1
 291 730 l 1,27,-1
 120 730 l 1,28,-1
 120 0 l 1,29,-1
 25 0 l 1,30,-1
 25 1214 l 1,31,-1
 -16 1214 l 1,4,-1
EndSplineSet
EndChar

StartChar: I
Encoding: 73 73 79
Width: 457
VWidth: 2441
GlyphClass: 2
Flags: HW
AnchorPoint: "Anchor-3" 363 0 basechar 0
AnchorPoint: "Anchor-2" 239 0 basechar 0
AnchorPoint: "Anchor-0" 225 1521 basechar 0
LayerCount: 2
Fore
SplineSet
32 0 m 1,0,-1
 32 137 l 1,1,-1
 164 137 l 1,2,-1
 164 1384 l 1,3,-1
 34 1384 l 1,4,-1
 34 1521 l 1,5,-1
 418 1521 l 1,6,-1
 418 1384 l 1,7,-1
 288 1384 l 1,8,-1
 288 135 l 1,9,-1
 425 135 l 1,10,-1
 425 0 l 1,11,-1
 32 0 l 1,0,-1
EndSplineSet
EndChar

StartChar: J
Encoding: 74 74 94
Width: 512
VWidth: 2441
GlyphClass: 2
Flags: HW
AnchorPoint: "Anchor-2" 250 0 basechar 0
AnchorPoint: "Anchor-0" 336 1521 basechar 0
LayerCount: 2
Fore
SplineSet
191 -27 m 0,0,1
 88 -27 88 -27 32 98 c 1,2,-1
 77 263 l 1,3,-1
 84 288 l 1,4,-1
 96 284 l 1,5,6
 106.484848485 267.796143251 106.484848485 267.796143251 106.484848485 234.117539027 c 0,7,8
 106.484848485 203.939393939 106.484848485 203.939393939 122 170 c 1,9,10
 154.4 116.981818182 154.4 116.981818182 189.691900826 116.981818182 c 0,11,12
 190.345454545 116.981818182 190.345454545 116.981818182 191 117 c 0,13,14
 228 117 228 117 251.5 206.5 c 128,-1,15
 275 296 275 296 275 508 c 2,16,-1
 275 1384 l 1,17,-1
 153 1384 l 1,18,-1
 153 1521 l 1,19,-1
 480 1521 l 1,20,-1
 480 1384 l 1,21,-1
 385 1384 l 1,22,-1
 385 510 l 2,23,24
 385 303 385 303 360.5 185.5 c 128,-1,25
 336 68 336 68 291.5 20.5 c 128,-1,26
 247 -27 247 -27 191 -27 c 0,0,1
EndSplineSet
EndChar

StartChar: K
Encoding: 75 75 96
Width: 528
VWidth: 2441
GlyphClass: 1
Flags: HW
LayerCount: 2
Fore
SplineSet
181 725 m 1,0,-1
 139 598 l 1,1,-1
 139 0 l 1,2,-1
 32 0 l 1,3,-1
 32 1521 l 1,4,-1
 157 1521 l 1,5,-1
 157 1504 l 1,6,7
 145 1490 145 1490 142 1473 c 128,-1,8
 139 1456 139 1456 139 1414 c 2,9,-1
 139 830 l 1,10,-1
 356 1533 l 1,11,12
 366 1528 366 1528 394 1524.5 c 128,-1,13
 422 1521 422 1521 436 1521 c 2,14,-1
 464 1521 l 1,15,-1
 253 845 l 1,16,-1
 480 0 l 1,17,-1
 364 -10 l 1,18,-1
 181 725 l 1,0,-1
EndSplineSet
EndChar

StartChar: uni0198
Encoding: 408 408 98
Width: 532
VWidth: 2441
GlyphClass: 1
Flags: HW
LayerCount: 2
Fore
SplineSet
32 1521 m 1,0,-1
 157 1521 l 1,1,-1
 157 1504 l 1,2,3
 145 1490 145 1490 142 1473 c 128,-1,4
 139 1456 139 1456 139 1414 c 2,5,-1
 139 845 l 1,6,7
 206 1120 206 1120 256.5 1268 c 128,-1,8
 307 1416 307 1416 351 1473.5 c 128,-1,9
 395 1531 395 1531 438 1531 c 0,10,11
 458 1531 458 1531 473 1521 c 1,12,-1
 473 1321 l 1,13,-1
 467 1321 l 1,14,15
 461 1335 461 1335 453.5 1345 c 128,-1,16
 446 1355 446 1355 429 1358 c 2,17,-1
 423 1358 l 2,18,19
 409 1358 409 1358 389 1324.5 c 128,-1,20
 369 1291 369 1291 333.5 1188.5 c 128,-1,21
 298 1086 298 1086 238 881 c 1,22,-1
 480 0 l 1,23,-1
 363 -10 l 1,24,-1
 184 696 l 1,25,26
 164 621 164 621 139 532 c 1,27,-1
 139 0 l 1,28,-1
 32 0 l 1,29,-1
 32 1521 l 1,0,-1
EndSplineSet
EndChar

StartChar: L
Encoding: 76 76 99
Width: 512
VWidth: 2441
GlyphClass: 2
Flags: HW
AnchorPoint: "Anchor-4" 90 762 basechar 0
AnchorPoint: "Anchor-2" 253 0 basechar 0
AnchorPoint: "Anchor-1" 172 1116 basechar 0
AnchorPoint: "Anchor-0" 196 1521 basechar 0
LayerCount: 2
Fore
SplineSet
32 1521 m 1,0,-1
 170 1521 l 1,1,-1
 170 1504 l 1,2,3
 157 1490 157 1490 153.5 1473 c 128,-1,4
 150 1456 150 1456 150 1414 c 2,5,-1
 150 151 l 1,6,-1
 480 151 l 1,7,-1
 480 0 l 1,8,-1
 32 0 l 1,9,-1
 32 1521 l 1,0,-1
EndSplineSet
EndChar

StartChar: uni01C7
Encoding: 455 455 100
Width: 512
VWidth: 2380
GlyphClass: 1
Flags: HW
LayerCount: 2
Fore
SplineSet
32 98 m 1
 32 1521 l 1
 162 1521 l 1
 162 1506 162 1506 158 1502 c 0
 154 1498 154 1498 151 1489 c 0
 147 1480 147 1480 147 1443 c 2
 147 227 l 1
 290 227 l 1
 290 226 290 226 290 98 c 1
 32 98 l 1
294 -246 m 0
 238 -246 238 -246 192 -218 c 0
 146 -190 146 -190 108 -139 c 1
 185 -6 l 1
 198 -22 198 -22 192 -35 c 0
 186 -48 186 -48 215 -78 c 0
 226 -88 226 -88 240 -96 c 0
 254 -104 254 -104 281 -104 c 0
 324 -104 324 -104 345 -24 c 0
 366 56 366 56 366 253 c 2
 366 1393 l 1
 256 1393 l 1
 256 1521 l 1
 480 1521 l 1
 480 256 l 1
 480.285714286 236.428571429 480.285714286 236.428571429 480.285714286 217.673469388 c 0,0,0
 480.285714286 -26.1428571429 480.285714286 -26.1428571429 432 -132 c 0
 380 -246 380 -246 294 -246 c 0
EndSplineSet
EndChar

StartChar: Lcaron
Encoding: 317 317 102
Width: 512
VWidth: 2441
GlyphClass: 2
Flags: HW
AnchorPoint: "Anchor-4" 90 762 basechar 0
AnchorPoint: "Anchor-2" 253 0 basechar 0
AnchorPoint: "Anchor-1" 172 1116 basechar 0
AnchorPoint: "Anchor-0" 196 1521 basechar 0
LayerCount: 2
Fore
SplineSet
353 1016 m 1,0,-1
 312 1057 l 1,1,2
 338 1108 338 1108 354.5 1156 c 128,-1,3
 371 1204 371 1204 371 1240 c 0,4,5
 371 1282 371 1282 349 1308.5 c 128,-1,6
 327 1335 327 1335 327 1389 c 0,7,8
 327 1438 327 1438 344.5 1466 c 128,-1,9
 362 1494 362 1494 390 1494 c 0,10,11
 410 1494 410 1494 434.5 1464.5 c 128,-1,12
 459 1435 459 1435 459 1365 c 0,13,14
 459 1286 459 1286 430 1204.5 c 128,-1,15
 401 1123 401 1123 353 1016 c 1,0,-1
32 1521 m 1,16,-1
 170 1521 l 1,17,-1
 170 1504 l 1,18,19
 157 1490 157 1490 153.5 1473 c 128,-1,20
 150 1456 150 1456 150 1414 c 2,21,-1
 150 151 l 1,22,-1
 480 151 l 1,23,-1
 480 0 l 1,24,-1
 32 0 l 1,25,-1
 32 1521 l 1,16,-1
EndSplineSet
EndChar

StartChar: uni01C8
Encoding: 456 456 106
Width: 511
VWidth: 2362
GlyphClass: 1
Flags: HW
LayerCount: 2
Fore
SplineSet
241 -246 m 0,0,1
 177 -246 177 -246 135 -207.5 c 128,-1,2
 93 -169 93 -169 61 -116 c 1,3,-1
 137 34 l 1,4,5
 148 19 148 19 148 1 c 128,-1,6
 148 -17 148 -17 154.5 -39 c 128,-1,7
 161 -61 161 -61 193 -93 c 0,8,9
 208 -108 208 -108 219.5 -108 c 128,-1,10
 231 -108 231 -108 248 -108 c 0,11,12
 273 -108 273 -108 302 -93 c 128,-1,13
 331 -78 331 -78 351 -16.5 c 128,-1,14
 371 45 371 45 371 181 c 2,15,-1
 371 1036 l 1,16,-1
 212 1036 l 1,17,-1
 212 1156 l 1,18,-1
 471 1156 l 1,19,-1
 471 189 l 2,20,21
 471 -49 471 -49 404 -147.5 c 128,-1,22
 337 -246 337 -246 241 -246 c 0,0,1
32 140 m 1,23,-1
 32 1525 l 1,24,-1
 155 1525 l 1,25,26
 155 1503 155 1503 150.5 1486.5 c 128,-1,27
 146 1470 146 1470 146 1449 c 2,28,-1
 146 276 l 1,29,-1
 308 276 l 1,30,-1
 308 140 l 1,31,-1
 32 140 l 1,23,-1
405 1394 m 128,-1,33
 376 1394 376 1394 355.5 1419.5 c 128,-1,34
 335 1445 335 1445 335 1481 c 0,35,36
 335 1519 335 1519 355 1544.5 c 128,-1,37
 375 1570 375 1570 405 1570 c 0,38,39
 434 1570 434 1570 456.5 1544.5 c 128,-1,40
 479 1519 479 1519 479 1481 c 0,41,42
 479 1445 479 1445 456.5 1419.5 c 128,-1,32
 434 1394 434 1394 405 1394 c 128,-1,33
EndSplineSet
EndChar

StartChar: Lslash
Encoding: 321 321 108
Width: 521
VWidth: 2441
GlyphClass: 1
Flags: HW
LayerCount: 2
Fore
SplineSet
65 0 m 1,0,-1
 65 589 l 1,1,-1
 21 550 l 1,2,-1
 21 706 l 1,3,-1
 65 747 l 1,4,-1
 65 1521 l 1,5,-1
 180 1521 l 2,6,7
 188 1521 188 1521 189 1516 c 0,8,9
 189 1506 189 1506 181.5 1489 c 128,-1,10
 174 1472 174 1472 172 1438 c 2,11,-1
 172 806 l 1,12,-1
 327 937 l 2,13,14
 345 951 345 951 355 962 c 1,15,-1
 355 799 l 1,16,-1
 172 650 l 1,17,-1
 172 151 l 1,18,-1
 469 151 l 1,19,-1
 469 0 l 1,20,-1
 65 0 l 1,0,-1
EndSplineSet
EndChar

StartChar: M
Encoding: 77 77 109
Width: 512
VWidth: 2441
GlyphClass: 2
Flags: HW
AnchorPoint: "Anchor-2" 256 0 basechar 0
AnchorPoint: "Anchor-0" 256 1521 basechar 0
LayerCount: 2
Fore
SplineSet
32 0 m 1,0,-1
 32 1521 l 1,1,-1
 116 1521 l 1,2,-1
 256 850 l 1,3,-1
 398 1523 l 1,4,-1
 480 1523 l 1,5,-1
 480 0 l 1,6,-1
 386 0 l 1,7,-1
 386 1074 l 1,8,-1
 264 535 l 1,9,-1
 238 535 l 1,10,-1
 126 1067 l 1,11,-1
 126 0 l 1,12,-1
 32 0 l 1,0,-1
EndSplineSet
EndChar

StartChar: N
Encoding: 78 78 111
Width: 529
VWidth: 2441
GlyphClass: 2
Flags: HW
AnchorPoint: "Anchor-2" 248 0 basechar 0
AnchorPoint: "Anchor-0" 248 1521 basechar 0
LayerCount: 2
Fore
SplineSet
32 1521 m 1,0,-1
 131 1521 l 1,1,-1
 366 466 l 1,2,-1
 366 1521 l 1,3,-1
 480 1521 l 1,4,-1
 480 1504 l 1,5,6
 468 1490 468 1490 464.5 1473 c 128,-1,7
 461 1456 461 1456 461 1414 c 2,8,-1
 461 0 l 1,9,-1
 375 0 l 1,10,-1
 127 1123 l 1,11,-1
 127 0 l 1,12,-1
 32 0 l 1,13,-1
 32 1521 l 1,0,-1
EndSplineSet
EndChar

StartChar: Eng
Encoding: 330 330 117
Width: 512
VWidth: 2344
GlyphClass: 2
Flags: HW
AnchorPoint: "Anchor-2" 250 159 basechar 0
AnchorPoint: "Anchor-0" 250 1521 basechar 0
LayerCount: 2
Fore
SplineSet
378 1521 m 1,0,-1
 480 1521 l 1,1,2
 480 1508 480 1508 477 1497 c 128,-1,3
 474 1486 474 1486 474 1462 c 2,4,-1
 474 159 l 2,5,6
 474 6 474 6 451.5 -82.5 c 128,-1,7
 429 -171 429 -171 388.5 -208.5 c 128,-1,8
 348 -246 348 -246 299 -246 c 0,9,10
 248 -246 248 -246 205 -192 c 1,11,-1
 243 -56 l 1,12,13
 256 -65 256 -65 261 -86.5 c 128,-1,14
 266 -108 266 -108 301 -108 c 0,15,16
 350 -108 350 -108 363 -31.5 c 128,-1,17
 376 45 376 45 378 207 c 1,18,-1
 130 1164 l 1,19,-1
 130 159 l 1,20,-1
 32 159 l 1,21,-1
 32 1521 l 1,22,-1
 136 1521 l 1,23,-1
 378 576 l 1,24,-1
 378 1521 l 1,0,-1
EndSplineSet
EndChar

StartChar: O
Encoding: 79 79 120
Width: 497
VWidth: 2441
GlyphClass: 2
Flags: HW
AnchorPoint: "Anchor-4" 247 762 basechar 0
AnchorPoint: "Anchor-3" 283 24 basechar 0
AnchorPoint: "Anchor-2" 247 0 basechar 0
AnchorPoint: "Anchor-1" 376 1426 basechar 0
AnchorPoint: "Anchor-0" 247 1521 basechar 0
LayerCount: 2
Fore
SplineSet
247 110 m 0,0,1
 283 110 283 110 310 161 c 128,-1,2
 337 212 337 212 353.5 350.5 c 128,-1,3
 370 489 370 489 370 752 c 0,4,5
 370 1006 370 1006 353.5 1145 c 128,-1,6
 337 1284 337 1284 310 1339 c 128,-1,7
 283 1394 283 1394 247 1394 c 0,8,9
 213 1394 213 1394 184 1339 c 128,-1,10
 155 1284 155 1284 138.5 1145 c 128,-1,11
 122 1006 122 1006 122 752 c 0,12,13
 122 489 122 489 138.5 350.5 c 128,-1,14
 155 212 155 212 184 161 c 128,-1,15
 213 110 213 110 247 110 c 0,0,1
247 -27 m 128,-1,17
 174 -27 174 -27 124 43.5 c 128,-1,18
 74 114 74 114 48 284 c 128,-1,19
 22 454 22 454 22 752 c 0,20,21
 22 1043 22 1043 48 1212.5 c 128,-1,22
 74 1382 74 1382 124 1456.5 c 128,-1,23
 174 1531 174 1531 247 1531 c 128,-1,24
 320 1531 320 1531 369 1456.5 c 128,-1,25
 418 1382 418 1382 444 1212 c 128,-1,26
 470 1042 470 1042 470 752 c 0,27,28
 470 454 470 454 444 284 c 128,-1,29
 418 114 418 114 369 43.5 c 128,-1,16
 320 -27 320 -27 247 -27 c 128,-1,17
EndSplineSet
Substitution2: "Single Substitution lookup 29 subtable" ordmasculine
Substitution2: "'aalt' Access All Alternates in Latin lookup 0 subtable" ordmasculine
EndChar

StartChar: Oslash
Encoding: 216 216 148
Width: 497
VWidth: 2441
GlyphClass: 2
Flags: HW
AnchorPoint: "Anchor-4" 247 762 basechar 0
AnchorPoint: "Anchor-3" 283 24 basechar 0
AnchorPoint: "Anchor-2" 247 0 basechar 0
AnchorPoint: "Anchor-1" 376 1426 basechar 0
AnchorPoint: "Anchor-0" 247 1521 basechar 0
LayerCount: 2
Fore
SplineSet
247 110 m 0,0,1
 283 110 283 110 310 161 c 128,-1,2
 337 212 337 212 353.5 350.5 c 128,-1,3
 370 489 370 489 370 752 c 0,4,5
 370 871 370 871 366 965.5 c 128,-1,6
 362 1060 362 1060 356 1128 c 1,7,-1
 164 205 l 1,8,9
 182 151 182 151 202 130.5 c 128,-1,10
 222 110 222 110 247 110 c 0,0,1
122 752 m 0,11,12
 122 642 122 642 125 555 c 128,-1,13
 128 468 128 468 134 403 c 1,14,-1
 322 1311 l 1,15,16
 306 1357 306 1357 288 1375.5 c 128,-1,17
 270 1394 270 1394 247 1394 c 0,18,19
 213 1394 213 1394 184 1339 c 128,-1,20
 155 1284 155 1284 138.5 1145 c 128,-1,21
 122 1006 122 1006 122 752 c 0,11,12
103 -103 m 1,22,-1
 38 -63 l 1,23,-1
 80 139 l 1,24,25
 52 230 52 230 37 379.5 c 128,-1,26
 22 529 22 529 22 752 c 0,27,28
 22 1043 22 1043 48 1212.5 c 128,-1,29
 74 1382 74 1382 124 1456.5 c 128,-1,30
 174 1531 174 1531 247 1531 c 0,31,32
 312 1531 312 1531 356 1477 c 1,33,-1
 394 1665 l 1,34,-1
 456 1621 l 1,35,-1
 406 1377 l 1,36,37
 438 1286 438 1286 454 1133.5 c 128,-1,38
 470 981 470 981 470 752 c 0,39,40
 470 454 470 454 444 284 c 128,-1,41
 418 114 418 114 369 43.5 c 128,-1,42
 320 -27 320 -27 247 -27 c 0,43,44
 176 -27 176 -27 130 35 c 1,45,-1
 103 -103 l 1,22,-1
EndSplineSet
EndChar

StartChar: OE
Encoding: 338 338 154
Width: 452
VWidth: 2441
GlyphClass: 1
Flags: HW
LayerCount: 2
Fore
SplineSet
151 126 m 0,0,1
 172 126 172 126 183.5 180.5 c 128,-1,2
 195 235 195 235 201 315 c 1,3,-1
 201 1184 l 1,4,5
 197 1287 197 1287 185 1347 c 128,-1,6
 173 1407 173 1407 144 1407 c 0,7,8
 127 1407 127 1407 115 1349 c 128,-1,9
 103 1291 103 1291 96.5 1151 c 128,-1,10
 90 1011 90 1011 90 764 c 0,11,12
 90 464 90 464 103.5 295 c 128,-1,13
 117 126 117 126 151 126 c 0,0,1
129 -17 m 0,14,15
 99 -17 99 -17 74.5 17 c 128,-1,16
 50 51 50 51 31 136.5 c 128,-1,17
 12 222 12 222 1.5 374.5 c 128,-1,18
 -9 527 -9 527 -9 762 c 0,19,20
 -9 1060 -9 1060 8 1230 c 128,-1,21
 25 1400 25 1400 56.5 1471.5 c 128,-1,22
 88 1543 88 1543 133 1543 c 0,23,24
 154 1543 154 1543 170 1527.5 c 128,-1,25
 186 1512 186 1512 203 1463 c 1,26,-1
 203 1523 l 1,27,-1
 439 1523 l 1,28,-1
 439 1386 l 1,29,-1
 299 1386 l 1,30,-1
 299 864 l 1,31,-1
 421 864 l 1,32,-1
 421 722 l 1,33,-1
 299 722 l 1,34,-1
 299 135 l 1,35,-1
 437 135 l 1,36,-1
 437 0 l 1,37,-1
 201 0 l 1,38,-1
 201 66 l 1,39,40
 186 20 186 20 169 1.5 c 128,-1,41
 152 -17 152 -17 129 -17 c 0,14,15
EndSplineSet
EndChar

StartChar: P
Encoding: 80 80 155
Width: 512
VWidth: 2441
GlyphClass: 2
Flags: HW
AnchorPoint: "Anchor-2" 76 0 basechar 0
AnchorPoint: "Anchor-0" 248 1521 basechar 0
LayerCount: 2
Fore
SplineSet
143 806 m 1,0,-1
 233 806 l 2,1,2
 303 806 303 806 337.5 886.5 c 128,-1,3
 372 967 372 967 372 1094 c 0,4,5
 372 1245 372 1245 336 1314.5 c 128,-1,6
 300 1384 300 1384 233 1384 c 2,7,-1
 143 1384 l 1,8,-1
 143 806 l 1,0,-1
32 0 m 1,9,-1
 32 1521 l 1,10,-1
 235 1521 l 2,11,12
 480 1521 480 1521 480 1099 c 0,13,14
 480 884 480 884 412.5 776.5 c 128,-1,15
 345 669 345 669 241 669 c 2,16,-1
 143 669 l 1,17,-1
 143 0 l 1,18,-1
 32 0 l 1,9,-1
EndSplineSet
EndChar

StartChar: Thorn
Encoding: 222 222 156
Width: 532
VWidth: 2441
GlyphClass: 1
Flags: HW
LayerCount: 2
Fore
SplineSet
139 522 m 1,0,-1
 242 522 l 2,1,2
 315 522 315 522 344 605.5 c 128,-1,3
 373 689 373 689 373 801 c 128,-1,4
 373 913 373 913 342 999.5 c 128,-1,5
 311 1086 311 1086 234 1086 c 2,6,-1
 139 1086 l 1,7,-1
 139 522 l 1,0,-1
32 0 m 1,8,-1
 32 1521 l 1,9,-1
 149 1521 l 2,10,11
 151 1519 151 1519 151 1514 c 0,12,13
 151 1507 151 1507 145 1491 c 128,-1,14
 139 1475 139 1475 139 1453 c 2,15,-1
 139 1223 l 1,16,-1
 257 1223 l 2,17,18
 330 1223 330 1223 378.5 1168 c 128,-1,19
 427 1113 427 1113 453.5 1018 c 128,-1,20
 480 923 480 923 480 806 c 0,21,22
 480 631 480 631 419.5 514.5 c 128,-1,23
 359 398 359 398 242 398 c 2,24,-1
 139 398 l 1,25,-1
 139 0 l 1,26,-1
 32 0 l 1,8,-1
EndSplineSet
EndChar

StartChar: Q
Encoding: 81 81 157
Width: 505
VWidth: 2391
GlyphClass: 2
Flags: HW
AnchorPoint: "Anchor-2" 252 83 basechar 0
AnchorPoint: "Anchor-0" 252 1522 basechar 0
LayerCount: 2
Fore
SplineSet
258 198 m 0,0,1
 314 198 314 198 346 328 c 128,-1,2
 378 458 378 458 378 762 c 0,3,4
 378 1004 378 1004 360.5 1146.5 c 128,-1,5
 343 1289 343 1289 315 1349 c 128,-1,6
 287 1409 287 1409 254 1409 c 0,7,8
 209 1409 209 1409 169.5 1276 c 128,-1,9
 130 1143 130 1143 130 830 c 0,10,11
 130 594 130 594 146.5 455.5 c 128,-1,12
 163 317 163 317 192 257.5 c 128,-1,13
 221 198 221 198 258 198 c 0,0,1
405 -245 m 1,14,15
 393.931677019 -246.00621118 393.931677019 -246.00621118 383.51957872 -246.00621118 c 0,16,17
 300.801242236 -246.00621118 300.801242236 -246.00621118 259.5 -182.5 c 0,18,19
 213 -111 213 -111 213 67 c 1,20,21
 157 95 157 95 115.5 171 c 128,-1,22
 74 247 74 247 50.5 396 c 128,-1,23
 27 545 27 545 27 795 c 0,24,25
 27 1088 27 1088 58 1249.5 c 128,-1,26
 89 1411 89 1411 140.5 1474.5 c 128,-1,27
 192 1538 192 1538 252 1538 c 0,28,29
 314 1538 314 1538 364.5 1472.5 c 128,-1,30
 415 1407 415 1407 445 1247.5 c 128,-1,31
 475 1088 475 1088 475 801 c 0,32,33
 475 550 475 550 455.5 397 c 128,-1,34
 436 244 436 244 399 168 c 128,-1,35
 362 92 362 92 303 67 c 1,36,37
 307 -10 307 -10 314 -60.5 c 128,-1,38
 321 -111 321 -111 364 -111 c 2,39,-1
 447 -106 l 1,40,-1
 445 -245 l 1,41,-1
 405 -245 l 1,14,15
EndSplineSet
EndChar

StartChar: R
Encoding: 82 82 158
Width: 512
VWidth: 2441
GlyphClass: 2
Flags: HW
AnchorPoint: "Anchor-2" 245 0 basechar 0
AnchorPoint: "Anchor-0" 245 1521 basechar 0
LayerCount: 2
Fore
SplineSet
145 815 m 1,0,-1
 230 815 l 2,1,2
 280 815 280 815 315 887.5 c 128,-1,3
 350 960 350 960 350 1101 c 0,4,5
 350 1252 350 1252 315.5 1318 c 128,-1,6
 281 1384 281 1384 230 1384 c 2,7,-1
 145 1384 l 1,8,-1
 145 815 l 1,0,-1
32 0 m 1,9,-1
 32 1521 l 1,10,-1
 221 1521 l 2,11,12
 342 1521 342 1521 401.5 1408.5 c 128,-1,13
 461 1296 461 1296 461 1101 c 0,14,15
 461 940 461 940 423.5 829 c 128,-1,16
 386 718 386 718 320 691 c 1,17,-1
 480 0 l 1,18,-1
 366 0 l 1,19,-1
 201 678 l 1,20,-1
 145 678 l 1,21,-1
 145 0 l 1,22,-1
 32 0 l 1,9,-1
EndSplineSet
EndChar

StartChar: S
Encoding: 83 83 166
Width: 512
VWidth: 2441
GlyphClass: 2
Flags: HW
AnchorPoint: "Anchor-2" 248 0 basechar 0
AnchorPoint: "Anchor-0" 264 1521 basechar 0
LayerCount: 2
Fore
SplineSet
248 -24 m 0,0,1
 182 -24 182 -24 127 16 c 128,-1,2
 72 56 72 56 32 144 c 1,3,-1
 72 322 l 1,4,-1
 77 347 l 1,5,-1
 93 342 l 1,6,7
 104 325 104 325 100.5 294 c 0,8,9
 99.8378378378 288.135135135 99.8378378378 288.135135135 99.8378378378 282.055514974 c 0,10,11
 99.8378378378 256 99.8378378378 256 112 226 c 0,12,13
 137 175 137 175 171.5 143.5 c 128,-1,14
 206 112 206 112 251 112 c 0,15,16
 313 112 313 112 343 179.5 c 128,-1,17
 373 247 373 247 373 391 c 0,18,19
 373 449 373 449 368.5 499.5 c 128,-1,20
 364 550 364 550 337 603.5 c 128,-1,21
 310 657 310 657 244 718 c 0,22,23
 135 811 135 811 95 926.5 c 128,-1,24
 55 1042 55 1042 55 1165 c 0,25,26
 55 1370 55 1370 111.5 1455 c 128,-1,27
 168 1540 168 1540 266 1540 c 0,28,29
 387 1540 387 1540 457 1374 c 1,30,-1
 413 1223 l 1,31,-1
 406 1199 l 1,32,-1
 393 1206 l 1,33,34
 384 1225 384 1225 387.5 1253 c 0,35,36
 388.069767442 1257.55813953 388.069767442 1257.55813953 388.069767442 1262.35478637 c 0,37,38
 388.069767442 1287.02325581 388.069767442 1287.02325581 373 1318 c 0,39,40
 328 1404 328 1404 259 1404 c 0,41,42
 204 1404 204 1404 184 1354 c 128,-1,43
 164 1304 164 1304 164 1177 c 0,44,45
 164 1082 164 1082 190.5 999 c 128,-1,46
 217 916 217 916 306 834 c 0,47,48
 408 743 408 743 444 640.5 c 128,-1,49
 480 538 480 538 480 415 c 0,50,51
 480 222 480 222 425.5 99 c 128,-1,52
 371 -24 371 -24 248 -24 c 0,0,1
EndSplineSet
EndChar

StartChar: uni1E9E
Encoding: 7838 7838 177
Width: 531
VWidth: 2441
GlyphClass: 1
Flags: HW
LayerCount: 2
Fore
SplineSet
282 -24 m 0,0,1
 217 -24 217 -24 169 37 c 1,2,-1
 203 170 l 1,3,4
 239 114 239 114 276 114 c 0,5,6
 329 114 329 114 351 197.5 c 128,-1,7
 373 281 373 281 373 464 c 0,8,9
 373 623 373 623 350.5 708.5 c 128,-1,10
 328 794 328 794 242 794 c 2,11,-1
 210 794 l 1,12,-1
 210 925 l 1,13,-1
 339 1223 l 1,14,15
 339 1293 339 1293 332.5 1358 c 128,-1,16
 326 1423 326 1423 306 1465 c 128,-1,17
 286 1507 286 1507 244 1507 c 0,18,19
 195 1507 195 1507 167.5 1426 c 128,-1,20
 140 1345 140 1345 140 1160 c 2,21,-1
 140 0 l 1,22,-1
 32 0 l 1,23,-1
 32 1128 l 2,24,25
 32 1338 32 1338 60.5 1447 c 128,-1,26
 89 1556 89 1556 138 1594.5 c 128,-1,27
 187 1633 187 1633 244 1633 c 0,28,29
 343 1633 343 1633 394 1521 c 128,-1,30
 445 1409 445 1409 445 1204 c 1,31,-1
 298 918 l 1,32,33
 399 894 399 894 439.5 776.5 c 128,-1,34
 480 659 480 659 480 442 c 0,35,36
 480 195 480 195 427.5 85.5 c 128,-1,37
 375 -24 375 -24 282 -24 c 0,0,1
EndSplineSet
EndChar

StartChar: T
Encoding: 84 84 179
Width: 512
VWidth: 2441
GlyphClass: 2
Flags: HW
AnchorPoint: "Anchor-4" 252 762 basechar 0
AnchorPoint: "Anchor-2" 258 0 basechar 0
AnchorPoint: "Anchor-0" 258 1521 basechar 0
LayerCount: 2
Fore
SplineSet
200 0 m 1,0,-1
 200 1386 l 1,1,-1
 32 1386 l 1,2,-1
 32 1523 l 1,3,-1
 480 1523 l 1,4,-1
 480 1386 l 1,5,-1
 306 1386 l 1,6,-1
 306 0 l 1,7,-1
 200 0 l 1,0,-1
EndSplineSet
EndChar

StartChar: Tbar
Encoding: 358 358 180
Width: 512
VWidth: 2441
GlyphClass: 2
Flags: HW
AnchorPoint: "Anchor-4" 252 762 basechar 0
AnchorPoint: "Anchor-2" 258 0 basechar 0
AnchorPoint: "Anchor-0" 258 1521 basechar 0
LayerCount: 2
Fore
SplineSet
200 0 m 1,0,-1
 200 694 l 1,1,-1
 90 694 l 1,2,-1
 90 830 l 1,3,-1
 200 830 l 1,4,-1
 200 1386 l 1,5,-1
 32 1386 l 1,6,-1
 32 1523 l 1,7,-1
 480 1523 l 1,8,-1
 480 1386 l 1,9,-1
 306 1386 l 1,10,-1
 306 830 l 1,11,-1
 426 830 l 1,12,-1
 426 694 l 1,13,-1
 306 694 l 1,14,-1
 306 0 l 1,15,-1
 200 0 l 1,0,-1
EndSplineSet
EndChar

StartChar: U
Encoding: 85 85 186
Width: 512
VWidth: 2441
GlyphClass: 2
Flags: HW
AnchorPoint: "Anchor-3" 311 24 basechar 0
AnchorPoint: "Anchor-2" 254 0 basechar 0
AnchorPoint: "Anchor-1" 480 1521 basechar 0
AnchorPoint: "Anchor-0" 254 1521 basechar 0
LayerCount: 2
Fore
SplineSet
256 -27 m 0,0,1
 121 -27 121 -27 76.5 96 c 128,-1,2
 32 219 32 219 32 476 c 2,3,-1
 32 1521 l 1,4,-1
 165 1521 l 1,5,-1
 165 1504 l 1,6,7
 152 1490 152 1490 149 1473 c 128,-1,8
 146 1456 146 1456 146 1414 c 2,9,-1
 146 473 l 2,10,11
 146 285 146 285 170 194 c 0,12,13
 193.483870968 104.956989247 193.483870968 104.956989247 253.350907619 104.956989247 c 0,14,15
 254.666666667 104.956989247 254.666666667 104.956989247 256 105 c 0,16,17
 320 107 320 107 343 206 c 128,-1,18
 366 305 366 305 366 480 c 2,19,-1
 366 1521 l 1,20,-1
 480 1521 l 1,21,-1
 480 484 l 2,22,23
 480 203 480 203 428 88 c 128,-1,24
 376 -27 376 -27 256 -27 c 0,0,1
EndSplineSet
EndChar

StartChar: V
Encoding: 86 86 209
Width: 479
VWidth: 2441
GlyphClass: 2
Flags: HW
AnchorPoint: "Anchor-2" 236 0 basechar 0
AnchorPoint: "Anchor-0" 236 1521 basechar 0
LayerCount: 2
Fore
SplineSet
210 -10 m 1,0,-1
 13 1523 l 1,1,-1
 113 1523 l 1,2,-1
 243 452 l 1,3,-1
 364 1521 l 1,4,-1
 461 1521 l 1,5,-1
 267 -10 l 1,6,-1
 210 -10 l 1,0,-1
EndSplineSet
EndChar

StartChar: W
Encoding: 87 87 210
Width: 449
VWidth: 2441
GlyphClass: 2
Flags: HW
AnchorPoint: "Anchor-2" 219 0 basechar 0
AnchorPoint: "Anchor-0" 224 1521 basechar 0
LayerCount: 2
Fore
SplineSet
86 0 m 1,0,-1
 -7 1521 l 1,1,-1
 79 1521 l 1,2,-1
 123 615 l 1,3,-1
 204 1409 l 1,4,-1
 244 1409 l 1,5,-1
 322 615 l 1,6,-1
 361 1521 l 1,7,-1
 441 1521 l 1,8,-1
 348 0 l 1,9,-1
 304 0 l 1,10,-1
 219 920 l 1,11,-1
 134 0 l 1,12,-1
 86 0 l 1,0,-1
EndSplineSet
EndChar

StartChar: X
Encoding: 88 88 215
Width: 524
VWidth: 2441
GlyphClass: 2
Flags: HW
AnchorPoint: "Anchor-2" 252 0 basechar 0
AnchorPoint: "Anchor-0" 252 1521 basechar 0
LayerCount: 2
Fore
SplineSet
32 0 m 1,0,-1
 194 776 l 1,1,-1
 36 1523 l 1,2,-1
 141 1523 l 1,3,-1
 252 994 l 1,4,-1
 365 1523 l 1,5,-1
 460 1523 l 1,6,-1
 310 778 l 1,7,-1
 480 0 l 1,8,-1
 376 0 l 1,9,-1
 252 554 l 1,10,-1
 132 0 l 1,11,-1
 32 0 l 1,0,-1
EndSplineSet
EndChar

StartChar: Y
Encoding: 89 89 216
Width: 495
VWidth: 2441
GlyphClass: 2
Flags: HW
AnchorPoint: "Anchor-2" 253 0 basechar 0
AnchorPoint: "Anchor-0" 245 1521 basechar 0
LayerCount: 2
Fore
SplineSet
201 0 m 1,0,-1
 201 576 l 1,1,-1
 22 1521 l 1,2,-1
 126 1521 l 1,3,-1
 253 827 l 1,4,-1
 372 1521 l 1,5,-1
 470 1521 l 1,6,-1
 303 576 l 1,7,-1
 303 0 l 1,8,-1
 201 0 l 1,0,-1
EndSplineSet
EndChar

StartChar: Z
Encoding: 90 90 226
Width: 512
VWidth: 2441
GlyphClass: 2
Flags: HW
AnchorPoint: "Anchor-2" 270 0 basechar 0
AnchorPoint: "Anchor-0" 259 1521 basechar 0
LayerCount: 2
Fore
SplineSet
32 110 m 1,0,-1
 350 1384 l 1,1,-1
 45 1384 l 1,2,-1
 45 1521 l 1,3,-1
 463 1521 l 1,4,-1
 463 1411 l 1,5,-1
 149 137 l 1,6,-1
 385 137 l 2,7,8
 422 137 422 137 437.5 142 c 128,-1,9
 453 147 453 147 465 161 c 1,10,-1
 480 161 l 1,11,-1
 480 0 l 1,12,-1
 32 0 l 1,13,-1
 32 110 l 1,0,-1
EndSplineSet
EndChar

StartChar: a
Encoding: 97 97 232
Width: 512
VWidth: 2441
GlyphClass: 2
Flags: HW
AnchorPoint: "Anchor-3" 446 0 basechar 0
AnchorPoint: "Anchor-2" 224 0 basechar 0
AnchorPoint: "Anchor-0" 260 1097 basechar 0
LayerCount: 2
Fore
SplineSet
129 300 m 0,0,1
 129 202 129 202 156 157 c 128,-1,2
 183 112 183 112 224 112 c 0,3,4
 294 112 294 112 334.5 219.5 c 128,-1,5
 375 327 375 327 380 535 c 1,6,7
 333 545 333 545 299 545 c 0,8,9
 217 545 217 545 173 492 c 128,-1,10
 129 439 129 439 129 300 c 0,0,1
215 -27 m 0,11,12
 127 -27 127 -27 79.5 68 c 128,-1,13
 32 163 32 163 32 298 c 0,14,15
 32 449 32 449 63.5 532 c 128,-1,16
 95 615 95 615 154 646.5 c 128,-1,17
 213 678 213 678 292 678 c 0,18,19
 312 678 312 678 333.5 674.5 c 128,-1,20
 355 671 355 671 380 664 c 1,21,22
 378 794 378 794 368 865.5 c 128,-1,23
 358 937 358 937 329.5 967 c 128,-1,24
 301 997 301 997 247 997 c 0,25,26
 182 997 182 997 116 908 c 1,27,-1
 68 1025 l 1,28,29
 150 1139 150 1139 254 1140 c 0,30,31
 338 1140 338 1140 386.5 1095 c 128,-1,32
 435 1050 435 1050 457.5 931.5 c 128,-1,33
 480 813 480 813 480 594 c 2,34,-1
 480 0 l 1,35,-1
 383 0 l 1,36,-1
 383 170 l 1,37,38
 353 48 353 48 306.5 10.5 c 128,-1,39
 260 -27 260 -27 215 -27 c 0,11,12
EndSplineSet
Substitution2: "Single Substitution lookup 29 subtable" ordfeminine
Substitution2: "'aalt' Access All Alternates in Latin lookup 0 subtable" ordfeminine
EndChar

StartChar: ae
Encoding: 230 230 257
Width: 434
VWidth: 2441
GlyphClass: 1
Flags: HW
LayerCount: 2
Fore
SplineSet
117 107 m 0,0,1
 141 107 141 107 149.5 166.5 c 128,-1,2
 158 226 158 226 159 323 c 128,-1,3
 160 420 160 420 160 532 c 1,4,5
 110 522 110 522 94.5 474.5 c 128,-1,6
 79 427 79 427 79 298 c 0,7,8
 79 195 79 195 87.5 151 c 128,-1,9
 96 107 96 107 117 107 c 0,0,1
252 678 m 1,10,-1
 335 689 l 1,11,12
 335 843 335 843 329.5 923.5 c 128,-1,13
 324 1004 324 1004 304 1004 c 0,14,15
 274 1004 274 1004 263 919 c 128,-1,16
 252 834 252 834 252 678 c 1,10,-1
104 -27 m 0,17,18
 39 -27 39 -27 10.5 68 c 128,-1,19
 -18 163 -18 163 -18 300 c 0,20,21
 -18 432 -18 432 -2 506.5 c 128,-1,22
 14 581 14 581 52.5 617.5 c 128,-1,23
 91 654 91 654 160 669 c 1,24,25
 160 828 160 828 151.5 916 c 128,-1,26
 143 1004 143 1004 104 1004 c 0,27,28
 83 1004 83 1004 68.5 983 c 128,-1,29
 54 962 54 962 40 925 c 1,30,-1
 5 1030 l 1,31,32
 21 1079 21 1079 48 1109.5 c 128,-1,33
 75 1140 75 1140 110 1140 c 0,34,35
 143 1140 143 1140 170 1098.5 c 128,-1,36
 197 1057 197 1057 210 1006 c 1,37,38
 219 1062 219 1062 249.5 1101 c 128,-1,39
 280 1140 280 1140 308 1140 c 0,40,41
 371 1140 371 1140 398.5 1026.5 c 128,-1,42
 426 913 426 913 426 654 c 2,43,-1
 426 566 l 1,44,-1
 252 552 l 1,45,-1
 252 427 l 2,46,47
 252 285 252 285 267 192.5 c 128,-1,48
 282 100 282 100 323 100 c 0,49,50
 346 100 346 100 363 125.5 c 128,-1,51
 380 151 380 151 391 184 c 1,52,-1
 430 79 l 1,53,54
 414 33 414 33 386 3 c 128,-1,55
 358 -27 358 -27 324 -27 c 0,56,57
 289 -27 289 -27 252 9.5 c 128,-1,58
 215 46 215 46 204 107 c 1,59,60
 191 46 191 46 164 9.5 c 128,-1,61
 137 -27 137 -27 104 -27 c 0,17,18
EndSplineSet
EndChar

StartChar: b
Encoding: 98 98 259
Width: 542
VWidth: 2441
GlyphClass: 2
Flags: HW
AnchorPoint: "Anchor-2" 506 0 basechar 0
AnchorPoint: "Anchor-0" 506 1116 basechar 0
LayerCount: 2
Fore
SplineSet
255 119 m 0,0,1
 281 119 281 119 303.5 130.5 c 128,-1,2
 326 142 326 142 342.5 184 c 128,-1,3
 359 226 359 226 368 315.5 c 128,-1,4
 377 405 377 405 377 559 c 0,5,6
 377 745 377 745 363 838.5 c 128,-1,7
 349 932 349 932 324.5 966.5 c 128,-1,8
 300 1001 300 1001 264 1001 c 0,9,10
 229 1001 229 1001 200.5 962 c 128,-1,11
 172 923 172 923 154 825 c 128,-1,12
 136 727 136 727 136 554 c 0,13,14
 136 322 136 322 164.5 220.5 c 128,-1,15
 193 119 193 119 255 119 c 0,0,1
273 -27 m 0,16,17
 230 -27 230 -27 188 18 c 128,-1,18
 146 63 146 63 134 147 c 1,19,-1
 122 0 l 1,20,-1
 32 0 l 1,21,-1
 32 1624 l 1,22,-1
 146 1624 l 1,23,-1
 146 1607 l 1,24,25
 140 1593 140 1593 138 1575.5 c 128,-1,26
 136 1558 136 1558 136 1516 c 2,27,-1
 136 945 l 1,28,29
 160 1052 160 1052 207.5 1097 c 128,-1,30
 255 1142 255 1142 289 1142 c 0,31,32
 349 1142 349 1142 391 1098.5 c 128,-1,33
 433 1055 433 1055 456.5 931.5 c 128,-1,34
 480 808 480 808 480 569 c 0,35,36
 480 325 480 325 450 196.5 c 128,-1,37
 420 68 420 68 372 20.5 c 128,-1,38
 324 -27 324 -27 273 -27 c 0,16,17
EndSplineSet
EndChar

StartChar: c
Encoding: 99 99 261
Width: 512
VWidth: 2441
GlyphClass: 2
Flags: HW
AnchorPoint: "Anchor-2" 291 0 basechar 0
AnchorPoint: "Anchor-0" 291 1116 basechar 0
LayerCount: 2
Fore
SplineSet
289 -27 m 0,0,1
 32 -27 32 -27 32 557 c 0,2,3
 32 781 32 781 70 906.5 c 128,-1,4
 108 1032 108 1032 167 1084.5 c 128,-1,5
 226 1137 226 1137 286 1137 c 0,6,7
 431 1137 431 1137 480 976 c 1,8,-1
 429 869 l 1,9,-1
 420 848 l 1,10,-1
 406 855 l 1,11,12
 399 874 399 874 398 899.5 c 128,-1,13
 397 925 397 925 378 960 c 1,14,15
 340 1009 340 1009 284 1009 c 0,16,17
 255 1009 255 1009 220.5 970.5 c 128,-1,18
 186 932 186 932 163 834.5 c 128,-1,19
 140 737 140 737 140 557 c 0,20,21
 140 301 140 301 178.5 203 c 128,-1,22
 217 105 217 105 293 105 c 0,23,24
 331 105 331 105 365.5 132 c 128,-1,25
 400 159 400 159 429 219 c 1,26,-1
 471 91 l 1,27,28
 437 30 437 30 389.5 1.5 c 128,-1,29
 342 -27 342 -27 289 -27 c 0,0,1
EndSplineSet
EndChar

StartChar: d
Encoding: 100 100 268
Width: 512
VWidth: 2441
GlyphClass: 2
Flags: HW
AnchorPoint: "Anchor-4" 377 1340 basechar 0
AnchorPoint: "Anchor-2" 258 0 basechar 0
AnchorPoint: "Anchor-1" 495 1116 basechar 0
AnchorPoint: "Anchor-0" 258 1116 basechar 0
LayerCount: 2
Fore
SplineSet
243 114 m 0,0,1
 276 114 276 114 302 155 c 128,-1,2
 328 196 328 196 342.5 293.5 c 128,-1,3
 357 391 357 391 357 564 c 0,4,5
 357 811 357 811 324 905 c 128,-1,6
 291 999 291 999 248 999 c 0,7,8
 209 999 209 999 183 967 c 128,-1,9
 157 935 157 935 144 848.5 c 128,-1,10
 131 762 131 762 131 596 c 0,11,12
 131 386 131 386 147 282.5 c 128,-1,13
 163 179 163 179 189 146.5 c 128,-1,14
 215 114 215 114 243 114 c 0,0,1
221 -24 m 0,15,16
 182 -24 182 -24 148 -1.5 c 128,-1,17
 114 21 114 21 88 85 c 128,-1,18
 62 149 62 149 47 266.5 c 128,-1,19
 32 384 32 384 32 569 c 0,20,21
 32 809 32 809 58 932 c 128,-1,22
 84 1055 84 1055 129 1098.5 c 128,-1,23
 174 1142 174 1142 232 1142 c 0,24,25
 337 1142 337 1142 357 969 c 1,26,-1
 357 1624 l 1,27,-1
 480 1624 l 1,28,-1
 480 1607 l 1,29,30
 467 1593 467 1593 464 1575.5 c 128,-1,31
 461 1558 461 1558 461 1516 c 2,32,-1
 461 173 l 2,33,34
 461 129 461 129 462 86.5 c 128,-1,35
 463 44 463 44 472 0 c 1,36,-1
 373 0 l 1,37,38
 365 30 365 30 359 66.5 c 128,-1,39
 353 103 353 103 353 147 c 1,40,41
 336 77 336 77 302 26.5 c 128,-1,42
 268 -24 268 -24 221 -24 c 0,15,16
EndSplineSet
EndChar

StartChar: eth
Encoding: 240 240 269
Width: 512
VWidth: 2441
GlyphClass: 1
Flags: HW
LayerCount: 2
Fore
SplineSet
262 100 m 0,0,1
 298 100 298 100 326 133 c 128,-1,2
 354 166 354 166 369 266 c 128,-1,3
 384 366 384 366 384 566 c 0,4,5
 384 803 384 803 346.5 909.5 c 128,-1,6
 310.02739726 1013.08219178 310.02739726 1013.08219178 262.676299493 1013.08219178 c 0,0,0
 261.342465753 1013.08219178 261.342465753 1013.08219178 260 1013 c 0,7,8
 217 1013 217 1013 187.5 972.5 c 128,-1,9
 158 932 158 932 143 836 c 128,-1,10
 128 740 128 740 128 566 c 0,11,12
 128 382 128 382 145 281.5 c 128,-1,13
 162 181 162 181 191.5 140.5 c 128,-1,14
 221 100 221 100 262 100 c 0,0,1
262 -30 m 0,15,16
 201 -30 201 -30 148.5 21.5 c 128,-1,17
 96 73 96 73 64 198.5 c 128,-1,18
 32 324 32 324 32 545 c 0,19,20
 32 771 32 771 58.5 901.5 c 128,-1,21
 85 1032 85 1032 134 1086 c 128,-1,22
 183 1140 183 1140 248 1140 c 0,23,24
 284 1140 284 1140 314 1123 c 128,-1,25
 344 1106 344 1106 362 1055 c 1,26,27
 349 1125 349 1125 330 1202 c 128,-1,28
 311 1279 311 1279 280 1347 c 1,29,-1
 166 1272 l 1,30,-1
 128 1377 l 1,31,-1
 235 1445 l 1,32,33
 211 1491 211 1491 185.5 1530.5 c 128,-1,34
 160 1570 160 1570 130 1601 c 1,35,-1
 235 1640 l 1,36,37
 284 1577 284 1577 327 1489 c 1,38,-1
 433 1560 l 1,39,-1
 465 1453 l 1,40,-1
 370 1400 l 1,41,42
 411 1297 411 1297 434 1184.5 c 128,-1,43
 457 1072 457 1072 468.5 935.5 c 128,-1,44
 480 799 480 799 480 617 c 0,45,46
 480 361 480 361 455.5 221 c 128,-1,47
 431 81 431 81 382 25.5 c 128,-1,48
 333 -30 333 -30 262 -30 c 0,15,16
EndSplineSet
EndChar

StartChar: dcaron
Encoding: 271 271 270
Width: 468
VWidth: 2441
GlyphClass: 1
Flags: HW
LayerCount: 2
Fore
SplineSet
163 114 m 0,0,1
 180 114 180 114 198 151 c 128,-1,2
 216 188 216 188 227.5 286 c 128,-1,3
 239 384 239 384 239 564 c 0,4,5
 239 734 239 734 227.5 828.5 c 128,-1,6
 216 923 216 923 200.5 961 c 128,-1,7
 185 999 185 999 171 999 c 0,8,9
 143 999 143 999 125.5 971 c 128,-1,10
 108 943 108 943 100.5 857 c 128,-1,11
 93 771 93 771 93 596 c 0,12,13
 93 430 93 430 99.5 332.5 c 128,-1,14
 106 235 106 235 117 188.5 c 128,-1,15
 128 142 128 142 140.5 128 c 128,-1,16
 153 114 153 114 163 114 c 0,0,1
143 -24 m 0,17,18
 113 -24 113 -24 89 -3.5 c 128,-1,19
 65 17 65 17 47 78 c 128,-1,20
 29 139 29 139 19.5 257.5 c 128,-1,21
 10 376 10 376 10 569 c 0,22,23
 10 755 10 755 18.5 868 c 128,-1,24
 27 981 27 981 45 1041 c 128,-1,25
 63 1101 63 1101 89.5 1121.5 c 128,-1,26
 116 1142 116 1142 151 1142 c 0,27,28
 230 1142 230 1142 237 974 c 1,29,-1
 237 1624 l 1,30,-1
 344 1624 l 1,31,-1
 344 1607 l 1,32,33
 332 1593 332 1593 329 1575.5 c 128,-1,34
 326 1558 326 1558 326 1516 c 2,35,-1
 326 173 l 2,36,37
 326 129 326 129 327 86.5 c 128,-1,38
 328 44 328 44 334 0 c 1,39,-1
 252 0 l 1,40,41
 246 27 246 27 240 62.5 c 128,-1,42
 234 98 234 98 234 142 c 1,43,44
 222 74 222 74 199.5 25 c 128,-1,45
 177 -24 177 -24 143 -24 c 0,17,18
413 1631 m 0,46,47
 430 1631 430 1631 444 1599.5 c 128,-1,48
 458 1568 458 1568 458 1504 c 0,49,50
 458 1429 458 1429 443 1337 c 128,-1,51
 428 1245 428 1245 389 1140 c 1,52,-1
 350 1177 l 1,53,54
 365 1219 365 1219 381 1274.5 c 128,-1,55
 397 1330 397 1330 397 1382 c 0,56,57
 397 1419 397 1419 380 1445.5 c 128,-1,58
 364.789473684 1469.21052632 364.789473684 1469.21052632 364.789473684 1520.5401662 c 0,0,0
 364.789473684 1526.57894737 364.789473684 1526.57894737 365 1533 c 0,59,60
 367 1577 367 1577 380.5 1604 c 128,-1,61
 394 1631 394 1631 413 1631 c 0,46,47
EndSplineSet
EndChar

StartChar: e
Encoding: 101 101 274
Width: 512
VWidth: 2441
GlyphClass: 2
Flags: HW
AnchorPoint: "Anchor-3" 353 24 basechar 0
AnchorPoint: "Anchor-2" 312 0 basechar 0
AnchorPoint: "Anchor-0" 267 1116 basechar 0
LayerCount: 2
Fore
SplineSet
142 664 m 1,0,-1
 369 664 l 1,1,2
 369 857 369 857 349.5 937.5 c 128,-1,3
 330 1018 330 1018 265 1018 c 0,4,5
 224 1018 224 1018 200.5 989 c 128,-1,6
 177 960 177 960 164 883 c 128,-1,7
 151 806 151 806 142 664 c 1,0,-1
285 -24 m 0,8,9
 154 -24 154 -24 93 106.5 c 128,-1,10
 32 237 32 237 32 554 c 0,11,12
 32 873 32 873 89 1007.5 c 128,-1,13
 146 1142 146 1142 269 1142 c 0,14,15
 339 1142 339 1142 386 1096 c 128,-1,16
 433 1050 433 1050 456.5 935 c 128,-1,17
 480 820 480 820 480 613 c 0,18,19
 480 589 480 589 480 573 c 128,-1,20
 480 557 480 557 478 538 c 1,21,-1
 140 538 l 1,22,23
 142 370 142 370 156 275.5 c 128,-1,24
 170 181 170 181 201.5 144 c 128,-1,25
 233 107 233 107 288 107 c 0,26,27
 335 107 335 107 361 135 c 128,-1,28
 387 163 387 163 403 205 c 1,29,-1
 466 122 l 1,30,31
 434 56 434 56 388.5 16 c 128,-1,32
 343 -24 343 -24 285 -24 c 0,8,9
EndSplineSet
EndChar

StartChar: uni029A
Encoding: 666 666 296
Width: 512
VWidth: 2441
GlyphClass: 1
Flags: HW
LayerCount: 2
Fore
SplineSet
244 112 m 0,0,1
 292 112 292 112 320 151.5 c 128,-1,2
 348 191 348 191 362 288.5 c 128,-1,3
 376 386 376 386 376 561 c 128,-1,4
 376 736 376 736 361 834 c 128,-1,5
 346 932 346 932 319 970.5 c 128,-1,6
 292 1009 292 1009 251 1009 c 0,7,8
 166 1009 166 1009 166 827 c 0,9,10
 166 759 166 759 188 711.5 c 128,-1,11
 210 664 210 664 251 664 c 0,12,13
 257 664 257 664 263.5 664 c 128,-1,14
 270 664 270 664 276 666 c 1,15,-1
 276 527 l 1,16,17
 265 529 265 529 257 532 c 128,-1,18
 249 535 249 535 238 535 c 0,19,20
 197 535 197 535 167.5 482 c 128,-1,21
 138 429 138 429 138 335 c 0,22,23
 138 112 138 112 244 112 c 0,0,1
244 -19 m 0,24,25
 151 -17 151 -17 91.5 81 c 128,-1,26
 32 179 32 179 32 349 c 0,27,28
 32 452 32 452 61 523 c 128,-1,29
 90 594 90 594 133 615 c 1,30,31
 100 657 100 657 81.5 714 c 128,-1,32
 63 771 63 771 63 840 c 0,33,34
 63 991 63 991 119 1065.5 c 128,-1,35
 175 1140 175 1140 253 1140 c 0,36,37
 375 1140 375 1140 427.5 1004.5 c 128,-1,38
 480 869 480 869 480 559 c 128,-1,39
 480 249 480 249 421.5 114 c 128,-1,40
 363.854014599 -19.0291970803 363.854014599 -19.0291970803 247.461558954 -19.0291970803 c 0,0,0
 245.737226277 -19.0291970803 245.737226277 -19.0291970803 244 -19 c 0,24,25
EndSplineSet
EndChar

StartChar: f
Encoding: 102 102 300
Width: 501
VWidth: 2441
GlyphClass: 1
Flags: HW
LayerCount: 2
Fore
SplineSet
119 1001 m 1,0,-1
 29 1001 l 1,1,-1
 29 1116 l 1,2,-1
 119 1116 l 1,3,-1
 119 1209 l 2,4,5
 119 1433 119 1433 178 1535.5 c 128,-1,6
 237 1638 237 1638 313 1638 c 0,7,8
 356 1638 356 1638 404.5 1600.5 c 128,-1,9
 453 1563 453 1563 477 1484 c 1,10,-1
 428 1382 l 1,11,-1
 416 1360 l 1,12,-1
 404 1370 l 1,13,14
 402 1389 402 1389 402 1414.5 c 128,-1,15
 402 1440 402 1440 385 1475 c 1,16,17
 354 1521 354 1521 315 1521 c 0,18,19
 270 1521 270 1521 241 1444 c 128,-1,20
 212 1367 212 1367 212 1209 c 2,21,-1
 212 1116 l 1,22,-1
 353 1116 l 1,23,-1
 353 1001 l 1,24,-1
 212 1001 l 1,25,-1
 212 0 l 1,26,-1
 119 0 l 1,27,-1
 119 1001 l 1,0,-1
EndSplineSet
EndChar

StartChar: g
Encoding: 103 103 301
Width: 489
VWidth: 2298
GlyphClass: 2
Flags: HW
AnchorPoint: "Anchor-2" 250 -225 basechar 0
AnchorPoint: "Anchor-0" 222 1120 basechar 0
LayerCount: 2
Fore
SplineSet
127 28 m 0,0,1
 127 -46 127 -46 160 -83 c 128,-1,2
 193 -120 193 -120 244 -120 c 0,3,4
 307 -120 307 -120 327.5 -80 c 128,-1,5
 348 -40 348 -40 348 30 c 0,6,7
 348 102 348 102 330.5 137.5 c 128,-1,8
 313 173 313 173 258 173 c 0,9,10
 197 173 197 173 156 190 c 1,11,12
 140 159 140 159 133.5 123.5 c 128,-1,13
 127 88 127 88 127 28 c 0,0,1
222 586 m 128,-1,15
 267 586 267 586 279.5 646 c 128,-1,16
 292 706 292 706 292 812 c 128,-1,17
 292 918 292 918 279 978 c 128,-1,18
 266 1038 266 1038 222 1038 c 0,19,20
 177 1038 177 1038 163.5 978 c 128,-1,21
 150 918 150 918 150 812 c 128,-1,22
 150 706 150 706 163.5 646 c 128,-1,14
 177 586 177 586 222 586 c 128,-1,15
222 464 m 0,23,24
 189 464 189 464 162 482 c 1,25,26
 148 445 148 445 148 403 c 0,27,28
 148 351 148 351 170.5 326 c 128,-1,29
 193 301 193 301 274 301 c 0,30,31
 368 301 368 301 407 231.5 c 128,-1,32
 446 162 446 162 446 53 c 0,33,34
 446 -23 446 -23 426.5 -92 c 128,-1,35
 407 -161 407 -161 363 -203.5 c 128,-1,36
 319 -246 319 -246 244 -246 c 0,37,38
 146 -246 146 -246 87.5 -182 c 128,-1,39
 29 -118 29 -118 29 10 c 0,40,41
 29 91 29 91 49.5 147.5 c 128,-1,42
 70 204 70 204 101 231 c 1,43,44
 60 279 60 279 60 366 c 0,45,46
 60 414 60 414 74.5 458.5 c 128,-1,47
 89 503 89 503 109 544 c 1,48,49
 58 637 58 637 58 812 c 0,50,51
 58 973 58 973 102 1065.5 c 128,-1,52
 146 1158 146 1158 222 1158 c 0,53,54
 300 1158 300 1158 344 1060 c 1,55,56
 389.853211009 1148.11009174 389.853211009 1148.11009174 451.873411329 1148.11009174 c 0,57,58
 458.834862385 1148.11009174 458.834862385 1148.11009174 466 1147 c 1,59,-1
 477 1019 l 1,60,61
 446 1025 446 1025 419.5 1016 c 128,-1,62
 393 1007 393 1007 370 977 c 1,63,64
 384 905 384 905 385 812 c 0,65,66
 385 651 385 651 342.5 557.5 c 128,-1,67
 300 464 300 464 222 464 c 0,23,24
EndSplineSet
EndChar

StartChar: h
Encoding: 104 104 308
Width: 512
VWidth: 2441
GlyphClass: 2
Flags: HW
AnchorPoint: "Anchor-4" 112 1340 basechar 0
AnchorPoint: "Anchor-2" 254 0 basechar 0
AnchorPoint: "Anchor-0" 99 1624 basechar 0
LayerCount: 2
Fore
SplineSet
32 1624 m 1,0,-1
 160 1624 l 1,1,-1
 160 1607 l 1,2,3
 146 1593 146 1593 142.5 1575.5 c 128,-1,4
 139 1558 139 1558 139 1516 c 2,5,-1
 139 943 l 1,6,7
 199.696517413 1142.00497512 199.696517413 1142.00497512 301.976163956 1142.00497512 c 0,8,9
 302.487562189 1142.00497512 302.487562189 1142.00497512 303 1142 c 0,10,11
 364 1142 364 1142 403 1101 c 128,-1,12
 442 1060 442 1060 461 958.5 c 128,-1,13
 480 857 480 857 480 676 c 2,14,-1
 480 0 l 1,15,-1
 373 0 l 1,16,-1
 373 671 l 2,17,18
 373 846 373 846 353.5 928.5 c 128,-1,19
 334 1011 334 1011 287 1011 c 0,20,21
 233 1011 233 1011 186 908.5 c 128,-1,22
 139 806 139 806 139 643 c 2,23,-1
 139 0 l 1,24,-1
 32 0 l 1,25,-1
 32 1624 l 1,0,-1
EndSplineSet
EndChar

StartChar: i
Encoding: 105 105 313
Width: 450
VWidth: 2441
GlyphClass: 2
Flags: HW
AnchorPoint: "Anchor-3" 344 0 basechar 0
AnchorPoint: "Anchor-2" 228 0 basechar 0
AnchorPoint: "Anchor-0" 228 1477 basechar 0
LayerCount: 2
Fore
SplineSet
32 0 m 1,0,-1
 32 132 l 1,1,-1
 176 132 l 1,2,-1
 176 983 l 1,3,-1
 39 983 l 1,4,-1
 39 1116 l 1,5,-1
 288 1116 l 1,6,-1
 288 132 l 1,7,-1
 418 132 l 1,8,-1
 418 0 l 1,9,-1
 32 0 l 1,0,-1
225 1379 m 0,10,11
 193 1379 193 1379 169.5 1407 c 128,-1,12
 146 1435 146 1435 146 1475 c 0,13,14
 146 1517 146 1517 169.5 1544.5 c 128,-1,15
 193 1572 193 1572 225 1572 c 0,16,17
 260 1572 260 1572 283 1544 c 128,-1,18
 306 1516 306 1516 306 1475 c 0,19,20
 306 1436 306 1436 283 1407.5 c 128,-1,21
 260 1379 260 1379 225 1379 c 0,10,11
EndSplineSet
Substitution2: "'locl' Localized Forms in Latin lookup 18 subtable" i.loclTRK
Substitution2: "'locl' Localized Forms in Latin lookup 17 subtable" i.loclTRK
Substitution2: "'locl' Localized Forms in Latin lookup 16 subtable" i.loclTRK
Substitution2: "'locl' Localized Forms in Latin lookup 15 subtable" i.loclTRK
Substitution2: "'locl' Localized Forms in Latin lookup 14 subtable" i.loclTRK
Substitution2: "Single Substitution lookup 4 subtable" dotlessi
Substitution2: "Single Substitution lookup 3 subtable" dotlessi
AlternateSubs2: "'aalt' Access All Alternates in Latin lookup 1 subtable" dotlessi i.loclTRK
EndChar

StartChar: dotlessi
Encoding: 305 305 314
Width: 450
VWidth: 2441
GlyphClass: 2
Flags: HW
AnchorPoint: "Anchor-3" 344 0 basechar 0
AnchorPoint: "Anchor-2" 228 0 basechar 0
AnchorPoint: "Anchor-0" 228 1116 basechar 0
LayerCount: 2
Fore
SplineSet
32 0 m 1,0,-1
 32 132 l 1,1,-1
 176 132 l 1,2,-1
 176 983 l 1,3,-1
 39 983 l 1,4,-1
 39 1116 l 1,5,-1
 288 1116 l 1,6,-1
 288 132 l 1,7,-1
 418 132 l 1,8,-1
 418 0 l 1,9,-1
 32 0 l 1,0,-1
EndSplineSet
EndChar

StartChar: j
Encoding: 106 106 329
Width: 486
VWidth: 2362
GlyphClass: 2
Flags: HW
AnchorPoint: "Anchor-2" 297 -282 basechar 0
AnchorPoint: "Anchor-0" 384 1486 basechar 0
LayerCount: 2
Fore
SplineSet
212 -246 m 0,0,1
 163 -246 163 -246 114.5 -221.5 c 128,-1,2
 66 -197 66 -197 32 -148 c 1,3,-1
 92 -27 l 1,4,-1
 100 -6 l 1,5,-1
 115 -13 l 1,6,7
 122 -30 122 -30 123.5 -51.5 c 128,-1,8
 125 -73 125 -73 147 -104 c 1,9,10
 172 -126 172 -126 214 -127 c 0,11,12
 316 -127 316 -127 316 181 c 2,13,-1
 316 1036 l 1,14,-1
 115 1036 l 1,15,-1
 115 1157 l 1,16,-1
 416 1157 l 1,17,-1
 416 189 l 2,18,19
 416 20 416 20 393 -74.5 c 128,-1,20
 370 -169 370 -169 325 -207.5 c 128,-1,21
 280 -246 280 -246 212 -246 c 0,0,1
380 1396 m 0,22,23
 351 1396 351 1396 330.5 1422 c 128,-1,24
 310 1448 310 1448 310 1483 c 0,25,26
 310 1521 310 1521 331 1546.5 c 128,-1,27
 352 1572 352 1572 380 1572 c 0,28,29
 411 1572 411 1572 432.5 1546.5 c 128,-1,30
 454 1521 454 1521 454 1483 c 0,31,32
 454 1447 454 1447 432.5 1421.5 c 128,-1,33
 411 1396 411 1396 380 1396 c 0,22,23
EndSplineSet
Substitution2: "Single Substitution lookup 4 subtable" uni0237
Substitution2: "Single Substitution lookup 3 subtable" uni0237
Substitution2: "'aalt' Access All Alternates in Latin lookup 0 subtable" uni0237
EndChar

StartChar: uni0237
Encoding: 567 567 330
Width: 437
VWidth: 2286
GlyphClass: 2
Flags: HW
AnchorPoint: "Anchor-2" 289 -281 basechar 0
AnchorPoint: "Anchor-0" 374 1116 basechar 0
LayerCount: 2
Fore
SplineSet
207 -246 m 0,0,1
 160 -246 160 -246 112.5 -222.5 c 128,-1,2
 65 -199 65 -199 32 -151 c 1,3,-1
 90 -33 l 1,4,-1
 98 -13 l 1,5,-1
 112 -19 l 1,6,7
 118 -36 118 -36 120.5 -57 c 128,-1,8
 123 -78 123 -78 144 -108 c 1,9,10
 168 -129 168 -129 209 -130 c 0,11,12
 308 -130 308 -130 308 168 c 2,13,-1
 308 999 l 1,14,-1
 112 999 l 1,15,-1
 112 1116 l 1,16,-1
 405 1116 l 1,17,-1
 405 177 l 2,18,19
 405 13 405 13 382.5 -79 c 128,-1,20
 360 -171 360 -171 316.5 -208.5 c 128,-1,21
 273 -246 273 -246 207 -246 c 0,0,1
EndSplineSet
EndChar

StartChar: k
Encoding: 107 107 332
Width: 535
VWidth: 2441
GlyphClass: 2
Flags: HW
AnchorPoint: "Anchor-2" 236 0 basechar 0
AnchorPoint: "Anchor-0" 81 1624 basechar 0
LayerCount: 2
Fore
SplineSet
183 529 m 1,0,-1
 133 398 l 1,1,-1
 127 0 l 1,2,-1
 32 0 l 1,3,-1
 32 1624 l 1,4,-1
 147 1624 l 1,5,-1
 147 1607 l 1,6,7
 135 1593 135 1593 131 1575.5 c 128,-1,8
 127 1558 127 1558 127 1516 c 2,9,-1
 127 601 l 1,10,-1
 348 1121 l 1,11,12
 360 1116 360 1116 382 1112.5 c 128,-1,13
 404 1109 404 1109 419 1109 c 2,14,-1
 447 1109 l 1,15,-1
 247 647 l 1,16,-1
 480 0 l 1,17,-1
 380 -10 l 1,18,-1
 183 529 l 1,0,-1
EndSplineSet
EndChar

StartChar: kgreenlandic
Encoding: 312 312 334
Width: 535
VWidth: 2441
GlyphClass: 2
Flags: HW
AnchorPoint: "Anchor-2" 243 0 basechar 0
AnchorPoint: "Anchor-0" 87 1116 basechar 0
LayerCount: 2
Fore
SplineSet
183 529 m 1,0,-1
 133 398 l 1,1,-1
 127 0 l 1,2,-1
 32 0 l 1,3,-1
 32 1116 l 1,4,-1
 147 1116 l 1,5,-1
 147 1099 l 1,6,7
 135 1085 135 1085 131 1067.5 c 128,-1,8
 127 1050 127 1050 127 1009 c 2,9,-1
 127 601 l 1,10,-1
 348 1121 l 1,11,12
 360 1116 360 1116 382 1112.5 c 128,-1,13
 404 1109 404 1109 419 1109 c 2,14,-1
 447 1109 l 1,15,-1
 247 647 l 1,16,-1
 480 0 l 1,17,-1
 380 -10 l 1,18,-1
 183 529 l 1,0,-1
EndSplineSet
EndChar

StartChar: l
Encoding: 108 108 335
Width: 481
VWidth: 2441
GlyphClass: 2
Flags: HW
AnchorPoint: "Anchor-4" 242 559 basechar 0
AnchorPoint: "Anchor-2" 242 0 basechar 0
AnchorPoint: "Anchor-1" 523 1116 basechar 0
AnchorPoint: "Anchor-0" 242 1624 basechar 0
LayerCount: 2
Fore
SplineSet
32 0 m 1,0,-1
 32 132 l 1,1,-1
 188 132 l 1,2,-1
 188 1491 l 1,3,-1
 39 1491 l 1,4,-1
 39 1624 l 1,5,-1
 298 1624 l 1,6,-1
 298 132 l 1,7,-1
 449 132 l 1,8,-1
 449 0 l 1,9,-1
 32 0 l 1,0,-1
EndSplineSet
EndChar

StartChar: ldot
Encoding: 320 320 339
Width: 512
VWidth: 2441
GlyphClass: 1
Flags: HW
LayerCount: 2
Fore
SplineSet
398 703 m 128,-1,1
 364 703 364 703 340.5 735 c 128,-1,2
 317 767 317 767 317 811 c 128,-1,3
 317 855 317 855 340.5 886.5 c 128,-1,4
 364 918 364 918 398 918 c 128,-1,5
 432 918 432 918 456 886.5 c 128,-1,6
 480 855 480 855 480 811 c 128,-1,7
 480 767 480 767 456 735 c 128,-1,0
 432 703 432 703 398 703 c 128,-1,1
32 0 m 1,8,-1
 32 132 l 1,9,-1
 161 132 l 1,10,-1
 161 1491 l 1,11,-1
 39 1491 l 1,12,-1
 39 1624 l 1,13,-1
 264 1624 l 1,14,-1
 264 132 l 1,15,-1
 421 132 l 1,16,-1
 421 0 l 1,17,-1
 32 0 l 1,8,-1
EndSplineSet
EndChar

StartChar: uni01C9
Encoding: 457 457 341
Width: 520
VWidth: 2368
GlyphClass: 1
Flags: HW
LayerCount: 2
Fore
SplineSet
257 -246 m 0,0,1
 211 -246 211 -246 173 -217 c 128,-1,2
 135 -188 135 -188 112 -146 c 1,3,-1
 166 -12 l 1,4,5
 174 -27 174 -27 174 -37.5 c 128,-1,6
 174 -48 174 -48 181 -61.5 c 128,-1,7
 188 -75 188 -75 213 -101 c 0,8,9
 225 -112 225 -112 237 -116 c 128,-1,10
 249 -120 249 -120 263 -120 c 0,11,12
 317 -120 317 -120 343 -54 c 128,-1,13
 369 12 369 12 369 182 c 2,14,-1
 369 1039 l 1,15,-1
 223 1039 l 1,16,-1
 223 1160 l 1,17,-1
 462 1160 l 1,18,-1
 462 190 l 2,19,20
 462 20 462 20 437.5 -74.5 c 128,-1,21
 413 -169 413 -169 367 -206.5 c 128,-1,22
 321 -244 321 -244 257 -246 c 0,0,1
399 1401 m 0,23,24
 372 1401 372 1401 353 1426.5 c 128,-1,25
 334 1452 334 1452 334 1488 c 0,26,27
 334 1526 334 1526 353.5 1551.5 c 128,-1,28
 373 1577 373 1577 399 1577 c 0,29,30
 428 1577 428 1577 448 1551.5 c 128,-1,31
 468 1526 468 1526 468 1488 c 0,32,33
 468 1452 468 1452 448 1426.5 c 128,-1,34
 428 1401 428 1401 399 1401 c 0,23,24
20 141 m 1,35,-1
 20 262 l 1,36,-1
 81 262 l 1,37,-1
 81 1503 l 1,38,-1
 27 1503 l 1,39,-1
 27 1624 l 1,40,-1
 174 1624 l 1,41,-1
 174 262 l 1,42,-1
 292 262 l 1,43,-1
 292 141 l 1,44,-1
 20 141 l 1,35,-1
EndSplineSet
EndChar

StartChar: lslash
Encoding: 322 322 343
Width: 481
VWidth: 2441
GlyphClass: 1
Flags: HW
LayerCount: 2
Fore
SplineSet
32 0 m 1,0,-1
 32 132 l 1,1,-1
 183 132 l 1,2,-1
 183 685 l 1,3,-1
 100 620 l 1,4,-1
 100 778 l 1,5,-1
 183 845 l 1,6,-1
 183 1491 l 1,7,-1
 39 1491 l 1,8,-1
 39 1624 l 1,9,-1
 298 1624 l 1,10,-1
 298 906 l 1,11,-1
 396 986 l 1,12,-1
 396 820 l 1,13,-1
 298 745 l 1,14,-1
 298 132 l 1,15,-1
 449 132 l 1,16,-1
 449 0 l 1,17,-1
 32 0 l 1,0,-1
EndSplineSet
EndChar

StartChar: m
Encoding: 109 109 344
Width: 501
VWidth: 2441
GlyphClass: 2
Flags: HW
AnchorPoint: "Anchor-2" 253 0 basechar 0
AnchorPoint: "Anchor-0" 502 1116 basechar 0
LayerCount: 2
Fore
SplineSet
30 0 m 1,0,-1
 30 1116 l 1,1,-1
 126 1116 l 1,2,-1
 126 1006 l 1,3,4
 138 1067 138 1067 156.5 1104.5 c 128,-1,5
 175 1142 175 1142 202 1142 c 0,6,7
 233 1142 233 1142 253.5 1096 c 128,-1,8
 274 1050 274 1050 280 979 c 1,9,10
 292 1052 292 1052 321 1097 c 128,-1,11
 350 1142 350 1142 383 1142 c 0,12,13
 430 1142 430 1142 456 1065 c 0,14,15
 477.806451613 1000.41935484 477.806451613 1000.41935484 477.806451613 897.853277836 c 0,16,17
 477.806451613 878.129032258 477.806451613 878.129032258 477 857 c 1,18,-1
 477 0 l 1,19,-1
 381 0 l 1,20,-1
 381 792 l 2,21,22
 381 895 381 895 380 943 c 128,-1,23
 379 991 379 991 374 1007 c 128,-1,24
 369 1023 369 1023 357 1023 c 0,25,26
 339 1023 339 1023 326.5 977.5 c 128,-1,27
 314 932 314 932 308 866.5 c 128,-1,28
 302 801 302 801 302 737 c 2,29,-1
 302 0 l 1,30,-1
 206 0 l 1,31,-1
 206 776 l 2,32,33
 206 915 206 915 203 966.5 c 128,-1,34
 200 1018 200 1018 179 1018 c 0,35,36
 165 1018 165 1018 145.5 943.5 c 128,-1,37
 126 869 126 869 126 745 c 2,38,-1
 126 0 l 1,39,-1
 30 0 l 1,0,-1
EndSplineSet
EndChar

StartChar: n
Encoding: 110 110 346
Width: 512
VWidth: 2441
GlyphClass: 2
Flags: HW
AnchorPoint: "Anchor-2" 265 0 basechar 0
AnchorPoint: "Anchor-0" 272 1116 basechar 0
LayerCount: 2
Fore
SplineSet
32 0 m 1,0,-1
 32 1116 l 1,1,-1
 139 1116 l 1,2,-1
 139 943 l 1,3,4
 199.696517413 1142.00497512 199.696517413 1142.00497512 308.906685478 1142.00497512 c 0,5,6
 309.452736318 1142.00497512 309.452736318 1142.00497512 310 1142 c 0,7,8
 366 1142 366 1142 404 1108 c 128,-1,9
 442 1074 442 1074 461 978.5 c 128,-1,10
 480 883 480 883 480 701 c 2,11,-1
 480 0 l 1,12,-1
 373 0 l 1,13,-1
 373 696 l 2,14,15
 373 871 373 871 353.5 941 c 128,-1,16
 334 1011 334 1011 287 1011 c 0,17,18
 233 1011 233 1011 186 918 c 128,-1,19
 139 825 139 825 139 666 c 2,20,-1
 139 0 l 1,21,-1
 32 0 l 1,0,-1
EndSplineSet
EndChar

StartChar: eng
Encoding: 331 331 352
Width: 475
VWidth: 2288
GlyphClass: 1
Flags: HW
LayerCount: 2
Fore
SplineSet
250 -246 m 0,0,1
 190 -246 190 -246 147 -188 c 1,2,-1
 184 -65 l 1,3,4
 195 -67 195 -67 199 -81 c 128,-1,5
 203 -95 203 -95 213 -109.5 c 128,-1,6
 223 -124 223 -124 252 -124 c 0,7,8
 306 -124 306 -124 327.5 -30 c 128,-1,9
 349 64 349 64 349 230 c 2,10,-1
 349 726 l 2,11,12
 349 851 349 851 339.5 915 c 128,-1,13
 330 979 330 979 311.5 1001.5 c 128,-1,14
 293 1024 293 1024 268 1024 c 0,15,16
 216 1024 216 1024 173 932.5 c 128,-1,17
 130 841 130 841 130 701 c 2,18,-1
 130 133 l 1,19,-1
 32 133 l 1,20,-1
 32 1119 l 1,21,-1
 130 1119 l 1,22,-1
 130 966 l 1,23,24
 161 1057 161 1057 194 1099.5 c 128,-1,25
 227 1142 227 1142 283 1142 c 0,26,27
 326 1142 326 1142 363 1110 c 128,-1,28
 400 1078 400 1078 421.5 989.5 c 128,-1,29
 443 901 443 901 443 730 c 2,30,-1
 443 254 l 2,31,32
 443 67 443 67 419 -42 c 128,-1,33
 395 -151 395 -151 351.5 -198.5 c 128,-1,34
 308 -246 308 -246 250 -246 c 0,0,1
EndSplineSet
EndChar

StartChar: o
Encoding: 111 111 355
Width: 512
VWidth: 2441
GlyphClass: 2
Flags: HW
AnchorPoint: "Anchor-4" 257 559 basechar 0
AnchorPoint: "Anchor-3" 295 24 basechar 0
AnchorPoint: "Anchor-2" 257 0 basechar 0
AnchorPoint: "Anchor-1" 372 1065 basechar 0
AnchorPoint: "Anchor-0" 257 1116 basechar 0
LayerCount: 2
Fore
SplineSet
257 112 m 128,-1,1
 316 112 316 112 347 213.5 c 128,-1,2
 378 315 378 315 378 561 c 0,3,4
 378 815 378 815 346 912 c 128,-1,5
 314 1009 314 1009 257 1009 c 0,6,7
 202 1009 202 1009 168 912 c 128,-1,8
 134 815 134 815 134 561 c 0,9,10
 134 314 134 314 166 213 c 128,-1,0
 198 112 198 112 257 112 c 128,-1,1
257 -19 m 0,11,12
 192 -19 192 -19 140.5 37 c 128,-1,13
 89 93 89 93 60.5 220 c 128,-1,14
 32 347 32 347 32 559 c 0,15,16
 32 774 32 774 60.5 901 c 128,-1,17
 89 1028 89 1028 140.5 1084 c 128,-1,18
 192 1140 192 1140 257 1140 c 128,-1,19
 322 1140 322 1140 372.5 1084 c 128,-1,20
 423 1028 423 1028 451.5 901 c 128,-1,21
 480 774 480 774 480 559 c 0,22,23
 480 242 480 242 418.5 111.5 c 128,-1,24
 357 -19 357 -19 257 -19 c 0,11,12
EndSplineSet
Substitution2: "Single Substitution lookup 29 subtable" ordmasculine
Substitution2: "'aalt' Access All Alternates in Latin lookup 0 subtable" ordmasculine
EndChar

StartChar: oslash
Encoding: 248 248 383
Width: 512
VWidth: 2441
GlyphClass: 2
Flags: HW
AnchorPoint: "Anchor-4" 257 559 basechar 0
AnchorPoint: "Anchor-3" 295 24 basechar 0
AnchorPoint: "Anchor-2" 257 0 basechar 0
AnchorPoint: "Anchor-1" 372 1065 basechar 0
AnchorPoint: "Anchor-0" 257 1116 basechar 0
LayerCount: 2
Fore
SplineSet
257 112 m 0,0,1
 316 112 316 112 347 213.5 c 128,-1,2
 378 315 378 315 378 561 c 0,3,4
 378 747 378 747 359 852 c 1,5,-1
 187 161 l 1,6,7
 214 112 214 112 257 112 c 0,0,1
134 561 m 0,8,9
 134 395 134 395 149 296 c 1,10,-1
 318 974 l 1,11,12
 292 1009 292 1009 257 1009 c 0,13,14
 202 1009 202 1009 168 912 c 128,-1,15
 134 815 134 815 134 561 c 0,8,9
119 -114 m 1,16,-1
 53 -91 l 1,17,-1
 99 100 l 1,18,19
 67 166 67 166 49.5 279.5 c 128,-1,20
 32 393 32 393 32 559 c 0,21,22
 32 774 32 774 60.5 901 c 128,-1,23
 89 1028 89 1028 140.5 1084 c 128,-1,24
 192 1140 192 1140 257 1140 c 0,25,26
 310 1140 310 1140 350 1106 c 1,27,-1
 387 1250 l 1,28,-1
 452 1225 l 1,29,-1
 405 1037 l 1,30,31
 439 969 439 969 459.5 853 c 128,-1,32
 480 737 480 737 480 559 c 0,33,34
 480 242 480 242 418.5 111.5 c 128,-1,35
 357 -19 357 -19 257 -19 c 0,36,37
 198 -19 198 -19 153 21 c 1,38,-1
 119 -114 l 1,16,-1
EndSplineSet
EndChar

StartChar: oe
Encoding: 339 339 389
Width: 430
VWidth: 2441
GlyphClass: 1
Flags: HW
LayerCount: 2
Fore
SplineSet
123 110 m 128,-1,1
 141 110 141 110 151.5 141.5 c 128,-1,2
 162 173 162 173 162 217 c 0,3,4
 162 222 162 222 161 235.5 c 128,-1,5
 160 249 160 249 158 273 c 0,6,7
 147 446 147 446 147 581 c 0,8,9
 147 723 147 723 151.5 795 c 128,-1,10
 156 867 156 867 156 883 c 0,11,12
 156 929 156 929 147.5 966.5 c 128,-1,13
 139 1004 139 1004 121 1004 c 0,14,15
 108 1004 108 1004 94.5 965.5 c 128,-1,16
 81 927 81 927 72.5 836 c 128,-1,17
 64 745 64 745 64 583 c 0,18,19
 64 402 64 402 70.5 299 c 128,-1,20
 77 196 77 196 91 153 c 128,-1,0
 105 110 105 110 123 110 c 128,-1,1
233 678 m 1,21,-1
 344 678 l 1,22,23
 344 851 344 851 334.5 933.5 c 128,-1,24
 325 1016 325 1016 284 1016 c 0,25,26
 249 1016 249 1016 241 926.5 c 128,-1,27
 233 837 233 837 233 678 c 1,21,-1
314 -30 m 0,28,29
 248 -30 248 -30 206 56 c 1,30,31
 167 -27 167 -27 114 -27 c 0,32,33
 92 -27 92 -27 68 -4 c 128,-1,34
 44 19 44 19 24 80.5 c 128,-1,35
 4 142 4 142 -9 256.5 c 128,-1,36
 -22 371 -22 371 -22 557 c 0,37,38
 -22 783 -22 783 -4.5 909 c 128,-1,39
 13 1035 13 1035 45 1086 c 128,-1,40
 77 1137 77 1137 121 1137 c 0,41,42
 176 1137 176 1137 207 1039 c 1,43,44
 242 1137 242 1137 300 1137 c 0,45,46
 339 1137 339 1137 366 1097 c 128,-1,47
 393 1057 393 1057 407.5 960.5 c 128,-1,48
 422 864 422 864 422 691 c 2,49,-1
 422 540 l 1,50,-1
 232 540 l 1,51,52
 234 367 234 367 241.5 271 c 128,-1,53
 249 175 249 175 266 139 c 128,-1,54
 283 103 283 103 307 103 c 0,55,56
 335 103 335 103 357 132 c 128,-1,57
 379 161 379 161 395 207 c 1,58,-1
 426 103 l 1,59,60
 379 -30 379 -30 314 -30 c 0,28,29
EndSplineSet
EndChar

StartChar: p
Encoding: 112 112 390
Width: 512
VWidth: 2304
GlyphClass: 2
Flags: HW
AnchorPoint: "Anchor-2" 264 119 basechar 0
AnchorPoint: "Anchor-0" 264 1118 basechar 0
LayerCount: 2
Fore
SplineSet
262 213 m 0,0,1
 289 213 289 213 310.5 226.5 c 128,-1,2
 332 240 332 240 347.5 280 c 128,-1,3
 363 320 363 320 371.5 401 c 128,-1,4
 380 482 380 482 380 620 c 0,5,6
 380 787 380 787 368 871.5 c 128,-1,7
 356 956 356 956 330 986 c 128,-1,8
 304 1016 304 1016 264 1016 c 0,9,10
 210 1016 210 1016 170.5 917 c 128,-1,11
 131 818 131 818 131 585 c 0,12,13
 133 377 133 377 167 295 c 128,-1,14
 201 213 201 213 262 213 c 0,0,1
32 -246 m 1,15,-1
 32 1118 l 1,16,-1
 131 1118 l 1,17,-1
 131 966 l 1,18,19
 148 1041 148 1041 188 1090.5 c 128,-1,20
 228 1140 228 1140 280 1140 c 0,21,22
 326 1140 326 1140 361.5 1121.5 c 128,-1,23
 397 1103 397 1103 424.5 1050.5 c 128,-1,24
 452 998 452 998 466 896.5 c 128,-1,25
 480 795 480 795 480 626 c 0,26,27
 480 416 480 416 456 300 c 128,-1,28
 432 184 432 184 386.5 138 c 128,-1,29
 341 92 341 92 276 92 c 0,30,31
 226 92 226 92 187 134 c 128,-1,32
 148 176 148 176 131 250 c 1,33,-1
 131 -246 l 1,34,-1
 32 -246 l 1,15,-1
EndSplineSet
EndChar

StartChar: thorn
Encoding: 254 254 391
Width: 512
VWidth: 2374
GlyphClass: 1
Flags: HW
LayerCount: 2
Fore
SplineSet
262 226 m 0,0,1
 289 226 289 226 310.5 239.5 c 128,-1,2
 332 253 332 253 347.5 294.5 c 128,-1,3
 363 336 363 336 371.5 419 c 128,-1,4
 380 502 380 502 380 644 c 0,5,6
 380 815 380 815 368 902 c 128,-1,7
 356 989 356 989 330 1020 c 128,-1,8
 304 1051 304 1051 264 1051 c 0,9,10
 210 1051 210 1051 170.5 949.5 c 128,-1,11
 131 848 131 848 131 608 c 0,12,13
 133 394 133 394 167 310 c 128,-1,14
 201 226 201 226 262 226 c 0,0,1
32 1624 m 1,15,-1
 150 1624 l 1,16,-1
 150 1608 l 1,17,18
 137 1595 137 1595 134 1579 c 128,-1,19
 131 1563 131 1563 131 1525 c 2,20,-1
 131 999 l 1,21,22
 148 1076 148 1076 188 1127 c 128,-1,23
 228 1178 228 1178 280 1178 c 0,24,25
 326 1178 326 1178 361.5 1159.5 c 128,-1,26
 397 1141 397 1141 424.5 1086.5 c 128,-1,27
 452 1032 452 1032 466 928 c 128,-1,28
 480 824 480 824 480 650 c 0,29,30
 480 434 480 434 456 315 c 128,-1,31
 432 196 432 196 386.5 149 c 128,-1,32
 341 102 341 102 276 102 c 0,33,34
 226 102 226 102 187 144.5 c 128,-1,35
 148 187 148 187 131 264 c 1,36,-1
 131 -246 l 1,37,-1
 32 -246 l 1,38,-1
 32 1624 l 1,15,-1
EndSplineSet
EndChar

StartChar: q
Encoding: 113 113 392
Width: 512
VWidth: 2305
GlyphClass: 1
Flags: HW
LayerCount: 2
Fore
SplineSet
256 226 m 0,0,1
 312 226 312 226 346 327 c 128,-1,2
 380 428 380 428 380 647 c 0,3,4
 380 853 380 853 345 940 c 128,-1,5
 310 1027 310 1027 260 1027 c 0,6,7
 193 1027 193 1027 162.5 938.5 c 128,-1,8
 132 850 132 850 132 629 c 0,9,10
 132 414 132 414 160.5 320 c 128,-1,11
 189 226 189 226 256 226 c 0,0,1
382 -246 m 1,12,-1
 382 251 l 1,13,14
 361 168 361 168 326 131.5 c 128,-1,15
 293.658227848 97.7721518987 293.658227848 97.7721518987 248.508412113 97.7721518987 c 0,0,0
 244.797468354 97.7721518987 244.797468354 97.7721518987 241 98 c 0,16,17
 135 102 135 102 83.5 228.5 c 128,-1,18
 32 355 32 355 32 622 c 0,19,20
 32 791 32 791 48.5 893.5 c 128,-1,21
 65 996 65 996 94 1051 c 128,-1,22
 123 1106 123 1106 162.5 1126 c 128,-1,23
 202 1146 202 1146 248 1146 c 0,24,25
 306 1146 306 1146 337.5 1096 c 128,-1,26
 369 1046 369 1046 384 966 c 1,27,-1
 384 1119 l 1,28,-1
 480 1119 l 1,29,-1
 480 -246 l 1,30,-1
 382 -246 l 1,12,-1
EndSplineSet
EndChar

StartChar: r
Encoding: 114 114 393
Width: 512
VWidth: 2441
GlyphClass: 2
Flags: HW
AnchorPoint: "Anchor-2" 257 0 basechar 0
AnchorPoint: "Anchor-0" 297 1118 basechar 0
LayerCount: 2
Fore
SplineSet
32 1116 m 1,0,-1
 149 1116 l 1,1,-1
 146 930 l 1,2,3
 174 1040 174 1040 228 1091 c 128,-1,4
 282 1142 282 1142 334 1142 c 0,5,6
 426 1142 426 1142 480 1020 c 1,7,-1
 444 883 l 1,8,-1
 439 859 l 1,9,-1
 424 864 l 1,10,11
 415 883 415 883 414 911 c 128,-1,12
 413 939 413 939 390 972 c 0,13,14
 356 1016 356 1016 327 1016 c 0,15,16
 291 1016 291 1016 248 968 c 128,-1,17
 205 920 205 920 175.5 826 c 128,-1,18
 146 732 146 732 146 591 c 2,19,-1
 146 -2 l 1,20,-1
 32 -2 l 1,21,-1
 32 1116 l 1,0,-1
EndSplineSet
EndChar

StartChar: uni027B
Encoding: 635 635 399
Width: 460
VWidth: 2281
GlyphClass: 1
Flags: HW
LayerCount: 2
Fore
SplineSet
362 -246 m 0,0,1
 335 -246 335 -246 301.5 -220.5 c 128,-1,2
 268 -195 268 -195 247 -132 c 128,-1,3
 226 -69 226 -69 226 46 c 2,4,-1
 227 276 l 1,5,6
 210 190 210 190 179 150 c 128,-1,7
 148 110 148 110 107 110 c 0,8,9
 76 110 76 110 52 126 c 128,-1,10
 28 142 28 142 3 196 c 1,11,-1
 31 316 l 1,12,-1
 35 338 l 1,13,-1
 44 336 l 1,14,15
 48 321 48 321 48.5 304.5 c 128,-1,16
 49 288 49 288 59 271 c 0,17,18
 78 243 78 243 111 243 c 0,19,20
 156 243 156 243 191 327 c 128,-1,21
 226 411 226 411 226 596 c 2,22,-1
 226 1118 l 1,23,-1
 323 1118 l 1,24,-1
 323 46 l 2,25,26
 323 -114 323 -114 373 -114 c 0,27,28
 382 -114 382 -114 392.5 -109 c 128,-1,29
 403 -104 403 -104 408 -94 c 0,30,31
 416 -81 416 -81 418 -68 c 128,-1,32
 420 -55 420 -55 427 -53 c 1,33,-1
 451 -186 l 1,34,35
 432 -221 432 -221 411.5 -233.5 c 128,-1,36
 391 -246 391 -246 362 -246 c 0,0,1
EndSplineSet
EndChar

StartChar: uni024D
Encoding: 589 589 402
Width: 512
VWidth: 2441
GlyphClass: 2
Flags: HW
AnchorPoint: "Anchor-2" 273 0 basechar 0
AnchorPoint: "Anchor-0" 311 1118 basechar 0
LayerCount: 2
Fore
SplineSet
32 420 m 1,0,-1
 32 557 l 1,1,-1
 66 557 l 1,2,-1
 66 1116 l 1,3,-1
 174 1116 l 1,4,-1
 171 930 l 1,5,6
 196 1040 196 1040 246.5 1091 c 128,-1,7
 297 1142 297 1142 345 1142 c 0,8,9
 431 1142 431 1142 480 1020 c 1,10,-1
 446 883 l 1,11,-1
 442 859 l 1,12,-1
 428 864 l 1,13,14
 420 883 420 883 419 911 c 128,-1,15
 418 939 418 939 397 972 c 0,16,17
 365 1016 365 1016 338 1016 c 0,18,19
 304 1016 304 1016 264.5 968 c 128,-1,20
 225 920 225 920 198 826 c 128,-1,21
 171 732 171 732 171 591 c 2,22,-1
 171 557 l 1,23,-1
 313 557 l 1,24,-1
 313 420 l 1,25,-1
 171 420 l 1,26,-1
 171 -2 l 1,27,-1
 66 -2 l 1,28,-1
 66 420 l 1,29,-1
 32 420 l 1,0,-1
EndSplineSet
EndChar

StartChar: s
Encoding: 115 115 403
Width: 512
VWidth: 2441
GlyphClass: 1
Flags: HW
LayerCount: 2
Fore
SplineSet
253 -24 m 0,0,1
 161 -24 161 -24 111.5 9 c 128,-1,2
 62 42 62 42 32 86 c 1,3,-1
 83 215 l 1,4,-1
 89 237 l 1,5,-1
 103 232 l 1,6,7
 110 215 110 215 113.5 191.5 c 128,-1,8
 117 168 117 168 138 139 c 1,9,10
 166 115 166 115 195.5 105 c 128,-1,11
 225 95 225 95 255 95 c 0,12,13
 308 95 308 95 340 149 c 128,-1,14
 372 203 372 203 372 300 c 0,15,16
 372 370 372 370 351.5 415.5 c 128,-1,17
 331 461 331 461 264 508 c 0,18,19
 167 578 167 578 110.5 650 c 128,-1,20
 54 722 54 722 54 855 c 0,21,22
 54 979 54 979 107.5 1060.5 c 128,-1,23
 161 1142 161 1142 271 1142 c 0,24,25
 429 1142 429 1142 480 991 c 1,26,-1
 425 876 l 1,27,-1
 416 855 l 1,28,-1
 403 862 l 1,29,30
 396 881 396 881 398 908 c 0,31,32
 398.19047619 910.571428571 398.19047619 910.571428571 398.19047619 913.233560091 c 0,33,34
 398.19047619 938.523809524 398.19047619 938.523809524 381 972 c 1,35,36
 344.672727273 1025.01818182 344.672727273 1025.01818182 280.390413223 1025.01818182 c 0,37,38
 279.2 1025.01818182 279.2 1025.01818182 278 1025 c 0,39,40
 212 1025 212 1025 187.5 977.5 c 128,-1,41
 163 930 163 930 163 871 c 0,42,43
 163 815 163 815 173.5 780 c 128,-1,44
 184 745 184 745 213.5 713 c 128,-1,45
 243 681 243 681 299 634 c 0,46,47
 363 583 363 583 402.5 546.5 c 128,-1,48
 442 510 442 510 461 461 c 128,-1,49
 480 412 480 412 480 324 c 0,50,51
 480 138 480 138 416 57 c 128,-1,52
 352 -24 352 -24 253 -24 c 0,0,1
EndSplineSet
EndChar

StartChar: germandbls
Encoding: 223 223 414
Width: 530
VWidth: 2441
GlyphClass: 1
Flags: HW
LayerCount: 2
Fore
SplineSet
289 -24 m 0,0,1
 259 -24 259 -24 226.5 -9.5 c 128,-1,2
 194 5 194 5 171 35 c 1,3,-1
 207 166 l 1,4,5
 239 108 239 108 283 107 c 0,6,7
 315 107 315 107 334.5 157 c 128,-1,8
 354 207 354 207 364.5 290 c 128,-1,9
 375 373 375 373 375 471 c 0,10,11
 375 562 375 562 364.5 634 c 128,-1,12
 354 706 354 706 325.5 750 c 128,-1,13
 297 794 297 794 241 794 c 2,14,-1
 209 794 l 1,15,-1
 209 923 l 1,16,-1
 247 923 l 2,17,18
 327 923 327 923 327 1197 c 0,19,20
 327 1321 327 1321 307 1408.5 c 128,-1,21
 287 1496 287 1496 236 1496 c 0,22,23
 188 1496 188 1496 164 1368 c 128,-1,24
 140 1240 140 1240 140 1037 c 2,25,-1
 140 0 l 1,26,-1
 32 0 l 1,27,-1
 32 1032 l 2,28,29
 32 1264 32 1264 57 1395 c 128,-1,30
 82 1526 82 1526 126.5 1579.5 c 128,-1,31
 171 1633 171 1633 226 1633 c 0,32,33
 318 1633 318 1633 376 1528 c 128,-1,34
 434 1423 434 1423 434 1204 c 0,35,36
 434 1099 434 1099 417.5 1011 c 128,-1,37
 401 923 401 923 361 876 c 1,38,39
 415 837 415 837 447.5 741 c 128,-1,40
 480 645 480 645 480 442 c 0,41,42
 480 198 480 198 423.5 87 c 128,-1,43
 367 -24 367 -24 289 -24 c 0,0,1
EndSplineSet
EndChar

StartChar: t
Encoding: 116 116 415
Width: 512
VWidth: 2441
GlyphClass: 2
Flags: HW
AnchorPoint: "Anchor-4" 193 762 basechar 0
AnchorPoint: "Anchor-2" 281 0 basechar 0
AnchorPoint: "Anchor-1" 303 1116 basechar 0
AnchorPoint: "Anchor-0" 225 1433 basechar 0
LayerCount: 2
Fore
SplineSet
312 -30 m 0,0,1
 247 -30 247 -30 207.5 26.5 c 128,-1,2
 168 83 168 83 153.5 221 c 0,3,4
 142.135135135 329.162162162 142.135135135 329.162162162 142.135135135 504.284879474 c 0,5,6
 142.135135135 552.594594595 142.135135135 552.594594595 143 606 c 2,7,-1
 150 945 l 1,8,-1
 32 945 l 1,9,-1
 32 1076 l 1,10,-1
 152 1076 l 1,11,-1
 157 1402 l 1,12,-1
 267 1423 l 1,13,-1
 290 1428 l 1,14,-1
 292 1411 l 1,15,16
 283 1394 283 1394 275 1376 c 128,-1,17
 267 1358 267 1358 265 1316 c 2,18,-1
 256 1076 l 1,19,-1
 426 1076 l 1,20,-1
 426 945 l 1,21,-1
 258 945 l 1,22,-1
 249 594 l 2,23,24
 247.25 529.25 247.25 529.25 247.25 473.71875 c 0,25,26
 247.25 307.125 247.25 307.125 263 223.5 c 0,27,28
 284 112 284 112 331 112 c 0,29,30
 370 112 370 112 401.5 148 c 128,-1,31
 433 184 433 184 452 215 c 1,32,-1
 480 81 l 1,33,34
 441 20 441 20 399 -5 c 128,-1,35
 357 -30 357 -30 312 -30 c 0,0,1
EndSplineSet
EndChar

StartChar: tbar
Encoding: 359 359 416
Width: 512
VWidth: 2441
GlyphClass: 2
Flags: HW
AnchorPoint: "Anchor-4" 193 762 basechar 0
AnchorPoint: "Anchor-2" 281 0 basechar 0
AnchorPoint: "Anchor-1" 303 1116 basechar 0
AnchorPoint: "Anchor-0" 225 1433 basechar 0
LayerCount: 2
Fore
SplineSet
312 -30 m 0,0,1
 249 -30 249 -30 210.5 20 c 128,-1,2
 172 70 172 70 156.5 194.5 c 0,3,4
 142.771428571 304.771428571 142.771428571 304.771428571 142.771428571 490.746122449 c 0,5,6
 142.771428571 514.742857143 142.771428571 514.742857143 143 540 c 1,7,-1
 34 540 l 1,8,-1
 34 676 l 1,9,-1
 146 676 l 1,10,-1
 150 945 l 1,11,-1
 32 945 l 1,12,-1
 32 1076 l 1,13,-1
 152 1076 l 1,14,-1
 157 1402 l 1,15,-1
 267 1423 l 1,16,-1
 290 1428 l 1,17,-1
 292 1411 l 1,18,19
 283 1394 283 1394 275 1376 c 128,-1,20
 267 1358 267 1358 265 1316 c 2,21,-1
 256 1076 l 1,22,-1
 426 1076 l 1,23,-1
 426 945 l 1,24,-1
 258 945 l 1,25,-1
 252 676 l 1,26,-1
 405 676 l 1,27,-1
 405 540 l 1,28,-1
 249 540 l 1,29,30
 248.346938776 502.448979592 248.346938776 502.448979592 248.346938776 468.389837568 c 0,31,32
 248.346938776 293.836734694 248.346938776 293.836734694 265.5 211 c 0,33,34
 286 112 286 112 331 112 c 0,35,36
 370 112 370 112 401.5 148 c 128,-1,37
 433 184 433 184 452 215 c 1,38,-1
 480 81 l 1,39,40
 441 20 441 20 399 -5 c 128,-1,41
 357 -30 357 -30 312 -30 c 0,0,1
EndSplineSet
EndChar

StartChar: u
Encoding: 117 117 423
Width: 512
VWidth: 2441
GlyphClass: 2
Flags: HW
AnchorPoint: "Anchor-3" 401 0 basechar 0
AnchorPoint: "Anchor-2" 218 0 basechar 0
AnchorPoint: "Anchor-1" 458 1116 basechar 0
AnchorPoint: "Anchor-0" 243 1116 basechar 0
LayerCount: 2
Fore
SplineSet
218 -27 m 0,0,1
 152 -27 152 -27 110.5 12 c 128,-1,2
 69 51 69 51 50.5 163 c 128,-1,3
 32 275 32 275 32 494 c 2,4,-1
 34 1116 l 1,5,-1
 152 1116 l 1,6,-1
 152 494 l 2,7,8
 152 352 152 352 158 272.5 c 128,-1,9
 164 193 164 193 176 157.5 c 128,-1,10
 188 122 188 122 203 113.5 c 128,-1,11
 218 105 218 105 240 105 c 0,12,13
 285 105 285 105 317 202.5 c 128,-1,14
 349 300 349 300 349 501 c 2,15,-1
 349 1116 l 1,16,-1
 467 1116 l 1,17,-1
 467 173 l 2,18,19
 467 129 467 129 468.5 86.5 c 128,-1,20
 470 44 470 44 480 0 c 1,21,-1
 370 0 l 1,22,23
 361 42 361 42 357.5 73.5 c 128,-1,24
 354 105 354 105 354 147 c 1,25,26
 340 72 340 72 309.5 22.5 c 128,-1,27
 279 -27 279 -27 218 -27 c 0,0,1
EndSplineSet
EndChar

StartChar: v
Encoding: 118 118 446
Width: 512
VWidth: 2441
GlyphClass: 2
Flags: HW
AnchorPoint: "Anchor-2" 258 0 basechar 0
AnchorPoint: "Anchor-0" 258 1116 basechar 0
LayerCount: 2
Fore
SplineSet
209 0 m 1,0,-1
 32 1116 l 1,1,-1
 135 1116 l 1,2,-1
 262 286 l 1,3,-1
 325 654 l 2,4,5
 349 789 349 789 361 903.5 c 128,-1,6
 373 1018 373 1018 381 1116 c 1,7,-1
 480 1116 l 1,8,9
 472 1013 472 1013 455.5 891 c 128,-1,10
 439 769 439 769 416 627 c 2,11,-1
 308 0 l 1,12,-1
 209 0 l 1,0,-1
EndSplineSet
EndChar

StartChar: w
Encoding: 119 119 447
Width: 463
VWidth: 2441
GlyphClass: 2
Flags: HW
AnchorPoint: "Anchor-2" 224 0 basechar 0
AnchorPoint: "Anchor-0" 224 1116 basechar 0
LayerCount: 2
Fore
SplineSet
78 -2 m 1,0,-1
 -1 1116 l 1,1,-1
 88 1116 l 1,2,-1
 141 286 l 1,3,-1
 187 913 l 1,4,-1
 274 913 l 1,5,-1
 335 286 l 1,6,7
 344 465 344 465 349 628.5 c 128,-1,8
 354 792 354 792 356 912 c 128,-1,9
 358 1032 358 1032 358 1079 c 2,10,-1
 358 1116 l 1,11,-1
 447 1116 l 1,12,13
 434 832 434 832 419.5 553.5 c 128,-1,14
 405 275 405 275 383 -2 c 1,15,-1
 279 -2 l 1,16,-1
 231 625 l 1,17,-1
 180 -2 l 1,18,-1
 78 -2 l 1,0,-1
EndSplineSet
EndChar

StartChar: x
Encoding: 120 120 452
Width: 512
VWidth: 2441
GlyphClass: 2
Flags: HW
AnchorPoint: "Anchor-2" 255 0 basechar 0
AnchorPoint: "Anchor-0" 255 1116 basechar 0
LayerCount: 2
Fore
SplineSet
32 0 m 1,0,-1
 201 566 l 1,1,-1
 36 1116 l 1,2,-1
 134 1116 l 1,3,-1
 253 727 l 1,4,-1
 364 1116 l 1,5,-1
 458 1116 l 1,6,-1
 305 573 l 1,7,-1
 480 0 l 1,8,-1
 378 0 l 1,9,-1
 253 410 l 1,10,-1
 134 0 l 1,11,-1
 32 0 l 1,0,-1
EndSplineSet
EndChar

StartChar: y
Encoding: 121 121 453
Width: 512
VWidth: 2286
GlyphClass: 2
Flags: HW
AnchorPoint: "Anchor-2" 398 129 basechar 0
AnchorPoint: "Anchor-0" 276 1116 basechar 0
LayerCount: 2
Fore
SplineSet
143 -246 m 0,0,1
 75 -246 75 -246 32 -162 c 1,2,-1
 66 -56 l 1,3,-1
 72 -35 l 1,4,-1
 84 -42 l 1,5,6
 94 -57 94 -57 98.5 -78 c 128,-1,7
 103 -99 103 -99 127 -126 c 1,8,9
 139 -130 139 -130 147 -130 c 0,10,11
 189 -130 189 -130 202 -60 c 128,-1,12
 215 10 215 10 235 142 c 1,13,-1
 241 172 l 1,14,-1
 53 1116 l 1,15,-1
 158 1116 l 1,16,-1
 285 446 l 1,17,-1
 329 723 l 2,18,19
 345 822 345 822 359 919.5 c 128,-1,20
 373 1017 373 1017 379 1116 c 1,21,-1
 480 1116 l 1,22,23
 472 1017 472 1017 456 915 c 128,-1,24
 440 813 440 813 423 712 c 2,25,-1
 303 18 l 2,26,27
 277 -126 277 -126 235 -186 c 128,-1,28
 193 -246 193 -246 143 -246 c 0,0,1
EndSplineSet
EndChar

StartChar: z
Encoding: 122 122 463
Width: 512
VWidth: 2441
GlyphClass: 2
Flags: HW
AnchorPoint: "Anchor-2" 312 0 basechar 0
AnchorPoint: "Anchor-0" 312 1116 basechar 0
LayerCount: 2
Fore
SplineSet
32 105 m 1,0,-1
 337 981 l 1,1,-1
 57 981 l 1,2,-1
 57 1116 l 1,3,-1
 453 1116 l 1,4,-1
 453 1011 l 1,5,-1
 155 132 l 1,6,-1
 382 132 l 2,7,8
 420 132 420 132 435 137 c 128,-1,9
 450 142 450 142 464 156 c 1,10,-1
 480 156 l 1,11,-1
 480 0 l 1,12,-1
 32 0 l 1,13,-1
 32 105 l 1,0,-1
EndSplineSet
EndChar

StartChar: u.i
Encoding: 65539 -1 468
Width: 502
VWidth: 2441
GlyphClass: 2
Flags: HW
AnchorPoint: "Anchor-3" 405 0 basechar 0
AnchorPoint: "Anchor-2" 233 0 basechar 0
AnchorPoint: "Anchor-1" 447 1116 basechar 0
AnchorPoint: "Anchor-0" 240 1116 basechar 0
LayerCount: 2
Fore
SplineSet
216 -27 m 0,0,1
 150 -27 150 -27 109.5 12 c 128,-1,2
 69 51 69 51 49.5 163 c 0,3,4
 31.8139534884 264.581395349 31.8139534884 264.581395349 31.8139534884 454.181719849 c 0,5,6
 31.8139534884 473.627906977 31.8139534884 473.627906977 32 494 c 2,7,-1
 35 1116 l 1,8,-1
 149 1116 l 1,9,-1
 149 494 l 2,10,11
 149 352 149 352 155.5 272.5 c 128,-1,12
 162 193 162 193 173 157.5 c 128,-1,13
 184 122 184 122 200 113.5 c 128,-1,14
 216 105 216 105 235 105 c 0,15,16
 279 105 279 105 310.5 202.5 c 128,-1,17
 342 300 342 300 342 501 c 2,18,-1
 342 1116 l 1,19,-1
 459 1116 l 1,20,-1
 459 173 l 2,21,22
 459 129 459 129 460 86.5 c 128,-1,23
 461 44 461 44 470 0 c 1,24,-1
 365 0 l 1,25,26
 355 42 355 42 351 73.5 c 128,-1,27
 347 105 347 105 347 147 c 1,28,29
 333 72 333 72 303.5 22.5 c 128,-1,30
 274 -27 274 -27 216 -27 c 0,0,1
EndSplineSet
EndChar

StartChar: r.serif
Encoding: 65540 -1 469
Width: 568
VWidth: 2441
GlyphClass: 1
Flags: HW
LayerCount: 2
Fore
SplineSet
32 -2 m 1,0,-1
 32 130 l 1,1,-1
 87 130 l 1,2,-1
 87 983 l 1,3,-1
 34 983 l 1,4,-1
 34 1116 l 1,5,-1
 202 1116 l 1,6,-1
 200 927 l 1,7,8
 225 1020 225 1020 260 1080 c 128,-1,9
 295 1140 295 1140 350 1140 c 0,10,11
 425 1140 425 1140 480 1020 c 1,12,-1
 442 852 l 1,13,14
 427 857 427 857 420 880.5 c 128,-1,15
 413 904 413 904 405.5 932 c 128,-1,16
 398 960 398 960 381.5 980.5 c 128,-1,17
 365 1001 365 1001 331 1001 c 0,18,19
 300 1001 300 1001 269.5 938.5 c 128,-1,20
 239 876 239 876 219.5 776 c 128,-1,21
 200 676 200 676 200 561 c 2,22,-1
 200 130 l 1,23,-1
 287 130 l 1,24,-1
 287 -2 l 1,25,-1
 32 -2 l 1,0,-1
EndSplineSet
EndChar

StartChar: ordfeminine
Encoding: 170 170 470
Width: 491
VWidth: 2441
GlyphClass: 1
Flags: HW
LayerCount: 2
Fore
SplineSet
32 513 m 1,0,-1
 459 513 l 1,1,-1
 459 393 l 1,2,-1
 32 393 l 1,3,-1
 32 513 l 1,0,-1
149 892 m 0,4,5
 149 748 149 748 217 747 c 0,6,7
 320 747 320 747 325 1062 c 1,8,9
 298 1067 298 1067 272 1067 c 0,10,11
 214 1067 214 1067 181.5 1029.5 c 128,-1,12
 149 992 149 992 149 892 c 0,4,5
202 632 m 0,13,14
 134 632 134 632 96 705 c 128,-1,15
 58 778 58 778 58 883 c 0,16,17
 58 1058 58 1058 116 1119.5 c 128,-1,18
 174 1181 174 1181 266 1181 c 0,19,20
 290 1181 290 1181 325 1174 c 1,21,22
 323 1318 323 1318 305.5 1367 c 128,-1,23
 288 1416 288 1416 230 1416 c 0,24,25
 179 1416 179 1416 130 1351 c 1,26,-1
 86 1442 l 1,27,28
 118 1484 118 1484 154.5 1508.5 c 128,-1,29
 191 1533 191 1533 239 1533 c 0,30,31
 307 1533 307 1533 345.5 1499 c 128,-1,32
 384 1465 384 1465 400.5 1373 c 128,-1,33
 417 1281 417 1281 417 1109 c 2,34,-1
 417 652 l 1,35,-1
 330 652 l 1,36,-1
 330 771 l 1,37,38
 309 685 309 685 274 658.5 c 128,-1,39
 239 632 239 632 202 632 c 0,13,14
EndSplineSet
EndChar

StartChar: ordmasculine
Encoding: 186 186 471
Width: 491
VWidth: 2441
GlyphClass: 1
Flags: HW
LayerCount: 2
Fore
SplineSet
32 513 m 1,0,-1
 459 513 l 1,1,-1
 459 393 l 1,2,-1
 32 393 l 1,3,-1
 32 513 l 1,0,-1
247 750 m 0,4,5
 296 750 296 750 318 824.5 c 128,-1,6
 340 899 340 899 340 1084 c 0,7,8
 340 1277 340 1277 316.5 1349 c 128,-1,9
 293 1421 293 1421 247 1421 c 0,10,11
 203 1421 203 1421 177 1349 c 128,-1,12
 151 1277 151 1277 151 1084 c 0,13,14
 151 898 151 898 176 824 c 128,-1,15
 201 750 201 750 247 750 c 0,4,5
247 638 m 128,-1,17
 161 638 161 638 107 734 c 128,-1,18
 53 830 53 830 53 1081 c 0,19,20
 53 1254 53 1254 77.5 1352.5 c 128,-1,21
 102 1451 102 1451 146.5 1492 c 128,-1,22
 191 1533 191 1533 247 1533 c 128,-1,23
 303 1533 303 1533 345.5 1492 c 128,-1,24
 388 1451 388 1451 412.5 1353 c 128,-1,25
 437 1255 437 1255 437 1081 c 0,26,27
 437 829 437 829 385 733.5 c 128,-1,16
 333 638 333 638 247 638 c 128,-1,17
EndSplineSet
EndChar

StartChar: uni2124
Encoding: 8484 8484 473
Width: 512
VWidth: 2441
GlyphClass: 1
Flags: HW
LayerCount: 2
Fore
SplineSet
418 1416 m 1,0,-1
 356 1416 l 1,1,-1
 98 103 l 1,2,-1
 158 103 l 1,3,-1
 418 1416 l 1,0,-1
480 1521 m 1,4,-1
 480 1402 l 1,5,-1
 224 103 l 1,6,-1
 385 103 l 2,7,8
 422 103 422 103 437.5 107.5 c 128,-1,9
 453 112 453 112 465 126 c 1,10,-1
 480 126 l 1,11,-1
 480 0 l 1,12,-1
 32 0 l 1,13,-1
 32 119 l 1,14,-1
 292 1416 l 1,15,-1
 34 1416 l 1,16,-1
 34 1521 l 1,17,-1
 480 1521 l 1,4,-1
EndSplineSet
EndChar

StartChar: zero
Encoding: 48 48 474
Width: 512
VWidth: 2441
GlyphClass: 1
Flags: HW
LayerCount: 2
Fore
SplineSet
257 110 m 0,0,1
 310 110 310 110 339 261 c 128,-1,2
 368 412 368 412 368 752 c 0,3,4
 368 847 368 847 366 930 c 1,5,-1
 161 361 l 1,6,7
 176 229 176 229 202 169.5 c 128,-1,8
 228 110 228 110 257 110 c 0,0,1
144 752 m 0,9,10
 144 635 144 635 148 535 c 1,11,-1
 355 1113 l 1,12,13
 328 1394 328 1394 257 1394 c 0,14,15
 210 1394 210 1394 177 1235 c 128,-1,16
 144 1076 144 1076 144 752 c 0,9,10
257 -27 m 0,17,18
 155 -27 155 -27 93.5 157.5 c 128,-1,19
 32 342 32 342 32 752 c 0,20,21
 32 1150 32 1150 93.5 1340.5 c 128,-1,22
 155 1531 155 1531 257 1531 c 0,23,24
 361 1531 361 1531 420.5 1340.5 c 128,-1,25
 480 1150 480 1150 480 752 c 0,26,27
 480 342 480 342 420.5 157.5 c 128,-1,28
 361 -27 361 -27 257 -27 c 0,17,18
EndSplineSet
Substitution2: "'ss02' Style Set 2 in Latin lookup 36 subtable" zero.ss02
Substitution2: "'zero' Slashed Zero in Latin lookup 33 subtable" zero.zero
Substitution2: "'frac' Diagonal Fractions in Latin lookup 24 subtable" zero.numr
Substitution2: "'dnom' Denominators in Latin lookup 22 subtable" zero.dnom
Substitution2: "'numr' Numerators in Latin lookup 21 subtable" zero.numr
Substitution2: "'sups' Superscript in Latin lookup 20 subtable" uni2070
Substitution2: "'subs' Subscript in Latin lookup 19 subtable" uni2080
AlternateSubs2: "'aalt' Access All Alternates in Latin lookup 1 subtable" zero.zero zero.ss02 uni2080 zero.dnom zero.numr uni2070
EndChar

StartChar: one
Encoding: 49 49 475
Width: 357
VWidth: 2441
GlyphClass: 1
Flags: HW
LayerCount: 2
Fore
SplineSet
200 0 m 1,0,-1
 200 1286 l 1,1,-1
 51 1197 l 1,2,-1
 32 1316 l 1,3,-1
 247 1523 l 1,4,-1
 325 1523 l 1,5,-1
 325 0 l 1,6,-1
 200 0 l 1,0,-1
EndSplineSet
Substitution2: "'frac' Diagonal Fractions in Latin lookup 24 subtable" one.numr
Substitution2: "'dnom' Denominators in Latin lookup 22 subtable" one.dnom
Substitution2: "'numr' Numerators in Latin lookup 21 subtable" one.numr
Substitution2: "'sups' Superscript in Latin lookup 20 subtable" uni00B9
Substitution2: "'subs' Subscript in Latin lookup 19 subtable" uni2081
AlternateSubs2: "'aalt' Access All Alternates in Latin lookup 1 subtable" uni2081 one.dnom one.numr uni00B9
EndChar

StartChar: two
Encoding: 50 50 476
Width: 512
VWidth: 2441
GlyphClass: 1
Flags: HW
LayerCount: 2
Fore
SplineSet
56 126 m 1,0,1
 160 350 160 350 225 519.5 c 128,-1,2
 290 689 290 689 323.5 826.5 c 128,-1,3
 357 964 357 964 359 1101 c 0,4,5
 359.78125 1125.84375 359.78125 1125.84375 359.78125 1148.44140625 c 0,0,0
 359.78125 1270.46875 359.78125 1270.46875 337 1327 c 128,-1,6
 310 1394 310 1394 268 1394 c 0,7,8
 231 1394 231 1394 206.5 1372.5 c 128,-1,9
 182 1351 182 1351 162 1286 c 0,10,11
 151 1247 151 1247 151 1230.5 c 128,-1,12
 151 1214 151 1214 160 1193 c 1,13,-1
 155 1177 l 1,14,-1
 132 1184 l 1,15,-1
 32 1218 l 1,16,17
 67 1360 67 1360 121.5 1445.5 c 128,-1,18
 176 1531 176 1531 268 1531 c 0,19,20
 377 1531 377 1531 425.5 1423.5 c 128,-1,21
 474 1316 474 1316 474 1097 c 0,22,23
 474 862 474 862 393.5 631.5 c 128,-1,24
 313 401 313 401 193 137 c 1,25,-1
 377 137 l 2,26,27
 417 137 417 137 433 142 c 128,-1,28
 449 147 449 147 463 161 c 1,29,-1
 480 161 l 1,30,-1
 480 0 l 1,31,-1
 56 0 l 1,32,-1
 56 126 l 1,0,1
EndSplineSet
Substitution2: "'frac' Diagonal Fractions in Latin lookup 24 subtable" two.numr
Substitution2: "'dnom' Denominators in Latin lookup 22 subtable" two.dnom
Substitution2: "'numr' Numerators in Latin lookup 21 subtable" two.numr
Substitution2: "'sups' Superscript in Latin lookup 20 subtable" uni00B2
Substitution2: "'subs' Subscript in Latin lookup 19 subtable" uni2082
AlternateSubs2: "'aalt' Access All Alternates in Latin lookup 1 subtable" uni2082 two.dnom two.numr uni00B2
EndChar

StartChar: three
Encoding: 51 51 477
Width: 512
VWidth: 2441
GlyphClass: 1
Flags: HW
LayerCount: 2
Fore
SplineSet
253 -27 m 0,0,1
 171 -27 171 -27 121.5 30.5 c 128,-1,2
 72 88 72 88 32 173 c 1,3,-1
 126 244 l 1,4,-1
 145 259 l 1,5,-1
 155 247 l 1,6,7
 153 226 153 226 155 206 c 128,-1,8
 157 186 157 186 175 151 c 1,9,10
 208 107 208 107 249 107 c 0,11,12
 303 107 303 107 332 190 c 128,-1,13
 361 273 361 273 361 424 c 0,14,15
 361 597 361 597 315 673.5 c 128,-1,16
 278.533678756 734.14507772 278.533678756 734.14507772 207.502805444 734.14507772 c 0,0,0
 188.932642487 734.14507772 188.932642487 734.14507772 168 730 c 1,17,-1
 168 857 l 1,18,19
 248 857 248 857 283 900 c 128,-1,20
 318 943 318 943 327.5 1012 c 128,-1,21
 337 1081 337 1081 337 1160 c 0,22,23
 337 1282 337 1282 312.5 1339 c 128,-1,24
 288 1396 288 1396 249 1396 c 0,25,26
 218 1396 218 1396 193 1363 c 128,-1,27
 168 1330 168 1330 150 1272 c 1,28,-1
 54 1328 l 1,29,30
 92 1423 92 1423 139.5 1477 c 128,-1,31
 187 1531 187 1531 258 1531 c 0,32,33
 347 1531 347 1531 402 1436.5 c 128,-1,34
 457 1342 457 1342 457 1153 c 0,35,36
 457 1034 457 1034 431.5 942 c 128,-1,37
 406 850 406 850 347 811 c 1,38,39
 408 769 408 769 444 671 c 128,-1,40
 480 573 480 573 480 417 c 0,41,42
 480 210 480 210 419 91.5 c 128,-1,43
 358 -27 358 -27 253 -27 c 0,0,1
EndSplineSet
Substitution2: "'frac' Diagonal Fractions in Latin lookup 24 subtable" three.numr
Substitution2: "'dnom' Denominators in Latin lookup 22 subtable" three.dnom
Substitution2: "'numr' Numerators in Latin lookup 21 subtable" three.numr
Substitution2: "'sups' Superscript in Latin lookup 20 subtable" uni00B3
Substitution2: "'subs' Subscript in Latin lookup 19 subtable" uni2083
AlternateSubs2: "'aalt' Access All Alternates in Latin lookup 1 subtable" uni2083 three.dnom three.numr uni00B3
EndChar

StartChar: four
Encoding: 52 52 478
Width: 552
VWidth: 2441
GlyphClass: 1
Flags: HW
LayerCount: 2
Fore
SplineSet
143 517 m 1,0,-1
 302 517 l 1,1,-1
 302 1109 l 1,2,-1
 143 517 l 1,0,-1
302 0 m 1,3,-1
 302 380 l 1,4,-1
 32 380 l 1,5,-1
 32 498 l 1,6,-1
 319 1523 l 1,7,-1
 410 1523 l 1,8,-1
 410 515 l 1,9,-1
 480 515 l 1,10,-1
 480 378 l 1,11,-1
 410 378 l 1,12,-1
 410 0 l 1,13,-1
 302 0 l 1,3,-1
EndSplineSet
Substitution2: "'frac' Diagonal Fractions in Latin lookup 24 subtable" four.numr
Substitution2: "'dnom' Denominators in Latin lookup 22 subtable" four.dnom
Substitution2: "'numr' Numerators in Latin lookup 21 subtable" four.numr
Substitution2: "'sups' Superscript in Latin lookup 20 subtable" uni2074
Substitution2: "'subs' Subscript in Latin lookup 19 subtable" uni2084
AlternateSubs2: "'aalt' Access All Alternates in Latin lookup 1 subtable" uni2084 four.dnom four.numr uni2074
EndChar

StartChar: five
Encoding: 53 53 479
Width: 512
VWidth: 2441
GlyphClass: 1
Flags: HW
LayerCount: 2
Fore
SplineSet
256 -27 m 0,0,1
 192 -27 192 -27 130.5 21.5 c 128,-1,2
 69 70 69 70 32 184 c 1,3,-1
 112 254 l 1,4,-1
 128 268 l 1,5,-1
 138 254 l 1,6,7
 138 237 138 237 141.5 216.5 c 128,-1,8
 145 196 145 196 160 161 c 1,9,10
 201 107 201 107 254 107 c 0,11,12
 365 107 365 107 365 484 c 0,13,14
 365 672 365 672 335.5 763.5 c 128,-1,15
 306 855 306 855 254 855 c 0,16,17
 211 855 211 855 185.5 824.5 c 128,-1,18
 160 794 160 794 135 725 c 1,19,-1
 69 747 l 1,20,-1
 92 1521 l 1,21,-1
 452 1521 l 1,22,-1
 452 1384 l 1,23,-1
 204 1384 l 1,24,-1
 192 927 l 1,25,26
 212 951 212 951 237.5 966 c 128,-1,27
 263 981 263 981 293 981 c 0,28,29
 391 981 391 981 435.5 856.5 c 128,-1,30
 480 732 480 732 480 478 c 0,31,32
 480 -27 480 -27 256 -27 c 0,0,1
EndSplineSet
Substitution2: "'frac' Diagonal Fractions in Latin lookup 24 subtable" five.numr
Substitution2: "'dnom' Denominators in Latin lookup 22 subtable" five.dnom
Substitution2: "'numr' Numerators in Latin lookup 21 subtable" five.numr
Substitution2: "'sups' Superscript in Latin lookup 20 subtable" uni2075
Substitution2: "'subs' Subscript in Latin lookup 19 subtable" uni2085
AlternateSubs2: "'aalt' Access All Alternates in Latin lookup 1 subtable" uni2085 five.dnom five.numr uni2075
EndChar

StartChar: six
Encoding: 54 54 480
Width: 512
VWidth: 2441
GlyphClass: 1
Flags: HW
LayerCount: 2
Fore
SplineSet
270 114 m 0,0,1
 314 114 314 114 335.5 211 c 128,-1,2
 357 308 357 308 357 480 c 0,3,4
 357 664 357 664 335 748 c 128,-1,5
 313 832 313 832 267 832 c 0,6,7
 223 832 223 832 200 784.5 c 128,-1,8
 177 737 177 737 152 652 c 1,9,10
 149.666666667 607 149.666666667 607 149.666666667 563.333333333 c 0,0,0
 149.666666667 476 149.666666667 476 159 394 c 128,-1,11
 173 271 173 271 202 192.5 c 128,-1,12
 231 114 231 114 270 114 c 0,0,1
265 -24 m 0,13,14
 154 -24 154 -24 93 150 c 128,-1,15
 32 324 32 324 32 694 c 0,16,17
 32 1141 32 1141 96.5 1339.5 c 128,-1,18
 161 1538 161 1538 297 1538 c 0,19,20
 366 1538 366 1538 406 1500.5 c 128,-1,21
 446 1463 446 1463 469 1396 c 1,22,-1
 407 1277 l 1,23,-1
 400 1260 l 1,24,-1
 388 1265 l 1,25,26
 383 1282 383 1282 384.5 1302.5 c 128,-1,27
 386 1323 386 1323 371 1353 c 1,28,29
 339 1399 339 1399 299 1400 c 0,30,31
 275 1400 275 1400 251 1382.5 c 128,-1,32
 227 1365 227 1365 206.5 1312.5 c 128,-1,33
 186 1260 186 1260 173.5 1157.5 c 128,-1,34
 161 1055 161 1055 159 886 c 1,35,36
 188 932 188 932 218 956.5 c 128,-1,37
 248 981 248 981 297 981 c 0,38,39
 382 981 382 981 431 844.5 c 128,-1,40
 480 708 480 708 480 484 c 0,41,42
 480 258 480 258 425.5 117 c 128,-1,43
 371 -24 371 -24 265 -24 c 0,13,14
EndSplineSet
Substitution2: "'frac' Diagonal Fractions in Latin lookup 24 subtable" six.numr
Substitution2: "'dnom' Denominators in Latin lookup 22 subtable" six.dnom
Substitution2: "'numr' Numerators in Latin lookup 21 subtable" six.numr
Substitution2: "'sups' Superscript in Latin lookup 20 subtable" uni2076
Substitution2: "'subs' Subscript in Latin lookup 19 subtable" uni2086
AlternateSubs2: "'aalt' Access All Alternates in Latin lookup 1 subtable" uni2086 six.dnom six.numr uni2076
EndChar

StartChar: seven
Encoding: 55 55 481
Width: 496
VWidth: 2441
GlyphClass: 1
Flags: HW
LayerCount: 2
Fore
SplineSet
105 0 m 1,0,1
 159 349 159 349 208.5 698.5 c 128,-1,2
 258 1048 258 1048 323 1384 c 1,3,-1
 32 1384 l 1,4,-1
 32 1521 l 1,5,-1
 464 1521 l 1,6,-1
 464 1440 l 1,7,8
 396 1088 396 1088 341 727 c 128,-1,9
 286 366 286 366 237 0 c 1,10,-1
 105 0 l 1,0,1
EndSplineSet
Substitution2: "'frac' Diagonal Fractions in Latin lookup 24 subtable" seven.numr
Substitution2: "'dnom' Denominators in Latin lookup 22 subtable" seven.dnom
Substitution2: "'numr' Numerators in Latin lookup 21 subtable" seven.numr
Substitution2: "'sups' Superscript in Latin lookup 20 subtable" uni2077
Substitution2: "'subs' Subscript in Latin lookup 19 subtable" uni2087
AlternateSubs2: "'aalt' Access All Alternates in Latin lookup 1 subtable" uni2087 seven.dnom seven.numr uni2077
EndChar

StartChar: eight
Encoding: 56 56 482
Width: 512
VWidth: 2441
GlyphClass: 1
Flags: HW
LayerCount: 2
Fore
SplineSet
257 110 m 0,0,1
 304 110 304 110 333 188 c 128,-1,2
 362 266 362 266 362 393 c 0,3,4
 362 523 362 523 338.5 603 c 128,-1,5
 315 683 315 683 255 737 c 1,6,7
 204 691 204 691 177 610 c 128,-1,8
 150 529 150 529 150 401 c 0,9,10
 150 275 150 275 183.5 192.5 c 128,-1,11
 217 110 217 110 257 110 c 0,0,1
269 896 m 1,12,13
 311 945 311 945 326.5 1016.5 c 128,-1,14
 342 1088 342 1088 342 1174 c 0,15,16
 342 1279 342 1279 320.5 1341.5 c 128,-1,17
 299 1404 299 1404 259 1404 c 0,18,19
 217 1404 217 1404 198 1342.5 c 128,-1,20
 179 1281 179 1281 179 1181 c 0,21,22
 179 1069 179 1069 197 1013 c 128,-1,23
 215 957 215 957 269 896 c 1,12,13
255 -24 m 128,-1,25
 152 -24 152 -24 92 86 c 128,-1,26
 32 196 32 196 32 384 c 0,27,28
 32 694 32 694 168 823 c 1,29,30
 117 877 117 877 92 966 c 128,-1,31
 67 1055 67 1055 67 1165 c 0,32,33
 67 1338 67 1338 116.5 1439 c 128,-1,34
 166 1540 166 1540 262 1540 c 0,35,36
 363 1540 363 1540 408.5 1442.5 c 128,-1,37
 454 1345 454 1345 454 1179 c 0,38,39
 454 1069 454 1069 431.5 968 c 128,-1,40
 409 867 409 867 355 808 c 1,41,42
 480 689 480 689 480 393 c 0,43,44
 480 197 480 197 419 86.5 c 128,-1,24
 358 -24 358 -24 255 -24 c 128,-1,25
EndSplineSet
Substitution2: "'frac' Diagonal Fractions in Latin lookup 24 subtable" eight.numr
Substitution2: "'dnom' Denominators in Latin lookup 22 subtable" eight.dnom
Substitution2: "'numr' Numerators in Latin lookup 21 subtable" eight.numr
Substitution2: "'sups' Superscript in Latin lookup 20 subtable" uni2078
Substitution2: "'subs' Subscript in Latin lookup 19 subtable" uni2088
AlternateSubs2: "'aalt' Access All Alternates in Latin lookup 1 subtable" uni2088 eight.dnom eight.numr uni2078
EndChar

StartChar: nine
Encoding: 57 57 483
Width: 512
VWidth: 2441
GlyphClass: 1
Flags: HW
LayerCount: 2
Fore
SplineSet
147 1037 m 0,0,1
 147 893 147 893 180.5 804 c 128,-1,2
 214 715 214 715 255 715 c 0,3,4
 322 715 322 715 364 778 c 1,5,-1
 364 781 l 2,6,7
 364 1121 364 1121 338.5 1258.5 c 128,-1,8
 313 1396 313 1396 251 1396 c 0,9,10
 210 1396 210 1396 178.5 1315.5 c 128,-1,11
 147 1235 147 1235 147 1037 c 0,0,1
224 -24 m 0,12,13
 171 -24 171 -24 120.5 7.5 c 128,-1,14
 70 39 70 39 39 98 c 1,15,-1
 90 215 l 1,16,-1
 99 237 l 1,17,-1
 113 232 l 1,18,19
 120 213 120 213 124 188 c 128,-1,20
 128 163 128 163 152 132 c 1,21,22
 179 108 179 108 217 107 c 0,23,24
 272 107 272 107 302.5 181.5 c 128,-1,25
 333 256 333 256 346 378.5 c 128,-1,26
 359 501 359 501 361 638 c 1,27,28
 315 587 315 587 251 587 c 0,29,30
 157 587 157 587 94.5 709.5 c 128,-1,31
 32 832 32 832 32 1035 c 0,32,33
 32 1287 32 1287 95.5 1409 c 128,-1,34
 159 1531 159 1531 248 1531 c 0,35,36
 376 1531 376 1531 428 1376 c 128,-1,37
 480 1221 480 1221 480 886 c 0,38,39
 480 557 480 557 456 358 c 128,-1,40
 432 159 432 159 375 70 c 128,-1,41
 318 -19 318 -19 224 -24 c 0,12,13
EndSplineSet
Substitution2: "'frac' Diagonal Fractions in Latin lookup 24 subtable" nine.numr
Substitution2: "'dnom' Denominators in Latin lookup 22 subtable" nine.dnom
Substitution2: "'numr' Numerators in Latin lookup 21 subtable" nine.numr
Substitution2: "'sups' Superscript in Latin lookup 20 subtable" uni2079
Substitution2: "'subs' Subscript in Latin lookup 19 subtable" uni2089
AlternateSubs2: "'aalt' Access All Alternates in Latin lookup 1 subtable" uni2089 nine.dnom nine.numr uni2079
EndChar

StartChar: zero.zero
Encoding: 65541 -1 484
Width: 512
VWidth: 2441
GlyphClass: 1
Flags: HW
LayerCount: 2
Fore
SplineSet
255 676 m 0,0,1
 226 676 226 676 207.5 703 c 128,-1,2
 189 730 189 730 189 767 c 128,-1,3
 189 804 189 804 207.5 829.5 c 128,-1,4
 226 855 226 855 255 855 c 0,5,6
 282 855 282 855 301.5 829 c 128,-1,7
 321 803 321 803 321 767 c 0,8,9
 321 730 321 730 301.5 703 c 128,-1,10
 282 676 282 676 255 676 c 0,0,1
257 110 m 0,11,12
 310 110 310 110 339 261 c 128,-1,13
 368 412 368 412 368 752 c 0,14,15
 368 1076 368 1076 338 1235 c 128,-1,16
 308 1394 308 1394 257 1394 c 0,17,18
 210 1394 210 1394 177 1235 c 128,-1,19
 144 1076 144 1076 144 752 c 0,20,21
 144 412 144 412 178 261 c 128,-1,22
 212 110 212 110 257 110 c 0,11,12
257 -27 m 0,23,24
 155 -27 155 -27 93.5 157.5 c 128,-1,25
 32 342 32 342 32 752 c 0,26,27
 32 1150 32 1150 93.5 1340.5 c 128,-1,28
 155 1531 155 1531 257 1531 c 0,29,30
 361 1531 361 1531 420.5 1340.5 c 128,-1,31
 480 1150 480 1150 480 752 c 0,32,33
 480 342 480 342 420.5 157.5 c 128,-1,34
 361 -27 361 -27 257 -27 c 0,23,24
EndSplineSet
EndChar

StartChar: zero.ss02
Encoding: 65542 -1 485
Width: 512
VWidth: 2441
GlyphClass: 1
Flags: HW
LayerCount: 2
Fore
SplineSet
257 110 m 0,0,1
 310 110 310 110 339 261 c 128,-1,2
 368 412 368 412 368 752 c 0,3,4
 368 1076 368 1076 338 1235 c 128,-1,5
 308 1394 308 1394 257 1394 c 0,6,7
 210 1394 210 1394 177 1235 c 128,-1,8
 144 1076 144 1076 144 752 c 0,9,10
 144 412 144 412 178 261 c 128,-1,11
 212 110 212 110 257 110 c 0,0,1
257 -27 m 0,12,13
 155 -27 155 -27 93.5 157.5 c 128,-1,14
 32 342 32 342 32 752 c 0,15,16
 32 1150 32 1150 93.5 1340.5 c 128,-1,17
 155 1531 155 1531 257 1531 c 0,18,19
 361 1531 361 1531 420.5 1340.5 c 128,-1,20
 480 1150 480 1150 480 752 c 0,21,22
 480 342 480 342 420.5 157.5 c 128,-1,23
 361 -27 361 -27 257 -27 c 0,12,13
EndSplineSet
EndChar

StartChar: uni2070
Encoding: 8304 8304 516
Width: 405
VWidth: 2441
GlyphClass: 1
Flags: HW
LayerCount: 2
Fore
SplineSet
202 683 m 0,0,1
 241 683 241 683 261 773.5 c 128,-1,2
 281 864 281 864 281 1067 c 0,3,4
 281 1116 281 1116 278 1160 c 1,5,-1
 137 840 l 1,6,7
 156 683 156 683 202 683 c 0,0,1
124 1067 m 0,8,9
 124 1006 124 1006 127 955 c 1,10,-1
 270 1286 l 1,11,12
 251 1449 251 1449 202 1451 c 0,13,14
 167 1451 167 1451 145.5 1357 c 128,-1,15
 124 1263 124 1263 124 1067 c 0,8,9
202 583 m 0,16,17
 127 583 127 583 79.5 695.5 c 128,-1,18
 32 808 32 808 32 1067 c 0,19,20
 32 1319 32 1319 79.5 1434.5 c 128,-1,21
 127 1550 127 1550 202 1550 c 0,22,23
 281 1550 281 1550 327 1434 c 128,-1,24
 373 1318 373 1318 373 1067 c 0,25,26
 373 808 373 808 327 695.5 c 128,-1,27
 281 583 281 583 202 583 c 0,16,17
EndSplineSet
Substitution2: "'ss02' Style Set 2 in Latin lookup 36 subtable" uni2070.ss02
Substitution2: "'zero' Slashed Zero in Latin lookup 33 subtable" uni2070.zero
AlternateSubs2: "'aalt' Access All Alternates in Latin lookup 1 subtable" uni2070.ss02 uni2070.zero
EndChar

StartChar: uni00B9
Encoding: 185 185 517
Width: 269
VWidth: 2441
GlyphClass: 1
Flags: HW
LayerCount: 2
Fore
SplineSet
144 601 m 1,0,-1
 144 1384 l 1,1,-1
 49 1328 l 1,2,-1
 32 1416 l 1,3,-1
 176 1545 l 1,4,-1
 237 1545 l 1,5,-1
 237 601 l 1,6,-1
 144 601 l 1,0,-1
EndSplineSet
EndChar

StartChar: uni00B2
Encoding: 178 178 518
Width: 391
VWidth: 2441
GlyphClass: 1
Flags: HW
LayerCount: 2
Fore
SplineSet
46 685 m 1,0,1
 119 827 119 827 166.5 929.5 c 128,-1,2
 214 1032 214 1032 237.5 1115.5 c 128,-1,3
 261 1199 261 1199 263 1284 c 0,4,5
 263.205128205 1292.82051282 263.205128205 1292.82051282 263.205128205 1301.16239316 c 0,6,7
 263.205128205 1374.15384615 263.205128205 1374.15384615 247.5 1410.5 c 0,8,9
 230 1451 230 1451 202 1451 c 0,10,11
 170 1451 170 1451 151 1428 c 1,12,13
 134 1391 134 1391 132 1373 c 128,-1,14
 130 1355 130 1355 137 1335 c 1,15,-1
 130 1321 l 1,16,-1
 107 1330 l 1,17,-1
 32 1358 l 1,18,19
 56 1446 56 1446 96.5 1498 c 128,-1,20
 137 1550 137 1550 205 1550 c 0,21,22
 356 1550 356 1550 356 1279 c 0,23,24
 356 1135 356 1135 301.5 1001 c 128,-1,25
 247 867 247 867 161 701 c 1,26,-1
 251 701 l 2,27,28
 293 701 293 701 310.5 705.5 c 128,-1,29
 328 710 328 710 342 725 c 1,30,-1
 359 725 l 1,31,-1
 359 601 l 1,32,-1
 46 601 l 1,33,-1
 46 685 l 1,0,1
EndSplineSet
EndChar

StartChar: uni00B3
Encoding: 179 179 519
Width: 386
VWidth: 2441
GlyphClass: 1
Flags: HW
LayerCount: 2
Fore
SplineSet
188 583 m 0,0,1
 134 583 134 583 96 617.5 c 128,-1,2
 58 652 58 652 32 706 c 1,3,-1
 98 757 l 1,4,-1
 117 774 l 1,5,-1
 127 759 l 1,6,7
 125 740 125 740 134.5 724 c 128,-1,8
 144 708 144 708 170 678 c 1,9,-1
 183 678 l 2,10,11
 261.0125 678 261.0125 678 261.0125 859.3790625 c 0,12,13
 261.0125 970.98234127 261.0125 970.98234127 229.5 1015.5 c 0,14,15
 204.690265487 1050.54867257 204.690265487 1050.54867257 157.238468165 1050.54867257 c 0,16,17
 144.442477876 1050.54867257 144.442477876 1050.54867257 130 1048 c 1,18,-1
 130 1137 l 1,19,20
 211 1137 211 1137 227.5 1191 c 128,-1,21
 244 1245 244 1245 244 1318 c 0,22,23
 244 1457 244 1457 186 1458 c 0,24,25
 144 1458 144 1458 117 1384 c 1,26,-1
 46 1426 l 1,27,28
 73 1484 73 1484 109.5 1517 c 128,-1,29
 146 1550 146 1550 193 1550 c 0,30,31
 256 1550 256 1550 296.5 1492.5 c 128,-1,32
 337 1435 337 1435 337 1316 c 0,33,34
 337 1241 337 1241 320 1184.5 c 128,-1,35
 303 1128 303 1128 261 1104 c 1,36,37
 303 1077 303 1077 328.5 1017 c 128,-1,38
 354 957 354 957 354 859 c 0,39,40
 354 729 354 729 310.5 656 c 128,-1,41
 267 583 267 583 188 583 c 0,0,1
EndSplineSet
EndChar

StartChar: uni2074
Encoding: 8308 8308 520
Width: 420
VWidth: 2441
GlyphClass: 1
Flags: HW
LayerCount: 2
Fore
SplineSet
125 930 m 1,0,-1
 244 930 l 1,1,-1
 244 1265 l 1,2,-1
 125 930 l 1,0,-1
244 601 m 1,3,-1
 244 830 l 1,4,-1
 32 830 l 1,5,-1
 32 916 l 1,6,-1
 263 1545 l 1,7,-1
 337 1545 l 1,8,-1
 337 927 l 1,9,-1
 388 927 l 1,10,-1
 388 827 l 1,11,-1
 337 827 l 1,12,-1
 337 601 l 1,13,-1
 244 601 l 1,3,-1
EndSplineSet
EndChar

StartChar: uni2075
Encoding: 8309 8309 521
Width: 398
VWidth: 2441
GlyphClass: 1
Flags: HW
LayerCount: 2
Fore
SplineSet
198 583 m 0,0,1
 149 583 149 583 103.5 615 c 128,-1,2
 58 647 58 647 32 720 c 1,3,-1
 98 769 l 1,4,-1
 114 778 l 1,5,-1
 125 764 l 1,6,7
 123 747 123 747 132.5 731 c 128,-1,8
 142 715 142 715 166 683 c 1,9,10
 171 683 171 683 178.5 682 c 128,-1,11
 186 681 186 681 193 681 c 0,12,13
 270.049382716 681 270.049382716 681 270.049382716 890.269928365 c 0,14,15
 270.049382716 895.567901235 270.049382716 895.567901235 270 901 c 0,16,17
 270 1123 270 1123 195 1123 c 0,18,19
 146 1123 146 1123 114 1048 c 1,20,-1
 58 1062 l 1,21,-1
 74 1543 l 1,22,-1
 342 1543 l 1,23,-1
 342 1445 l 1,24,-1
 161 1445 l 1,25,-1
 154 1179 l 1,26,27
 168 1193 168 1193 186.5 1203.5 c 128,-1,28
 205 1214 205 1214 228 1214 c 0,29,30
 366.007142857 1214 366.007142857 1214 366.007142857 903.483928571 c 0,31,32
 366.007142857 583 366.007142857 583 198 583 c 0,0,1
EndSplineSet
EndChar

StartChar: uni2076
Encoding: 8310 8310 522
Width: 381
VWidth: 2441
GlyphClass: 1
Flags: HW
LayerCount: 2
Fore
SplineSet
200 685 m 0,0,1
 258 685 258 685 258 899 c 0,2,3
 258 1006 258 1006 243 1056 c 128,-1,4
 228 1106 228 1106 200 1106 c 0,5,6
 173 1106 173 1106 156 1080.5 c 128,-1,7
 139 1055 139 1055 125 1006 c 1,8,9
 124.056603774 982.226415094 124.056603774 982.226415094 124.056603774 959.46742613 c 0,10,11
 124.056603774 861.603773585 124.056603774 861.603773585 141.5 782.5 c 0,12,13
 163 685 163 685 200 685 c 0,0,1
198 587 m 0,14,15
 117 587 117 587 74.5 694 c 128,-1,16
 32 801 32 801 32 1030 c 0,17,18
 32 1305 32 1305 81 1430.5 c 128,-1,19
 130 1556 130 1556 223 1556 c 0,20,21
 306 1556 306 1556 347 1463 c 1,22,-1
 298 1384 l 1,23,-1
 288 1367 l 1,24,-1
 276 1374 l 1,25,26
 274 1391 274 1391 270.5 1408.5 c 128,-1,27
 267 1426 267 1426 244 1451 c 0,28,29
 242 1451 242 1451 236 1452 c 128,-1,30
 230 1453 230 1453 225 1453 c 0,31,32
 206 1453 206 1453 183.5 1432 c 128,-1,33
 161 1411 161 1411 145.5 1345 c 128,-1,34
 130 1279 130 1279 127 1148 c 1,35,36
 164 1209 164 1209 223 1209 c 0,37,38
 279 1209 279 1209 314 1127 c 128,-1,39
 349 1045 349 1045 349 901 c 0,40,41
 349 759 349 759 311 673 c 128,-1,42
 273 587 273 587 198 587 c 0,14,15
EndSplineSet
EndChar

StartChar: uni2077
Encoding: 8311 8311 523
Width: 367
VWidth: 2441
GlyphClass: 1
Flags: HW
LayerCount: 2
Fore
SplineSet
78 601 m 1,0,1
 115 818 115 818 149 1026.5 c 128,-1,2
 183 1235 183 1235 228 1442 c 1,3,-1
 32 1442 l 1,4,-1
 32 1543 l 1,5,-1
 335 1543 l 1,6,-1
 335 1479 l 1,7,8
 289 1262 289 1262 252.5 1044.5 c 128,-1,9
 216 827 216 827 181 601 c 1,10,-1
 78 601 l 1,0,1
EndSplineSet
EndChar

StartChar: uni2078
Encoding: 8312 8312 524
Width: 391
VWidth: 2441
GlyphClass: 1
Flags: HW
LayerCount: 2
Fore
SplineSet
198 683 m 0,0,1
 268 683 268 683 268 845 c 0,2,3
 268 992 268 992 193 1048 c 1,4,5
 125 994 125 994 125 850 c 0,6,7
 125 771 125 771 146.5 727 c 128,-1,8
 168 683 168 683 198 683 c 0,0,1
205 1160 m 1,9,10
 232 1187 232 1187 243 1232 c 128,-1,11
 254 1277 254 1277 254 1328 c 0,12,13
 254 1386 254 1386 239.5 1422 c 128,-1,14
 225 1458 225 1458 198 1458 c 128,-1,15
 171 1458 171 1458 157.5 1423.5 c 128,-1,16
 144 1389 144 1389 144 1333 c 0,17,18
 144 1265 144 1265 158.5 1230 c 128,-1,19
 173 1195 173 1195 205 1160 c 1,9,10
195 587 m 0,20,21
 120 587 120 587 76 654.5 c 128,-1,22
 32 722 32 722 32 837 c 0,23,24
 32 1025 32 1025 130 1111 c 1,25,26
 93 1146 93 1146 75.5 1200.5 c 128,-1,27
 58 1255 58 1255 58 1323 c 0,28,29
 58 1430 58 1430 95 1493 c 128,-1,30
 132 1556 132 1556 200 1556 c 0,31,32
 270 1556 270 1556 306 1494.5 c 128,-1,33
 342 1433 342 1433 342 1330 c 0,34,35
 342 1262 342 1262 324.5 1199.5 c 128,-1,36
 307 1137 307 1137 270 1101 c 1,37,38
 358 1028 358 1028 359 845 c 0,39,40
 359 726 359 726 316.5 656.5 c 128,-1,41
 274 587 274 587 195 587 c 0,20,21
EndSplineSet
EndChar

StartChar: uni2079
Encoding: 8313 8313 525
Width: 381
VWidth: 2441
GlyphClass: 1
Flags: HW
LayerCount: 2
Fore
SplineSet
120 1242 m 0,0,1
 120 1154 120 1154 140.5 1103.5 c 128,-1,2
 161 1053 161 1053 193 1053 c 0,3,4
 237 1053 237 1053 261 1086 c 1,5,6
 261 1293 261 1293 244.5 1373 c 128,-1,7
 228 1453 228 1453 188 1453 c 0,8,9
 158 1453 158 1453 139 1404.5 c 128,-1,10
 120 1356 120 1356 120 1242 c 0,0,1
169 587 m 1,11,12
 81 587 81 587 34 669 c 1,13,-1
 78 745 l 1,14,-1
 88 767 l 1,15,-1
 105 757 l 1,16,17
 110 740 110 740 120 723 c 128,-1,18
 130 706 130 706 161 678 c 1,19,20
 159 680 159 680 164 681 c 0,21,22
 215 681 215 681 235.5 772.5 c 128,-1,23
 256 864 256 864 258 988 c 1,24,25
 228.909090909 956.96969697 228.909090909 956.96969697 190.415059688 956.96969697 c 0,26,27
 189.212121212 956.96969697 189.212121212 956.96969697 188 957 c 0,28,29
 122 957 122 957 77 1033 c 128,-1,30
 32 1109 32 1109 32 1242 c 0,31,32
 32 1398 32 1398 77.5 1474 c 128,-1,33
 123 1550 123 1550 186 1550 c 0,34,35
 274 1550 274 1550 311.5 1452.5 c 128,-1,36
 349 1355 349 1355 349 1150 c 0,37,38
 349 845 349 845 306.5 718.5 c 128,-1,39
 264 592 264 592 169 587 c 1,11,12
EndSplineSet
EndChar

StartChar: fraction
Encoding: 8260 8260 526
Width: 512
VWidth: 2441
GlyphClass: 1
Flags: HW
LayerCount: 2
Fore
SplineSet
100 -103 m 1,0,-1
 32 -63 l 1,1,-1
 411 1624 l 1,2,-1
 480 1582 l 1,3,-1
 100 -103 l 1,0,-1
EndSplineSet
EndChar

StartChar: onehalf
Encoding: 189 189 527
Width: 453
VWidth: 2441
GlyphClass: 1
Flags: HW
LayerCount: 2
Fore
SplineSet
246 -170 m 1,0,-1
 246 -100 l 1,1,2
 291 12 291 12 319.5 91 c 128,-1,3
 348 170 348 170 362 235 c 128,-1,4
 376 300 376 300 376 368 c 0,5,6
 376.380952381 379.80952381 376.380952381 379.80952381 376.380952381 390.512471655 c 0,0,0
 376.380952381 492.19047619 376.380952381 492.19047619 342 494 c 0,7,8
 323 494 323 494 311.5 476.5 c 128,-1,9
 300 459 300 459 287 405 c 1,10,-1
 236 427 l 1,11,12
 251 497 251 497 275.5 537.5 c 128,-1,13
 300 578 300 578 344 578 c 0,14,15
 438 578 438 578 439 366 c 0,16,17
 439 252 439 252 406.5 150.5 c 128,-1,18
 374 49 374 49 323 -86 c 1,19,-1
 441 -86 l 1,20,-1
 441 -170 l 1,21,-1
 246 -170 l 1,0,-1
98 -103 m 1,22,-1
 43 -63 l 1,23,-1
 349 1624 l 1,24,-1
 405 1582 l 1,25,-1
 98 -103 l 1,22,-1
60 927 m 1,26,-1
 60 1538 l 1,27,-1
 5 1494 l 1,28,-1
 -7 1572 l 1,29,-1
 81 1675 l 1,30,-1
 124 1675 l 1,31,-1
 124 927 l 1,32,-1
 60 927 l 1,26,-1
EndSplineSet
EndChar

StartChar: onequarter
Encoding: 188 188 528
Width: 431
VWidth: 2441
GlyphClass: 1
Flags: HW
LayerCount: 2
Fore
SplineSet
273 93 m 1,0,-1
 340 93 l 1,1,-1
 340 340 l 1,2,-1
 273 93 l 1,0,-1
340 -170 m 1,3,-1
 340 7 l 1,4,-1
 213 7 l 1,5,-1
 213 83 l 1,6,-1
 354 576 l 1,7,-1
 400 576 l 1,8,-1
 400 93 l 1,9,-1
 430 93 l 1,10,-1
 430 5 l 1,11,-1
 400 5 l 1,12,-1
 400 -170 l 1,13,-1
 340 -170 l 1,3,-1
84 -103 m 1,14,-1
 31 -63 l 1,15,-1
 330 1624 l 1,16,-1
 384 1582 l 1,17,-1
 84 -103 l 1,14,-1
47 927 m 1,18,-1
 47 1538 l 1,19,-1
 -6 1494 l 1,20,-1
 -18 1572 l 1,21,-1
 68 1675 l 1,22,-1
 110 1675 l 1,23,-1
 110 927 l 1,24,-1
 47 927 l 1,18,-1
EndSplineSet
EndChar

StartChar: threequarters
Encoding: 190 190 529
Width: 418
VWidth: 2441
GlyphClass: 1
Flags: HW
LayerCount: 2
Fore
SplineSet
329 93 m 1,0,-1
 329 340 l 1,1,-1
 264 93 l 1,2,-1
 329 93 l 1,0,-1
329 7 m 1,3,-1
 206 7 l 1,4,-1
 206 83 l 1,5,-1
 343 576 l 1,6,-1
 388 576 l 1,7,-1
 388 93 l 1,8,-1
 417 93 l 1,9,-1
 417 5 l 1,10,-1
 388 5 l 1,11,-1
 388 -170 l 1,12,-1
 329 -170 l 1,13,-1
 329 7 l 1,3,-1
81 -103 m 1,14,-1
 29 -63 l 1,15,-1
 319 1624 l 1,16,-1
 372 1582 l 1,17,-1
 81 -103 l 1,14,-1
62 916 m 0,18,19
 29 916 29 916 7 942.5 c 128,-1,20
 -15 969 -15 969 -31 1011 c 1,21,-1
 9 1053 l 1,22,-1
 23 1069 l 1,23,-1
 27 1062 l 1,24,25
 18 1041 18 1041 32 1011 c 0,26,27
 43 994 43 994 59 994 c 0,28,29
 102 994 102 994 103 1135 c 0,30,31
 103 1221 103 1221 85 1253.5 c 128,-1,32
 70.9036144578 1278.95180723 70.9036144578 1278.95180723 43.3147046015 1278.95180723 c 0,0,0
 35.6746987952 1278.95180723 35.6746987952 1278.95180723 27 1277 c 1,33,-1
 27 1355 l 1,34,35
 74 1355 74 1355 83.5 1396.5 c 128,-1,36
 93 1438 93 1438 93 1494 c 0,37,38
 93 1599 93 1599 60 1599 c 0,39,40
 36 1599 36 1599 21 1543 c 1,41,-1
 -22 1580 l 1,42,43
 8.68686868687 1677.01010101 8.68686868687 1677.01010101 63.8712376288 1677.01010101 c 0,0,0
 64.4343434343 1677.01010101 64.4343434343 1677.01010101 65 1677 c 0,44,45
 103 1677 103 1677 127 1632 c 128,-1,46
 151 1587 151 1587 151 1491 c 0,47,48
 151 1433 151 1433 141 1389 c 128,-1,49
 131 1345 131 1345 108 1326 c 1,50,51
 133 1305 133 1305 146.5 1258 c 128,-1,52
 160 1211 160 1211 160 1132 c 0,53,54
 160 1027 160 1027 133.5 971.5 c 128,-1,55
 107 916 107 916 62 916 c 0,18,19
EndSplineSet
EndChar

StartChar: uni2070.ss02
Encoding: 65566 -1 533
Width: 405
VWidth: 2441
GlyphClass: 1
Flags: HW
LayerCount: 2
Fore
SplineSet
202 683 m 0,0,1
 241 683 241 683 261 773.5 c 128,-1,2
 281 864 281 864 281 1067 c 0,3,4
 281 1451 281 1451 202 1451 c 0,5,6
 167 1451 167 1451 145.5 1356.5 c 128,-1,7
 124 1262 124 1262 124 1067 c 0,8,9
 124 864 124 864 147 773.5 c 128,-1,10
 170 683 170 683 202 683 c 0,0,1
202 583 m 0,11,12
 127 583 127 583 79.5 695.5 c 128,-1,13
 32 808 32 808 32 1067 c 0,14,15
 32 1319 32 1319 79.5 1434.5 c 128,-1,16
 127 1550 127 1550 202 1550 c 0,17,18
 281 1550 281 1550 327 1434 c 128,-1,19
 373 1318 373 1318 373 1067 c 0,20,21
 373 808 373 808 327 695.5 c 128,-1,22
 281 583 281 583 202 583 c 0,11,12
EndSplineSet
EndChar

StartChar: uni2070.zero
Encoding: 65570 -1 537
Width: 405
VWidth: 2441
GlyphClass: 1
Flags: HW
LayerCount: 2
Fore
SplineSet
207 1045 m 0,0,1
 188 1045 188 1045 175.5 1060.5 c 128,-1,2
 163 1076 163 1076 163 1099 c 0,3,4
 163 1120 163 1120 175.5 1136.5 c 128,-1,5
 188 1153 188 1153 207 1153 c 0,6,7
 224 1153 224 1153 237.5 1137 c 128,-1,8
 251 1121 251 1121 251 1099 c 0,9,10
 251 1078 251 1078 237.5 1061.5 c 128,-1,11
 224 1045 224 1045 207 1045 c 0,0,1
202 683 m 0,12,13
 241 683 241 683 261 773.5 c 128,-1,14
 281 864 281 864 281 1067 c 0,15,16
 281 1451 281 1451 202 1451 c 0,17,18
 167 1451 167 1451 145.5 1356.5 c 128,-1,19
 124 1262 124 1262 124 1067 c 0,20,21
 124 864 124 864 147 773.5 c 128,-1,22
 170 683 170 683 202 683 c 0,12,13
202 583 m 0,23,24
 127 583 127 583 79.5 695.5 c 128,-1,25
 32 808 32 808 32 1067 c 0,26,27
 32 1319 32 1319 79.5 1434.5 c 128,-1,28
 127 1550 127 1550 202 1550 c 0,29,30
 281 1550 281 1550 327 1434 c 128,-1,31
 373 1318 373 1318 373 1067 c 0,32,33
 373 808 373 808 327 695.5 c 128,-1,34
 281 583 281 583 202 583 c 0,23,24
EndSplineSet
EndChar

StartChar: period
Encoding: 46 46 538
Width: 240
VWidth: 2607
GlyphClass: 1
Flags: HW
LayerCount: 2
Fore
SplineSet
120 136 m 128,-1,1
 83 136 83 136 57.5 168.5 c 128,-1,2
 32 201 32 201 32 245 c 128,-1,3
 32 289 32 289 57.5 320.5 c 128,-1,4
 83 352 83 352 120 352 c 128,-1,5
 157 352 157 352 182.5 320 c 128,-1,6
 208 288 208 288 208 245 c 0,7,8
 208 201 208 201 182.5 168.5 c 128,-1,0
 157 136 157 136 120 136 c 128,-1,1
EndSplineSet
EndChar

StartChar: comma
Encoding: 44 44 539
Width: 258
VWidth: 2607
GlyphClass: 1
Flags: HW
LayerCount: 2
Fore
SplineSet
86 -244 m 1,0,-1
 32 -193 l 1,1,2
 67 -130 67 -130 89.5 -69.5 c 128,-1,3
 112 -9 112 -9 112 36 c 0,4,5
 112 71 112 71 96.5 95.5 c 128,-1,6
 81 120 81 120 66 149 c 128,-1,7
 51 178 51 178 51 222 c 0,8,9
 51 283 51 283 76.5 317.5 c 128,-1,10
 102 352 102 352 135 352 c 0,11,12
 167 352 167 352 196.5 316 c 128,-1,13
 226 280 226 280 226 190 c 0,14,15
 226 92 226 92 189 -8.5 c 128,-1,16
 152 -109 152 -109 86 -244 c 1,0,-1
EndSplineSet
EndChar

StartChar: colon
Encoding: 58 58 540
Width: 239
VWidth: 2716
GlyphClass: 1
Flags: HW
LayerCount: 2
Fore
SplineSet
119 245 m 128,-1,1
 82 245 82 245 57 277.5 c 128,-1,2
 32 310 32 310 32 354 c 128,-1,3
 32 398 32 398 57.5 429.5 c 128,-1,4
 83 461 83 461 119 461 c 0,5,6
 156 461 156 461 181.5 429 c 128,-1,7
 207 397 207 397 207 354 c 0,8,9
 207 310 207 310 181.5 277.5 c 128,-1,0
 156 245 156 245 119 245 c 128,-1,1
119 1058 m 128,-1,11
 82 1058 82 1058 57 1090.5 c 128,-1,12
 32 1123 32 1123 32 1167 c 128,-1,13
 32 1211 32 1211 57.5 1242.5 c 128,-1,14
 83 1274 83 1274 119 1274 c 0,15,16
 156 1274 156 1274 181.5 1242 c 128,-1,17
 207 1210 207 1210 207 1167 c 0,18,19
 207 1123 207 1123 181.5 1090.5 c 128,-1,10
 156 1058 156 1058 119 1058 c 128,-1,11
EndSplineSet
EndChar

StartChar: semicolon
Encoding: 59 59 541
Width: 260
VWidth: 2716
GlyphClass: 1
Flags: HW
LayerCount: 2
Fore
SplineSet
86 -135 m 1,0,-1
 32 -84 l 1,1,2
 67 -21 67 -21 90 39.5 c 128,-1,3
 113 100 113 100 113 145 c 0,4,5
 113 180 113 180 98 204.5 c 128,-1,6
 83 229 83 229 67.5 258 c 128,-1,7
 52 287 52 287 52 331 c 0,8,9
 52 392 52 392 78 426.5 c 128,-1,10
 104 461 104 461 135 461 c 0,11,12
 167 461 167 461 197.5 425 c 128,-1,13
 228 389 228 389 228 299 c 0,14,15
 228 201 228 201 190 100.5 c 128,-1,16
 152 0 152 0 86 -135 c 1,0,-1
132 1058 m 128,-1,18
 95 1058 95 1058 70 1090.5 c 128,-1,19
 45 1123 45 1123 45 1167 c 128,-1,20
 45 1211 45 1211 70.5 1242.5 c 128,-1,21
 96 1274 96 1274 132 1274 c 0,22,23
 169 1274 169 1274 194.5 1242 c 128,-1,24
 220 1210 220 1210 220 1167 c 0,25,26
 220 1123 220 1123 194.5 1090.5 c 128,-1,17
 169 1058 169 1058 132 1058 c 128,-1,18
EndSplineSet
EndChar

StartChar: ellipsis
Encoding: 8230 8230 542
Width: 456
VWidth: 2441
GlyphClass: 1
Flags: HW
LayerCount: 2
Fore
SplineSet
59 -30 m 128,-1,1
 30 -30 30 -30 10.5 2.5 c 128,-1,2
 -9 35 -9 35 -9 79 c 128,-1,3
 -9 123 -9 123 11 154.5 c 128,-1,4
 31 186 31 186 59 186 c 0,5,6
 88 186 88 186 107.5 154 c 128,-1,7
 127 122 127 122 127 79 c 0,8,9
 127 35 127 35 107.5 2.5 c 128,-1,0
 88 -30 88 -30 59 -30 c 128,-1,1
214 -30 m 128,-1,11
 185 -30 185 -30 165.5 2.5 c 128,-1,12
 146 35 146 35 146 79 c 128,-1,13
 146 123 146 123 166 154.5 c 128,-1,14
 186 186 186 186 214 186 c 0,15,16
 243 186 243 186 262.5 154 c 128,-1,17
 282 122 282 122 282 79 c 0,18,19
 282 35 282 35 262.5 2.5 c 128,-1,10
 243 -30 243 -30 214 -30 c 128,-1,11
371 -30 m 128,-1,21
 342 -30 342 -30 322.5 2.5 c 128,-1,22
 303 35 303 35 303 79 c 128,-1,23
 303 123 303 123 322.5 154.5 c 128,-1,24
 342 186 342 186 371 186 c 128,-1,25
 400 186 400 186 419.5 154 c 128,-1,26
 439 122 439 122 439 79 c 0,27,28
 439 35 439 35 419.5 2.5 c 128,-1,20
 400 -30 400 -30 371 -30 c 128,-1,21
EndSplineSet
EndChar

StartChar: exclam
Encoding: 33 33 543
Width: 240
VWidth: 2441
GlyphClass: 1
Flags: HW
LayerCount: 2
Fore
SplineSet
120 -30 m 128,-1,1
 83 -30 83 -30 57.5 2.5 c 128,-1,2
 32 35 32 35 32 79 c 128,-1,3
 32 123 32 123 57.5 154.5 c 128,-1,4
 83 186 83 186 120 186 c 128,-1,5
 157 186 157 186 182.5 154 c 128,-1,6
 208 122 208 122 208 79 c 0,7,8
 208 35 208 35 182.5 2.5 c 128,-1,0
 157 -30 157 -30 120 -30 c 128,-1,1
81 473 m 1,9,-1
 42 1498 l 2,10,11
 41.829787234 1503.19148936 41.829787234 1503.19148936 41.829787234 1508.20190131 c 0,12,13
 41.829787234 1562.06382979 41.829787234 1562.06382979 61.5 1595 c 0,14,15
 83 1631 83 1631 120 1631 c 0,16,17
 155 1631 155 1631 178.5 1595.5 c 0,18,19
 198.581818182 1565.16363636 198.581818182 1565.16363636 198.581818182 1498.68 c 0,20,21
 198.581818182 1487.36363636 198.581818182 1487.36363636 198 1475 c 2,22,-1
 157 473 l 1,23,-1
 81 473 l 1,9,-1
EndSplineSet
EndChar

StartChar: question
Encoding: 63 63 545
Width: 512
VWidth: 2441
GlyphClass: 1
Flags: HW
LayerCount: 2
Fore
SplineSet
273 -30 m 128,-1,1
 237 -30 237 -30 212.5 2.5 c 128,-1,2
 188 35 188 35 188 79 c 128,-1,3
 188 123 188 123 213 154.5 c 128,-1,4
 238 186 238 186 273 186 c 0,5,6
 309 186 309 186 334.5 154 c 128,-1,7
 360 122 360 122 360 79 c 0,8,9
 360 35 360 35 334.5 2.5 c 128,-1,0
 309 -30 309 -30 273 -30 c 128,-1,1
211 527 m 2,10,11
 211 637 211 637 227 709 c 128,-1,12
 243 781 243 781 267 833.5 c 128,-1,13
 291 886 291 886 314.5 937 c 128,-1,14
 338 988 338 988 353.5 1056.5 c 128,-1,15
 369 1125 369 1125 369 1230 c 0,16,17
 369 1340 369 1340 346 1415.5 c 128,-1,18
 323 1491 323 1491 264 1491 c 0,19,20
 195 1491 195 1491 147 1391 c 1,21,22
 135 1354 135 1354 132.5 1336 c 128,-1,23
 130 1318 130 1318 140 1299 c 1,24,-1
 133 1281 l 1,25,-1
 110 1291 l 1,26,-1
 32 1372 l 1,27,28
 73 1491 73 1491 127 1557.5 c 128,-1,29
 181 1624 181 1624 268 1624 c 0,30,31
 364 1624 364 1624 422 1537.5 c 128,-1,32
 480 1451 480 1451 480 1242 c 0,33,34
 480 1120 480 1120 464 1041 c 128,-1,35
 448 962 448 962 425.5 906 c 128,-1,36
 403 850 403 850 379 800 c 128,-1,37
 355 750 355 750 339 686 c 128,-1,38
 323 622 323 622 323 527 c 2,39,-1
 323 427 l 1,40,-1
 211 427 l 1,41,-1
 211 527 l 2,10,11
EndSplineSet
EndChar

StartChar: periodcentered
Encoding: 183 183 547
Width: 240
VWidth: 2441
GlyphClass: 1
Flags: HW
LayerCount: 2
Fore
SplineSet
120 703 m 128,-1,1
 83 703 83 703 57.5 735 c 128,-1,2
 32 767 32 767 32 811 c 128,-1,3
 32 855 32 855 57.5 886.5 c 128,-1,4
 83 918 83 918 120 918 c 128,-1,5
 157 918 157 918 182.5 886.5 c 128,-1,6
 208 855 208 855 208 811 c 128,-1,7
 208 767 208 767 182.5 735 c 128,-1,0
 157 703 157 703 120 703 c 128,-1,1
EndSplineSet
Substitution2: "Single Substitution lookup 11 subtable" periodcentered.loclCAT
Substitution2: "Single Substitution lookup 10 subtable" periodcentered.loclCAT
Substitution2: "'aalt' Access All Alternates in Latin lookup 0 subtable" periodcentered.loclCAT
EndChar

StartChar: bullet
Encoding: 8226 8226 548
Width: 292
VWidth: 2441
GlyphClass: 1
Flags: HW
LayerCount: 2
Fore
SplineSet
144 573 m 0,0,1
 98 573 98 573 65 616 c 128,-1,2
 32 659 32 659 32 715 c 0,3,4
 32 776 32 776 68 817.5 c 128,-1,5
 104 859 104 859 144 859 c 0,6,7
 190 859 190 859 225 816.5 c 128,-1,8
 260 774 260 774 260 715 c 0,9,10
 260 659 260 659 226.5 616 c 128,-1,11
 193 573 193 573 144 573 c 0,0,1
EndSplineSet
EndChar

StartChar: asterisk
Encoding: 42 42 549
Width: 512
VWidth: 2441
GlyphClass: 1
Flags: HW
LayerCount: 2
Fore
SplineSet
137 300 m 1,0,-1
 65 386 l 1,1,-1
 204 769 l 1,2,-1
 32 899 l 1,3,-1
 69 1028 l 1,4,-1
 220 876 l 1,5,-1
 208 1309 l 1,6,-1
 308 1309 l 1,7,-1
 290 876 l 1,8,-1
 452 1028 l 1,9,-1
 480 899 l 1,10,-1
 298 769 l 1,11,-1
 445 386 l 1,12,-1
 373 303 l 1,13,-1
 253 674 l 1,14,-1
 137 300 l 1,0,-1
EndSplineSet
Substitution2: "'ss01' Style Set 1 in Latin lookup 35 subtable" asterisk.ss01
Substitution2: "'salt' Stylistic Alternatives in Latin lookup 34 subtable" asterisk.ss01
Substitution2: "'aalt' Access All Alternates in Latin lookup 0 subtable" asterisk.ss01
EndChar

StartChar: uni2E12
Encoding: 11794 11794 550
Width: 218
VWidth: 2212
GlyphClass: 1
Flags: HW
LayerCount: 2
Fore
SplineSet
32 -246 m 1,0,-1
 32 -140 l 1,1,2
 69 -140 69 -140 86 -81 c 128,-1,3
 103 -22 103 -22 103 47 c 0,4,5
 103 117 103 117 86 177 c 128,-1,6
 69 237 69 237 32 237 c 1,7,-1
 32 340 l 1,8,9
 95 340 95 340 140.5 270 c 128,-1,10
 186 200 186 200 186 45 c 0,11,12
 186 -105 186 -105 140.5 -175.5 c 128,-1,13
 95 -246 95 -246 32 -246 c 1,0,-1
EndSplineSet
EndChar

StartChar: numbersign
Encoding: 35 35 551
Width: 489
VWidth: 2441
GlyphClass: 1
Flags: HW
LayerCount: 2
Fore
SplineSet
187 576 m 1,0,-1
 281 576 l 1,1,-1
 300 1001 l 1,2,-1
 207 1001 l 1,3,-1
 187 576 l 1,0,-1
253 24 m 1,4,-1
 275 476 l 1,5,-1
 182 476 l 1,6,-1
 159 35 l 1,7,-1
 85 32 l 1,8,-1
 106 471 l 1,9,-1
 18 471 l 1,10,-1
 22 571 l 1,11,-1
 111 571 l 1,12,-1
 131 999 l 1,13,-1
 32 999 l 1,14,-1
 34 1101 l 1,15,-1
 138 1101 l 1,16,-1
 157 1523 l 1,17,-1
 233 1528 l 1,18,-1
 213 1106 l 1,19,-1
 307 1106 l 1,20,-1
 327 1519 l 1,21,-1
 405 1521 l 1,22,-1
 384 1111 l 1,23,-1
 466 1111 l 1,24,-1
 460 1006 l 1,25,-1
 378 1006 l 1,26,-1
 357 583 l 1,27,-1
 448 583 l 1,28,-1
 443 484 l 1,29,-1
 353 484 l 1,30,-1
 331 35 l 1,31,-1
 253 24 l 1,4,-1
EndSplineSet
EndChar

StartChar: slash
Encoding: 47 47 552
Width: 512
VWidth: 2441
GlyphClass: 1
Flags: HW
LayerCount: 2
Fore
SplineSet
136 -103 m 1,0,-1
 32 -56 l 1,1,-1
 376 1624 l 1,2,-1
 480 1572 l 1,3,-1
 136 -103 l 1,0,-1
EndSplineSet
Substitution2: "'frac' Diagonal Fractions in Latin lookup 23 subtable" fraction
Substitution2: "'aalt' Access All Alternates in Latin lookup 0 subtable" fraction
EndChar

StartChar: backslash
Encoding: 92 92 553
Width: 512
VWidth: 2441
GlyphClass: 1
Flags: HW
LayerCount: 2
Fore
SplineSet
376 -103 m 1,0,-1
 32 1572 l 1,1,-1
 136 1624 l 1,2,-1
 480 -56 l 1,3,-1
 376 -103 l 1,0,-1
EndSplineSet
EndChar

StartChar: asterisk.ss01
Encoding: 65572 -1 555
Width: 512
VWidth: 2441
GlyphClass: 1
Flags: HW
LayerCount: 2
Fore
SplineSet
137 447 m 1,0,-1
 65 532 l 1,1,-1
 204 916 l 1,2,-1
 32 1045 l 1,3,-1
 69 1174 l 1,4,-1
 220 1023 l 1,5,-1
 208 1456 l 1,6,-1
 308 1456 l 1,7,-1
 290 1023 l 1,8,-1
 452 1174 l 1,9,-1
 480 1045 l 1,10,-1
 298 916 l 1,11,-1
 445 532 l 1,12,-1
 373 449 l 1,13,-1
 253 820 l 1,14,-1
 137 447 l 1,0,-1
EndSplineSet
EndChar

StartChar: parenleft
Encoding: 40 40 556
Width: 469
VWidth: 2449
GlyphClass: 1
Flags: HW
LayerCount: 2
Fore
SplineSet
386 -246 m 1,0,1
 286 -151 286 -151 205.5 9 c 128,-1,2
 125 169 125 169 78.5 370.5 c 128,-1,3
 32 572 32 572 32 789 c 128,-1,4
 32 1006 32 1006 77.5 1202.5 c 128,-1,5
 123 1399 123 1399 202 1554 c 128,-1,6
 281 1709 281 1709 379 1802 c 1,7,-1
 433 1690 l 1,8,9
 354 1604 354 1604 289.5 1460.5 c 128,-1,10
 225 1317 225 1317 187 1141 c 128,-1,11
 149 965 149 965 149 782 c 0,12,13
 149 598 149 598 187 423 c 128,-1,14
 225 248 225 248 291 102.5 c 128,-1,15
 357 -43 357 -43 437 -131 c 1,16,-1
 386 -246 l 1,0,1
EndSplineSet
EndChar

StartChar: parenright
Encoding: 41 41 557
Width: 469
VWidth: 2449
GlyphClass: 1
Flags: HW
LayerCount: 2
Fore
SplineSet
83 -246 m 1
 183 -151 183 -151 264 9 c 0
 345 169 345 169 391 370 c 0
 437 571 437 571 437 789 c 0
 437 1006 437 1006 392 1202 c 0
 347 1399 347 1399 268 1554 c 0
 188 1709 188 1709 92 1802 c 1
 37 1690 l 1
 116 1604 116 1604 180 1461 c 0
 244 1317 244 1317 282 1140 c 0
 320 965 320 965 320 782 c 0
 320 598 320 598 282 423 c 0
 244 248 244 248 179 102 c 0
 113 -43 113 -43 32 -131 c 1
 83 -246 l 1
EndSplineSet
EndChar

StartChar: braceleft
Encoding: 123 123 558
Width: 512
VWidth: 2486
GlyphClass: 1
Flags: HW
LayerCount: 2
Fore
SplineSet
434 -187 m 2,0,1
 347 -187 347 -187 284 -151.5 c 128,-1,2
 221 -116 221 -116 189.5 -23.5 c 128,-1,3
 160.739130435 60.9565217391 160.739130435 60.9565217391 160.739130435 211.688090737 c 0,0,0
 160.739130435 226.043478261 160.739130435 226.043478261 161 241 c 2,4,-1
 166 485 l 2,5,6
 166 646 166 646 138 702 c 128,-1,7
 110 758 110 758 57 758 c 2,8,-1
 32 758 l 1,9,-1
 32 895 l 1,10,-1
 57 895 l 2,11,12
 113 895 113 895 140.5 956 c 128,-1,13
 168 1017 168 1017 168 1156 c 2,14,-1
 166 1331 l 2,15,16
 166 1543 166 1543 229.5 1650 c 128,-1,17
 293 1757 293 1757 403 1757 c 2,18,-1
 480 1757 l 1,19,-1
 480 1627 l 1,20,-1
 401 1627 l 2,21,22
 348 1627 348 1627 317 1557 c 128,-1,23
 286 1487 286 1487 286 1359 c 2,24,-1
 289 1187 l 2,25,26
 289 1052 289 1052 260 962 c 128,-1,27
 231 872 231 872 177 826 c 1,28,29
 228 791 228 791 257 697.5 c 128,-1,30
 286 604 286 604 286 448 c 2,31,-1
 284 243 l 2,32,33
 284 77 284 77 317 8.5 c 128,-1,34
 350 -60 350 -60 417 -60 c 2,35,-1
 478 -60 l 1,36,-1
 478 -187 l 1,37,-1
 434 -187 l 2,0,1
EndSplineSet
EndChar

StartChar: braceright
Encoding: 125 125 559
Width: 512
VWidth: 2486
GlyphClass: 1
Flags: HW
LayerCount: 2
Fore
SplineSet
78 -187 m 2
 165 -187 165 -187 228 -152 c 0
 291 -116 291 -116 323 -23 c 0
 351.444444444 59.6666666667 351.444444444 59.6666666667 351.444444444 203.962962963 c 0,0,0
 351.444444444 222 351.444444444 222 351 241 c 2
 346 485 l 2
 346 646 346 646 375 702 c 0
 403 758 403 758 455 758 c 2
 480 758 l 1
 480 895 l 1
 455 895 l 2
 399 895 399 895 372 956 c 0
 344 1017 344 1017 344 1156 c 2
 346 1331 l 2
 346 1543 346 1543 283 1651 c 0
 219 1757 219 1757 109 1757 c 2
 32 1757 l 1
 32 1627 l 1
 111 1627 l 2
 164 1627 164 1627 195 1558 c 0
 226 1489 226 1489 226 1359 c 2
 223 1187 l 2
 223 1052 223 1052 252 963 c 0
 282 872 282 872 335 826 c 1
 284 791 284 791 254 698 c 0
 225.875 609.875 225.875 609.875 225.875 467.2578125 c 0,0,0
 225.875 457.75 225.875 457.75 226 448 c 2
 228 243 l 2
 228 77 228 77 195 8 c 0
 162 -60 162 -60 95 -60 c 2
 34 -60 l 1
 34 -187 l 1
 78 -187 l 2
EndSplineSet
EndChar

StartChar: bracketleft
Encoding: 91 91 560
Width: 437
VWidth: 2516
GlyphClass: 1
Flags: HW
LayerCount: 2
Fore
SplineSet
32 -142 m 1,0,-1
 32 1711 l 1,1,-1
 403 1711 l 1,2,-1
 403 1573 l 1,3,-1
 154 1573 l 1,4,-1
 154 -13 l 1,5,-1
 405 -13 l 1,6,-1
 405 -142 l 1,7,-1
 32 -142 l 1,0,-1
EndSplineSet
EndChar

StartChar: bracketright
Encoding: 93 93 561
Width: 437
VWidth: 2516
GlyphClass: 1
Flags: HW
LayerCount: 2
Fore
SplineSet
405 -142 m 1
 405 1711 l 1
 34 1711 l 1
 34 1573 l 1
 284 1573 l 1
 284 -13 l 1
 32 -13 l 1
 32 -142 l 1
 405 -142 l 1
EndSplineSet
EndChar

StartChar: hyphen
Encoding: 45 45 562
Width: 405
VWidth: 2441
GlyphClass: 1
Flags: HW
LayerCount: 2
Fore
SplineSet
32 708 m 1,0,-1
 32 850 l 1,1,-1
 373 850 l 1,2,-1
 373 708 l 1,3,-1
 32 708 l 1,0,-1
EndSplineSet
EndChar

StartChar: endash
Encoding: 8211 8211 564
Width: 503
VWidth: 2441
GlyphClass: 1
Flags: HW
LayerCount: 2
Fore
SplineSet
32 708 m 1,0,-1
 32 850 l 1,1,-1
 471 850 l 1,2,-1
 471 708 l 1,3,-1
 32 708 l 1,0,-1
EndSplineSet
EndChar

StartChar: emdash
Encoding: 8212 8212 565
Width: 440
VWidth: 2441
GlyphClass: 1
Flags: HW
LayerCount: 2
Fore
SplineSet
-15 708 m 1,0,-1
 -15 850 l 1,1,-1
 433 850 l 1,2,-1
 433 708 l 1,3,-1
 -15 708 l 1,0,-1
EndSplineSet
EndChar

StartChar: underscore
Encoding: 95 95 569
Width: 512
VWidth: 2441
GlyphClass: 1
Flags: HW
LayerCount: 2
Fore
SplineSet
32 -191 m 1,0,-1
 32 -54 l 1,1,-1
 480 -54 l 1,2,-1
 480 -191 l 1,3,-1
 32 -191 l 1,0,-1
EndSplineSet
EndChar

StartChar: quotedblleft
Encoding: 8220 8220 572
Width: 512
VWidth: 2441
GlyphClass: 1
Flags: HW
LayerCount: 2
Fore
SplineSet
170 1558 m 1,0,-1
 225 1507 l 1,1,2
 135 1375 135 1375 134 1255 c 0,3,4
 134 1220 134 1220 152 1198.5 c 128,-1,5
 170 1177 170 1177 187 1152.5 c 128,-1,6
 204 1128 204 1128 204 1084 c 0,7,8
 204 1030 204 1030 181 996 c 128,-1,9
 158 962 158 962 125 962 c 0,10,11
 88 962 88 962 60 1005 c 128,-1,12
 32 1048 32 1048 32 1118 c 0,13,14
 32 1216 32 1216 63.5 1319.5 c 128,-1,15
 95 1423 95 1423 170 1558 c 1,0,-1
427 1558 m 1,16,-1
 480 1507 l 1,17,18
 390 1375 390 1375 390 1255 c 0,19,20
 390 1220 390 1220 408.5 1198.5 c 128,-1,21
 427 1177 427 1177 443.5 1152.5 c 128,-1,22
 460 1128 460 1128 460 1084 c 0,23,24
 460 1030 460 1030 436.5 996 c 128,-1,25
 413 962 413 962 380 962 c 0,26,27
 343 962 343 962 315 1005 c 128,-1,28
 287 1048 287 1048 287 1118 c 0,29,30
 287 1216 287 1216 319.5 1319.5 c 128,-1,31
 352 1423 352 1423 427 1558 c 1,16,-1
EndSplineSet
EndChar

StartChar: quoteleft
Encoding: 8216 8216 574
Width: 257
VWidth: 2441
GlyphClass: 1
Flags: HW
LayerCount: 2
Fore
SplineSet
171 1558 m 1,0,-1
 225 1507 l 1,1,2
 134.989130435 1376.43478261 134.989130435 1376.43478261 134.989130435 1257.61011342 c 0,0,0
 134.989130435 1220.01298309 134.989130435 1220.01298309 153 1198.5 c 128,-1,5
 171 1177 171 1177 188.5 1152.5 c 128,-1,6
 206 1128 206 1128 206 1084 c 0,7,8
 206 1030 206 1030 183 996 c 128,-1,9
 160 962 160 962 125 962 c 0,10,11
 88 962 88 962 60 1005 c 128,-1,12
 32 1048 32 1048 32 1118 c 0,13,14
 32 1216 32 1216 64 1319.5 c 128,-1,15
 96 1423 96 1423 171 1558 c 1,0,-1
EndSplineSet
EndChar

StartChar: quoteright
Encoding: 8217 8217 575
Width: 257
VWidth: 2441
GlyphClass: 1
Flags: HW
LayerCount: 2
Fore
SplineSet
86 962 m 1,0,-1
 32 1013 l 1,1,2
 123 1145 123 1145 123 1265 c 0,3,4
 123 1300 123 1300 105.5 1321 c 128,-1,5
 88 1342 88 1342 69.5 1368 c 128,-1,6
 51 1394 51 1394 51 1435 c 0,7,8
 51 1491 51 1491 74.5 1524.5 c 128,-1,9
 98 1558 98 1558 132 1558 c 0,10,11
 169 1558 169 1558 197 1515 c 128,-1,12
 225 1472 225 1472 225 1402 c 0,13,14
 225 1304 225 1304 193 1200.5 c 128,-1,15
 161 1097 161 1097 86 962 c 1,0,-1
EndSplineSet
EndChar

StartChar: guillemotleft
Encoding: 171 171 576
Width: 512
VWidth: 2441
GlyphClass: 1
Flags: HW
LayerCount: 2
Fore
SplineSet
413 149 m 1,0,-1
 237 561 l 1,1,-1
 237 617 l 1,2,-1
 405 976 l 1,3,-1
 473 876 l 1,4,-1
 336 589 l 1,5,-1
 480 247 l 1,6,-1
 413 149 l 1,0,-1
210 149 m 1,7,-1
 32 561 l 1,8,-1
 32 617 l 1,9,-1
 203 976 l 1,10,-1
 268 876 l 1,11,-1
 134 589 l 1,12,-1
 278 247 l 1,13,-1
 210 149 l 1,7,-1
EndSplineSet
EndChar

StartChar: guilsinglleft
Encoding: 8249 8249 578
Width: 330
VWidth: 2441
GlyphClass: 1
Flags: HW
LayerCount: 2
Fore
SplineSet
224 149 m 1,0,-1
 32 561 l 1,1,-1
 32 617 l 1,2,-1
 217 976 l 1,3,-1
 288 881 l 1,4,-1
 137 589 l 1,5,-1
 298 242 l 1,6,-1
 224 149 l 1,0,-1
EndSplineSet
EndChar

StartChar: guilsinglright
Encoding: 8250 8250 579
Width: 330
VWidth: 2441
GlyphClass: 1
Flags: HW
LayerCount: 2
Fore
SplineSet
105 149 m 1,0,-1
 32 242 l 1,1,-1
 193 589 l 1,2,-1
 39 881 l 1,3,-1
 113 976 l 1,4,-1
 298 617 l 1,5,-1
 298 561 l 1,6,-1
 105 149 l 1,0,-1
EndSplineSet
EndChar

StartChar: quotedbl
Encoding: 34 34 580
Width: 400
VWidth: 2441
GlyphClass: 1
Flags: HW
LayerCount: 2
Fore
SplineSet
32 1624 m 1
 154 1624 l 1
 154 1477 154 1477 152 1389 c 0
 151 1301 151 1301 148 1241 c 0
 144 1181 144 1181 139 1127 c 0
 134 1072 134 1072 130 994 c 1
 56 994 l 1
 51 1073 51 1073 46 1127 c 0
 41 1182 41 1182 38 1240 c 0
 34 1298 34 1298 33 1388 c 0
 32 1477 32 1477 32 1624 c 1
247 1624 m 1
 368 1624 l 1
 368 1477 368 1477 367 1389 c 0
 366 1301 366 1301 362 1241 c 0
 358 1181 358 1181 354 1127 c 0
 349 1072 349 1072 344 994 c 1
 270 994 l 1
 265 1073 265 1073 261 1127 c 0
 256 1182 256 1182 253 1240 c 0
 249 1298 249 1298 248 1388 c 0
 247 1477 247 1477 247 1624 c 1
EndSplineSet
Substitution2: "'ss03' Style Set 3 in Latin lookup 37 subtable" quotedbl.ss03
Substitution2: "'aalt' Access All Alternates in Latin lookup 0 subtable" quotedbl.ss03
EndChar

StartChar: quotesingle
Encoding: 39 39 581
Width: 186
VWidth: 2441
GlyphClass: 1
Flags: HW
LayerCount: 2
Fore
SplineSet
32 1624 m 1,0,-1
 154 1624 l 1,1,2
 154 1477 154 1477 152.5 1389.5 c 128,-1,3
 151 1302 151 1302 147.5 1241.5 c 128,-1,4
 144 1181 144 1181 139.5 1126.5 c 128,-1,5
 135 1072 135 1072 130 994 c 1,6,-1
 56 994 l 1,7,8
 51 1073 51 1073 46.5 1127 c 128,-1,9
 42 1181 42 1181 38 1240 c 128,-1,10
 34 1299 34 1299 33 1388 c 128,-1,11
 32 1477 32 1477 32 1624 c 1,0,-1
EndSplineSet
Substitution2: "'ss03' Style Set 3 in Latin lookup 37 subtable" quotesingle.ss03
Substitution2: "'aalt' Access All Alternates in Latin lookup 0 subtable" quotesingle.ss03
EndChar

StartChar: quotesingle.ss03
Encoding: 65574 -1 583
Width: 206
VWidth: 2441
GlyphClass: 1
Flags: HW
LayerCount: 2
Fore
SplineSet
102 999 m 1,0,-1
 32 1006 l 1,1,2
 59 1172 59 1172 63 1289.5 c 128,-1,3
 67 1407 67 1407 67 1491 c 0,4,5
 67 1623 67 1623 120 1624 c 0,6,7
 174 1624 174 1624 174 1496 c 0,8,9
 174 1438 174 1438 166 1373.5 c 128,-1,10
 158 1309 158 1309 142 1221.5 c 128,-1,11
 126 1134 126 1134 102 999 c 1,0,-1
EndSplineSet
EndChar

StartChar: hyphen_greater.dlig
Encoding: 65575 -1 584
Width: 501
VWidth: 2441
GlyphClass: 1
Flags: HW
LayerCount: 2
Fore
SplineSet
24 708 m 1,0,-1
 24 850 l 1,1,-1
 327 850 l 1,2,-1
 327 708 l 1,3,-1
 24 708 l 1,0,-1
216 114 m 1,4,-1
 216 291 l 1,5,-1
 427 778 l 1,6,-1
 217 1211 l 1,7,-1
 217 1384 l 1,8,-1
 472 832 l 1,9,-1
 472 730 l 1,10,-1
 216 114 l 1,4,-1
EndSplineSet
Ligature2: "'dlig' Discretionary Ligatures in Latin lookup 32 subtable" hyphen greater
EndChar

StartChar: exclam_equal_equal.dlig
Encoding: 65576 -1 585
Width: 457
VWidth: 2412
GlyphClass: 1
Flags: HW
LayerCount: 2
Fore
SplineSet
-4 58 m 1,0,-1
 -4 203 l 1,1,-1
 178 203 l 1,2,-1
 197 511 l 1,3,-1
 50 511 l 1,4,-1
 50 655 l 1,5,-1
 206 655 l 1,6,-1
 225 965 l 1,7,-1
 -4 965 l 1,8,-1
 -4 1110 l 1,9,-1
 234 1110 l 1,10,-1
 253 1414 l 1,11,-1
 288 1378 l 1,12,-1
 271 1110 l 1,13,-1
 444 1110 l 1,14,-1
 444 965 l 1,15,-1
 262 965 l 1,16,-1
 243 655 l 1,17,-1
 390 655 l 1,18,-1
 390 511 l 1,19,-1
 234 511 l 1,20,-1
 215 203 l 1,21,-1
 444 203 l 1,22,-1
 444 58 l 1,23,-1
 206 58 l 1,24,-1
 187 -246 l 1,25,-1
 152 -215 l 1,26,-1
 169 58 l 1,27,-1
 -4 58 l 1,0,-1
EndSplineSet
Ligature2: "'dlig' Discretionary Ligatures in Latin lookup 32 subtable" exclam equal equal
EndChar

StartChar: uni20B5
Encoding: 8373 8373 594
Width: 524
VWidth: 2441
GlyphClass: 2
Flags: HW
AnchorPoint: "Anchor-2" 284 0 basechar 0
AnchorPoint: "Anchor-0" 273 1521 basechar 0
LayerCount: 2
Fore
SplineSet
138 764 m 0,0,1
 138 532 138 532 162.5 384.5 c 128,-1,2
 187 237 187 237 224 170 c 1,3,-1
 224 1353 l 1,4,5
 184 1297 184 1297 161 1154 c 128,-1,6
 138 1011 138 1011 138 764 c 0,0,1
224 -173 m 1,7,-1
 224 -10 l 1,8,9
 170 17 170 17 127 101.5 c 128,-1,10
 84 186 84 186 58 344.5 c 128,-1,11
 32 503 32 503 32 752 c 0,12,13
 32 1018 32 1018 59 1176.5 c 128,-1,14
 86 1335 86 1335 130 1414.5 c 128,-1,15
 174 1494 174 1494 224 1519 c 1,16,-1
 224 1647 l 1,17,-1
 326 1647 l 1,18,-1
 326 1528 l 1,19,20
 382 1516 382 1516 423 1460 c 128,-1,21
 464 1404 464 1404 480 1302 c 1,22,-1
 416 1216 l 1,23,-1
 400 1197 l 1,24,-1
 390 1209 l 1,25,26
 388 1228 388 1228 391 1252.5 c 128,-1,27
 394 1277 394 1277 382 1314 c 1,28,29
 356 1368 356 1368 326 1384 c 1,30,-1
 326 124 l 1,31,32
 372 148 372 148 407 266 c 1,33,-1
 472 159 l 1,34,35
 416 0 416 0 326 -19 c 1,36,-1
 326 -173 l 1,37,-1
 224 -173 l 1,7,-1
EndSplineSet
EndChar

StartChar: cent
Encoding: 162 162 595
Width: 512
VWidth: 2441
GlyphClass: 2
Flags: HW
AnchorPoint: "Anchor-2" 291 105 basechar 0
AnchorPoint: "Anchor-0" 291 1221 basechar 0
LayerCount: 2
Fore
SplineSet
140 662 m 0,0,1
 140 496 140 496 156 399.5 c 128,-1,2
 172 303 172 303 204 256 c 1,3,-1
 257 1109 l 1,4,5
 230 1097 230 1097 202 1050.5 c 128,-1,6
 174 1004 174 1004 157 910 c 128,-1,7
 140 816 140 816 140 662 c 0,0,1
274 -179 m 1,8,-1
 177 -179 l 1,9,-1
 195 103 l 1,10,11
 32 198 32 198 32 662 c 0,12,13
 32 874 32 874 67 997.5 c 128,-1,14
 102 1121 102 1121 155 1178 c 128,-1,15
 208 1235 208 1235 266 1242 c 1,16,-1
 284 1521 l 1,17,-1
 378 1521 l 1,18,-1
 359 1230 l 1,19,20
 444 1195 444 1195 480 1081 c 1,21,-1
 429 974 l 1,22,-1
 420 952 l 1,23,-1
 406 960 l 1,24,25
 399 979 399 979 398 1004.5 c 128,-1,26
 397 1030 397 1030 378 1065 c 0,27,28
 365 1082 365 1082 351 1091 c 1,29,-1
 299 210 l 1,30,31
 335 212 335 212 368.5 237.5 c 128,-1,32
 402 263 402 263 429 324 c 1,33,-1
 471 196 l 1,34,35
 437 135 437 135 389.5 107 c 128,-1,36
 342 79 342 79 291 79 c 1,37,-1
 274 -179 l 1,8,-1
EndSplineSet
EndChar

StartChar: colonmonetary
Encoding: 8353 8353 596
Width: 524
VWidth: 2441
GlyphClass: 2
Flags: HW
AnchorPoint: "Anchor-2" 284 0 basechar 0
AnchorPoint: "Anchor-0" 273 1521 basechar 0
LayerCount: 2
Fore
SplineSet
138 764 m 0,0,1
 138 676 138 676 142 600.5 c 128,-1,2
 146 525 146 525 154 461 c 1,3,-1
 246 1374 l 1,4,5
 198 1335 198 1335 168 1188.5 c 128,-1,6
 138 1042 138 1042 138 764 c 0,0,1
192 254 m 1,7,8
 202 215 202 215 216 186 c 1,9,-1
 338 1377 l 1,10,11
 324 1387 324 1387 306 1389 c 1,12,-1
 192 254 l 1,7,8
88 -173 m 1,13,-1
 118 119 l 1,14,15
 78 207 78 207 55 361 c 128,-1,16
 32 515 32 515 32 752 c 0,17,18
 32 974 32 974 52 1122 c 128,-1,19
 72 1270 72 1270 104 1356 c 128,-1,20
 136 1442 136 1442 178 1481.5 c 128,-1,21
 220 1521 220 1521 260 1531 c 1,22,-1
 273 1647 l 1,23,-1
 332 1647 l 1,24,-1
 319 1531 l 1,25,26
 335 1529 335 1529 352 1521 c 1,27,-1
 365 1647 l 1,28,-1
 426 1647 l 1,29,-1
 409 1479 l 1,30,31
 459 1418 459 1418 480 1302 c 1,32,-1
 416 1216 l 1,33,-1
 400 1197 l 1,34,-1
 390 1209 l 1,35,36
 388 1226 388 1226 391 1243 c 128,-1,37
 394 1260 394 1260 388 1284 c 1,38,-1
 270 122 l 1,39,40
 280 117 280 117 292 117 c 0,41,42
 332 117 332 117 359 155 c 128,-1,43
 386 193 386 193 407 266 c 1,44,-1
 472 159 l 1,45,46
 438 64 438 64 395 20 c 128,-1,47
 352 -24 352 -24 288 -24 c 0,48,49
 272 -24 272 -24 256 -21 c 1,50,-1
 242 -173 l 1,51,-1
 180 -173 l 1,52,-1
 200 5 l 1,53,54
 184 17 184 17 168 35 c 1,55,-1
 148 -173 l 1,56,-1
 88 -173 l 1,13,-1
EndSplineSet
EndChar

StartChar: currency
Encoding: 164 164 597
Width: 512
VWidth: 2441
GlyphClass: 1
Flags: HW
LayerCount: 2
Fore
SplineSet
255 603 m 0,0,1
 312 603 312 603 334.5 674 c 128,-1,2
 357 745 357 745 357 843 c 0,3,4
 357 943 357 943 334 1013.5 c 128,-1,5
 311 1084 311 1084 255 1084 c 0,6,7
 203 1084 203 1084 179 1013.5 c 128,-1,8
 155 943 155 943 155 843 c 0,9,10
 155 745 155 745 178 674 c 128,-1,11
 201 603 201 603 255 603 c 0,0,1
89 401 m 1,12,-1
 32 473 l 1,13,-1
 96 638 l 1,14,15
 66 733 66 733 66 843 c 128,-1,16
 66 953 66 953 99 1045 c 1,17,-1
 32 1209 l 1,18,-1
 89 1286 l 1,19,-1
 144 1150 l 1,20,21
 192 1220 192 1220 257 1221 c 0,22,23
 283 1221 283 1221 313.5 1203.5 c 128,-1,24
 344 1186 344 1186 366 1153 c 1,25,-1
 421 1286 l 1,26,-1
 478 1225 l 1,27,-1
 413 1067 l 1,28,29
 431 1016 431 1016 438.5 960 c 128,-1,30
 446 904 446 904 446 843 c 128,-1,31
 446 782 446 782 440.5 729 c 128,-1,32
 435 676 435 676 418 627 c 1,33,-1
 480 473 l 1,34,-1
 421 401 l 1,35,-1
 368 535 l 1,36,37
 346 498 346 498 315.5 481 c 128,-1,38
 285 464 285 464 257 464 c 0,39,40
 227 464 227 464 197.5 482.5 c 128,-1,41
 168 501 168 501 144 538 c 1,42,-1
 89 401 l 1,12,-1
EndSplineSet
EndChar

StartChar: dollar
Encoding: 36 36 598
Width: 498
VWidth: 2441
GlyphClass: 1
Flags: HW
LayerCount: 2
Fore
SplineSet
310 175 m 1,0,1
 343 196 343 196 360 271.5 c 128,-1,2
 377 347 377 347 377 432 c 0,3,4
 377 520 377 520 356.5 580 c 128,-1,5
 336 640 336 640 310 657 c 1,6,-1
 310 175 l 1,0,1
212 888 m 1,7,-1
 212 1307 l 1,8,9
 189 1297 189 1297 170 1251.5 c 128,-1,10
 151 1206 151 1206 151 1109 c 0,11,12
 151 1041 151 1041 165 983 c 128,-1,13
 179 925 179 925 212 888 c 1,7,-1
212 -114 m 1,14,-1
 212 35 l 1,15,16
 157 45 157 45 108 92 c 128,-1,17
 59 139 59 139 32 210 c 1,18,-1
 98 352 l 1,19,20
 102 345 102 345 102 327.5 c 128,-1,21
 102 310 102 310 104 300 c 0,22,23
 114 258 114 258 141.5 222 c 128,-1,24
 169 186 169 186 212 170 c 1,25,-1
 212 720 l 1,26,27
 159 764 159 764 122 809.5 c 128,-1,28
 85 855 85 855 66.5 920.5 c 128,-1,29
 48 986 48 986 48 1088 c 0,30,31
 48 1212 48 1212 69.5 1285 c 128,-1,32
 91 1358 91 1358 128 1393 c 128,-1,33
 165 1428 165 1428 212 1442 c 1,34,-1
 212 1589 l 1,35,-1
 316 1589 l 1,36,-1
 316 1582 l 2,37,38
 316 1577 316 1577 313 1566.5 c 128,-1,39
 310 1556 310 1556 310 1538 c 2,40,-1
 310 1445 l 1,41,42
 357 1433 357 1433 388.5 1402.5 c 128,-1,43
 420 1372 420 1372 441 1293 c 1,44,-1
 394 1158 l 1,45,46
 388 1163 388 1163 386.5 1180 c 128,-1,47
 385 1197 385 1197 381 1209 c 0,48,49
 373 1248 373 1248 352.5 1270.5 c 128,-1,50
 332 1293 332 1293 310 1304 c 1,51,-1
 310 820 l 1,52,53
 369 776 369 776 406 730.5 c 128,-1,54
 443 685 443 685 461.5 619.5 c 128,-1,55
 480 554 480 554 480 442 c 0,56,57
 480 261 480 261 434.5 162 c 128,-1,58
 389 63 389 63 310 39 c 1,59,-1
 310 -114 l 1,60,-1
 212 -114 l 1,14,-1
EndSplineSet
EndChar

StartChar: dong
Encoding: 8363 8363 599
Width: 512
VWidth: 2441
GlyphClass: 2
Flags: HW
AnchorPoint: "Anchor-4" 334 1333 basechar 0
AnchorPoint: "Anchor-2" 231 261 basechar 0
AnchorPoint: "Anchor-1" 437 1155 basechar 0
AnchorPoint: "Anchor-0" 231 1155 basechar 0
LayerCount: 2
Fore
SplineSet
35 132 m 1,0,-1
 447 132 l 1,1,-1
 447 0 l 1,2,-1
 35 0 l 1,3,-1
 35 132 l 1,0,-1
218 354 m 0,4,5
 258 354 258 354 287.5 429.5 c 128,-1,6
 317 505 317 505 317 713 c 0,7,8
 317 911 317 911 289 985.5 c 128,-1,9
 261 1060 261 1060 220 1060 c 0,10,11
 187 1060 187 1060 164 1034.5 c 128,-1,12
 141 1009 141 1009 130 940 c 128,-1,13
 119 871 119 871 119 737 c 0,14,15
 119 569 119 569 133.5 487 c 128,-1,16
 148 405 148 405 171.5 379.5 c 128,-1,17
 195 354 195 354 218 354 c 0,4,5
200 242 m 0,18,19
 155 242 155 242 116 277 c 128,-1,20
 77 312 77 312 54.5 414.5 c 128,-1,21
 32 517 32 517 32 715 c 0,22,23
 32 908 32 908 54.5 1006 c 128,-1,24
 77 1104 77 1104 117 1139 c 128,-1,25
 157 1174 157 1174 209 1174 c 0,26,27
 299 1174 299 1174 317 1037 c 1,28,-1
 317 1260 l 1,29,-1
 162 1260 l 1,30,-1
 162 1389 l 1,31,-1
 317 1389 l 1,32,-1
 317 1560 l 1,33,-1
 426 1560 l 1,34,-1
 426 1545 l 1,35,36
 408.947368421 1528.89473684 408.947368421 1528.89473684 408.947368421 1480.47922438 c 0,37,38
 408.947368421 1477.78947368 408.947368421 1477.78947368 409 1475 c 2,39,-1
 409 1389 l 1,40,-1
 480 1389 l 1,41,-1
 480 1260 l 1,42,-1
 409 1260 l 1,43,-1
 409 401 l 2,44,45
 409 366 409 366 410 331 c 128,-1,46
 411 296 411 296 418 261 c 1,47,-1
 332 261 l 1,48,49
 325 285 325 285 320 315 c 128,-1,50
 315 345 315 345 315 378 c 1,51,52
 299 322 299 322 269.5 282 c 128,-1,53
 240 242 240 242 200 242 c 0,18,19
EndSplineSet
EndChar

StartChar: Euro
Encoding: 8364 8364 600
Width: 493
VWidth: 2441
GlyphClass: 1
Flags: HW
LayerCount: 2
Fore
SplineSet
317 -27 m 0,0,1
 259 -27 259 -27 207 28 c 128,-1,2
 155 83 155 83 118.5 206 c 128,-1,3
 82 329 82 329 66 538 c 1,4,-1
 24 538 l 1,5,-1
 36 669 l 1,6,-1
 61 669 l 1,7,8
 59.6666666667 693.666666667 59.6666666667 693.666666667 59.6666666667 729.888888889 c 0,0,0
 59.6666666667 748 59.6666666667 748 60 769 c 128,-1,9
 61 832 61 832 62 874 c 1,10,-1
 24 874 l 1,11,-1
 36 1006 l 1,12,-1
 72 1006 l 1,13,14
 90 1216 90 1216 130.5 1329 c 128,-1,15
 171 1442 171 1442 223 1487.5 c 128,-1,16
 275 1533 275 1533 323 1533 c 0,17,18
 377 1533 377 1533 417.5 1512 c 128,-1,19
 458 1491 458 1491 472 1451 c 1,20,-1
 448 1307 l 1,21,22
 432 1309 432 1309 419 1330 c 128,-1,23
 406 1351 406 1351 383.5 1372.5 c 128,-1,24
 361 1394 361 1394 319 1394 c 0,25,26
 209 1394 209 1394 177 1006 c 1,27,-1
 400 1006 l 1,28,-1
 377 874 l 1,29,-1
 167 874 l 1,30,31
 165 835 165 835 164 776.5 c 128,-1,32
 163.666666667 757 163.666666667 757 163.666666667 738.555555556 c 0,0,0
 163.666666667 701.666666667 163.666666667 701.666666667 165 669 c 1,33,-1
 347 669 l 1,34,-1
 325 538 l 1,35,-1
 171 538 l 1,36,37
 187 335 187 335 222.5 227 c 128,-1,38
 258 119 258 119 321 119 c 0,39,40
 352 119 352 119 377 137.5 c 128,-1,41
 402 156 402 156 422 200 c 1,42,-1
 466 79 l 1,43,44
 435 18 435 18 396 -4.5 c 128,-1,45
 357 -27 357 -27 317 -27 c 0,0,1
EndSplineSet
EndChar

StartChar: florin
Encoding: 402 402 601
Width: 468
VWidth: 2370
GlyphClass: 1
Flags: HW
LayerCount: 2
Fore
SplineSet
82 -246 m 0,0,1
 58 -246 58 -246 35.5 -233 c 128,-1,2
 13 -220 13 -220 3 -191 c 1,3,-1
 34 -41 l 1,4,5
 40 -45 40 -45 49 -71 c 128,-1,6
 58 -97 58 -97 84 -97 c 0,7,8
 111 -97 111 -97 124 -21.5 c 128,-1,9
 137 54 137 54 141 203 c 2,10,-1
 162 872 l 1,11,-1
 63 872 l 1,12,-1
 63 996 l 1,13,-1
 166 996 l 1,14,-1
 172 1202 l 2,15,16
 178 1378 178 1378 202 1474 c 128,-1,17
 226 1570 226 1570 263 1606.5 c 128,-1,18
 300 1643 300 1643 342 1643 c 0,19,20
 404 1643 404 1643 451 1553 c 1,21,-1
 416 1398 l 1,22,23
 408 1398 408 1398 406 1421 c 0,24,25
 395 1519 395 1519 350 1519 c 0,26,27
 313 1519 313 1519 298.5 1438.5 c 128,-1,28
 284 1358 284 1358 278 1179 c 2,29,-1
 272 996 l 1,30,-1
 372 996 l 1,31,-1
 372 872 l 1,32,-1
 267 872 l 1,33,-1
 243 197 l 2,34,35
 239 12 239 12 214 -84 c 128,-1,36
 189 -180 189 -180 154 -213 c 128,-1,37
 119 -246 119 -246 82 -246 c 0,0,1
EndSplineSet
EndChar

StartChar: uni20B2
Encoding: 8370 8370 603
Width: 515
VWidth: 2441
GlyphClass: 1
Flags: HW
LayerCount: 2
Fore
SplineSet
140 778 m 0,0,1
 140 548 140 548 163 396 c 128,-1,2
 186 244 186 244 221 179 c 1,3,-1
 221 1365 l 1,4,5
 182 1323 182 1323 161 1187 c 128,-1,6
 140 1051 140 1051 140 778 c 0,0,1
221 -173 m 1,7,-1
 221 -12 l 1,8,9
 133 32 133 32 82.5 217.5 c 128,-1,10
 32 403 32 403 32 743 c 1,11,12
 36 1041 36 1041 60.5 1206.5 c 128,-1,13
 85 1372 85 1372 126.5 1444 c 128,-1,14
 168 1516 168 1516 221 1531 c 1,15,-1
 221 1647 l 1,16,-1
 311 1647 l 1,17,-1
 311 1533 l 1,18,19
 379 1516 379 1516 418.5 1455 c 128,-1,20
 458 1394 458 1394 472 1314 c 1,21,-1
 427 1172 l 1,22,23
 419 1182 419 1182 409.5 1226 c 128,-1,24
 400 1270 400 1270 378 1315 c 128,-1,25
 356 1360 356 1360 311 1379 c 1,26,-1
 311 135 l 1,27,28
 331 142 331 142 350.5 164 c 128,-1,29
 370 186 370 186 388 219 c 1,30,-1
 388 594 l 1,31,-1
 344 594 l 1,32,-1
 344 730 l 1,33,-1
 480 730 l 1,34,-1
 480 135 l 1,35,36
 441 69 441 69 397.5 29.5 c 128,-1,37
 354 -10 354 -10 311 -19 c 1,38,-1
 311 -173 l 1,39,-1
 221 -173 l 1,7,-1
EndSplineSet
EndChar

StartChar: uni20AD
Encoding: 8365 8365 604
Width: 435
VWidth: 2441
GlyphClass: 1
Flags: HW
LayerCount: 2
Fore
SplineSet
164 725 m 1,0,-1
 127 598 l 1,1,-1
 127 0 l 1,2,-1
 33 0 l 1,3,-1
 33 799 l 1,4,-1
 -16 799 l 1,5,-1
 -16 923 l 1,6,-1
 33 923 l 1,7,-1
 33 1521 l 1,8,-1
 144 1521 l 1,9,-1
 144 1504 l 1,10,11
 133 1490 133 1490 130 1473 c 128,-1,12
 127 1456 127 1456 127 1414 c 2,13,-1
 127 830 l 1,14,-1
 320 1533 l 1,15,16
 329 1528 329 1528 354.5 1524.5 c 128,-1,17
 380 1521 380 1521 393 1521 c 2,18,-1
 417 1521 l 1,19,-1
 252 923 l 1,20,-1
 389 923 l 1,21,-1
 389 799 l 1,22,-1
 241 799 l 1,23,-1
 432 0 l 1,24,-1
 328 -10 l 1,25,-1
 164 725 l 1,0,-1
EndSplineSet
EndChar

StartChar: uni20BA
Encoding: 8378 8378 606
Width: 534
VWidth: 2441
GlyphClass: 1
Flags: HW
LayerCount: 2
Fore
SplineSet
105 0 m 1,0,-1
 105 676 l 1,1,-1
 27 610 l 1,2,-1
 27 740 l 1,3,-1
 105 806 l 1,4,-1
 105 962 l 1,5,-1
 27 896 l 1,6,-1
 27 1025 l 1,7,-1
 105 1091 l 1,8,-1
 105 1521 l 1,9,-1
 221 1521 l 1,10,11
 221 1497 221 1497 216 1487 c 128,-1,12
 211 1477 211 1477 211 1438 c 2,13,-1
 211 1179 l 1,14,-1
 378 1318 l 1,15,-1
 378 1189 l 1,16,-1
 211 1050 l 1,17,-1
 211 894 l 1,18,-1
 378 1032 l 1,19,-1
 378 904 l 1,20,-1
 211 764 l 1,21,-1
 211 149 l 1,22,23
 266 149 266 149 302.5 183 c 128,-1,24
 339 217 339 217 356.5 307.5 c 128,-1,25
 374 398 374 398 374 561 c 1,26,-1
 475 561 l 1,27,28
 475 337 475 337 446.5 215 c 128,-1,29
 418 93 418 93 355 46.5 c 128,-1,30
 292 0 292 0 186 0 c 2,31,-1
 105 0 l 1,0,-1
EndSplineSet
EndChar

StartChar: uni20BC
Encoding: 8380 8380 607
Width: 512
VWidth: 2441
GlyphClass: 1
Flags: HW
LayerCount: 2
Fore
SplineSet
208 242 m 1,0,-1
 208 1274 l 1,1,2
 162 1237 162 1237 146 1132.5 c 128,-1,3
 130 1028 130 1028 130 876 c 2,4,-1
 130 79 l 2,5,6
 130 47 130 47 133 30.5 c 128,-1,7
 136 14 136 14 136 0 c 1,8,-1
 32 0 l 1,9,-1
 32 874 l 2,10,11
 32 1067 32 1067 53 1183 c 128,-1,12
 74 1299 74 1299 114 1354 c 128,-1,13
 154 1409 154 1409 208 1421 c 1,14,-1
 208 1624 l 1,15,-1
 302 1624 l 1,16,-1
 302 1421 l 1,17,18
 354 1407 354 1407 394 1350 c 128,-1,19
 434 1293 434 1293 457 1177.5 c 128,-1,20
 480 1062 480 1062 480 867 c 2,21,-1
 480 0 l 1,22,-1
 386 0 l 1,23,-1
 386 869 l 2,24,25
 386 1030 386 1030 369 1136 c 128,-1,26
 352 1242 352 1242 302 1274 c 1,27,-1
 302 242 l 1,28,-1
 208 242 l 1,0,-1
EndSplineSet
EndChar

StartChar: uni20A6
Encoding: 8358 8358 608
Width: 445
VWidth: 2441
GlyphClass: 2
Flags: HW
AnchorPoint: "Anchor-2" 211 0 basechar 0
AnchorPoint: "Anchor-0" 211 1521 basechar 0
LayerCount: 2
Fore
SplineSet
305 466 m 1,0,-1
 305 696 l 1,1,-1
 263 696 l 1,2,-1
 305 466 l 1,0,-1
114 1123 m 1,3,-1
 114 820 l 1,4,-1
 168 820 l 1,5,-1
 114 1123 l 1,3,-1
-11 696 m 1,6,-1
 -11 820 l 1,7,-1
 39 820 l 1,8,-1
 39 1521 l 1,9,-1
 118 1521 l 1,10,-1
 241 820 l 1,11,-1
 305 820 l 1,12,-1
 305 1521 l 1,13,-1
 398 1521 l 1,14,-1
 398 1504 l 1,15,16
 387 1490 387 1490 383.5 1473 c 128,-1,17
 380 1456 380 1456 380 1414 c 2,18,-1
 380 820 l 1,19,-1
 437 820 l 1,20,-1
 437 696 l 1,21,-1
 380 696 l 1,22,-1
 380 0 l 1,23,-1
 313 0 l 1,24,-1
 188 696 l 1,25,-1
 114 696 l 1,26,-1
 114 0 l 1,27,-1
 39 0 l 1,28,-1
 39 696 l 1,29,-1
 -11 696 l 1,6,-1
EndSplineSet
EndChar

StartChar: peseta
Encoding: 8359 8359 609
Width: 487
VWidth: 2441
GlyphClass: 1
Flags: HW
LayerCount: 2
Fore
SplineSet
226 -30 m 0,0,1
 175 -30 175 -30 157 37.5 c 128,-1,2
 142.272727273 92.7272727273 142.272727273 92.7272727273 142.272727273 228.619834711 c 0,0,0
 142.272727273 258.818181818 142.272727273 258.818181818 143 293 c 2,3,-1
 149 522 l 1,4,-1
 103 522 l 1,5,-1
 109 632 l 1,6,-1
 151 632 l 1,7,-1
 151 745 l 1,8,-1
 218 769 l 1,9,-1
 238 774 l 1,10,-1
 242 759 l 1,11,12
 234 742 234 742 226 722.5 c 128,-1,13
 218 703 218 703 218 662 c 2,14,-1
 218 632 l 1,15,-1
 270 632 l 1,16,-1
 262 522 l 1,17,-1
 216 522 l 1,18,-1
 210 310 l 2,19,20
 208.4 257.2 208.4 257.2 208.4 218.56 c 0,0,0
 208.4 160.6 208.4 160.6 212 134.5 c 128,-1,21
 218 91 218 91 232 91 c 0,22,23
 248 91 248 91 264 114 c 1,24,-1
 286 210 l 1,25,-1
 289 230 l 1,26,-1
 299 224 l 1,27,28
 307 212 307 212 303 186.5 c 128,-1,29
 299 161 299 161 310 132 c 0,30,31
 318 108 318 108 328.5 93.5 c 128,-1,32
 339 79 339 79 359 79 c 0,33,34
 375 79 375 79 388 104.5 c 128,-1,35
 401 130 401 130 401 161 c 0,36,37
 401 196 401 196 396 224 c 128,-1,38
 391 252 391 252 361 275 c 0,39,40
 319 310 319 310 297.5 354 c 128,-1,41
 276 398 276 398 276 473 c 0,42,43
 276 556 276 556 300.5 601.5 c 128,-1,44
 325 647 325 647 363 647 c 0,45,46
 397 647 397 647 420 622.5 c 128,-1,47
 443 598 443 598 462 557 c 1,48,-1
 431 459 l 1,49,-1
 424 437 l 1,50,-1
 416 440 l 1,51,52
 416 457 416 457 417 473 c 128,-1,53
 418 489 418 489 411 505 c 0,54,55
 394 535 394 535 369 535 c 0,56,57
 339 535 339 535 339 476 c 0,58,59
 339 446 339 446 346 427 c 128,-1,60
 353 408 353 408 381 380 c 0,61,62
 427 338 427 338 445.5 293.5 c 128,-1,63
 464 249 464 249 464 179 c 0,64,65
 464 84 464 84 436.5 24.5 c 128,-1,66
 409 -35 409 -35 363 -35 c 0,67,68
 319 -35 319 -35 288 17 c 1,69,70
 260 -30 260 -30 226 -30 c 0,0,1
101 888 m 2,71,72
 149 888 149 888 165 960 c 128,-1,73
 181 1032 181 1032 181 1153 c 0,74,75
 181 1246 181 1246 165 1318.5 c 128,-1,76
 149 1391 149 1391 103 1391 c 2,77,-1
 95 1391 l 1,78,-1
 95 888 l 1,79,-1
 101 888 l 2,71,72
16 1521 m 1,80,-1
 105 1521 l 2,81,82
 153 1521 153 1521 188 1471 c 128,-1,83
 223 1421 223 1421 241 1338 c 128,-1,84
 259 1255 259 1255 259 1158 c 0,85,86
 259 995 259 995 219 882 c 128,-1,87
 179 769 179 769 109 769 c 2,88,-1
 95 769 l 1,89,-1
 95 0 l 1,90,-1
 16 0 l 1,91,-1
 16 1521 l 1,80,-1
EndSplineSet
EndChar

StartChar: uni20B1
Encoding: 8369 8369 610
Width: 431
VWidth: 2441
GlyphClass: 2
Flags: HW
AnchorPoint: "Anchor-2" 54 0 basechar 0
AnchorPoint: "Anchor-0" 201 1521 basechar 0
LayerCount: 2
Fore
SplineSet
112 806 m 1,0,-1
 188 806 l 2,1,2
 227 806 227 806 252.5 842.5 c 128,-1,3
 278 879 278 879 291 939 c 1,4,-1
 112 939 l 1,5,-1
 112 806 l 1,0,-1
306 1094 m 0,6,7
 306 1118 306 1118 306 1137 c 1,8,-1
 112 1137 l 1,9,-1
 112 1039 l 1,10,-1
 304 1039 l 1,11,12
 306 1067 306 1067 306 1094 c 0,6,7
112 1384 m 1,13,-1
 112 1237 l 1,14,-1
 296 1237 l 1,15,16
 270 1384 270 1384 188 1384 c 2,17,-1
 112 1384 l 1,13,-1
17 0 m 1,18,-1
 17 939 l 1,19,-1
 -18 939 l 1,20,-1
 -18 1039 l 1,21,-1
 17 1039 l 1,22,-1
 17 1137 l 1,23,-1
 -18 1137 l 1,24,-1
 -18 1237 l 1,25,-1
 17 1237 l 1,26,-1
 17 1521 l 1,27,-1
 190 1521 l 2,28,29
 362 1521 362 1521 391 1237 c 1,30,-1
 430 1237 l 1,31,-1
 430 1137 l 1,32,-1
 398 1137 l 1,33,34
 398 1118 398 1118 398 1099 c 0,35,36
 398 1067 398 1067 397 1039 c 1,37,-1
 430 1039 l 1,38,-1
 430 939 l 1,39,-1
 388 939 l 1,40,41
 370 804 370 804 318 736.5 c 128,-1,42
 266 669 266 669 195 669 c 2,43,-1
 112 669 l 1,44,-1
 112 0 l 1,45,-1
 17 0 l 1,18,-1
EndSplineSet
EndChar

StartChar: uni20BD
Encoding: 8381 8381 611
Width: 486
VWidth: 2441
GlyphClass: 2
Flags: HW
AnchorPoint: "Anchor-2" 94 0 basechar 0
AnchorPoint: "Anchor-0" 250 1521 basechar 0
LayerCount: 2
Fore
SplineSet
156 806 m 1,0,-1
 237 806 l 2,1,2
 301 806 301 806 332 886.5 c 128,-1,3
 363 967 363 967 363 1094 c 0,4,5
 363 1245 363 1245 330 1314.5 c 128,-1,6
 297 1384 297 1384 237 1384 c 2,7,-1
 156 1384 l 1,8,-1
 156 806 l 1,0,-1
54 0 m 1,9,-1
 54 384 l 1,10,-1
 13 384 l 1,11,-1
 13 517 l 1,12,-1
 54 517 l 1,13,-1
 54 671 l 1,14,-1
 13 671 l 1,15,-1
 13 806 l 1,16,-1
 54 806 l 1,17,-1
 54 1521 l 1,18,-1
 238 1521 l 2,19,20
 461 1521 461 1521 461 1099 c 0,21,22
 461 884 461 884 400 776.5 c 128,-1,23
 339 669 339 669 244 669 c 2,24,-1
 156 669 l 1,25,-1
 156 517 l 1,26,-1
 290 517 l 1,27,-1
 290 384 l 1,28,-1
 156 384 l 1,29,-1
 156 0 l 1,30,-1
 54 0 l 1,9,-1
EndSplineSet
EndChar

StartChar: uni20B9
Encoding: 8377 8377 612
Width: 512
VWidth: 2441
GlyphClass: 1
Flags: HW
LayerCount: 2
Fore
SplineSet
32 815 m 1,0,-1
 181 815 l 2,1,2
 242 815 242 815 269.5 869 c 128,-1,3
 297 923 297 923 303 1011 c 1,4,-1
 32 1011 l 1,5,-1
 32 1146 l 1,6,-1
 303 1146 l 1,7,8
 299 1239 299 1239 271.5 1303 c 128,-1,9
 244 1367 244 1367 181 1367 c 2,10,-1
 32 1367 l 1,11,-1
 32 1514 l 1,12,-1
 480 1514 l 1,13,-1
 480 1379 l 1,14,-1
 340 1379 l 1,15,16
 397 1293 397 1293 411 1146 c 1,17,-1
 480 1146 l 1,18,-1
 480 1011 l 1,19,-1
 413 1011 l 1,20,21
 404 904 404 904 365.5 815.5 c 128,-1,22
 327 727 327 727 270 699 c 1,23,-1
 428 0 l 1,24,-1
 321 0 l 1,25,-1
 170 678 l 1,26,-1
 32 678 l 1,27,-1
 32 815 l 1,0,-1
EndSplineSet
EndChar

StartChar: sterling
Encoding: 163 163 613
Width: 512
VWidth: 2441
GlyphClass: 1
Flags: HW
LayerCount: 2
Fore
SplineSet
76 -19 m 1,0,-1
 32 119 l 1,1,2
 76 168 76 168 95.5 221.5 c 128,-1,3
 115 275 115 275 121.5 351 c 128,-1,4
 128 427 128 427 128 542 c 0,5,6
 128 588 128 588 124 649 c 128,-1,7
 120 710 120 710 111 786 c 1,8,-1
 52 786 l 1,9,-1
 52 923 l 1,10,-1
 96 923 l 1,11,12
 90 1009 90 1009 90 1079 c 0,13,14
 90 1323 90 1323 148.5 1422 c 128,-1,15
 207 1521 207 1521 293 1521 c 0,16,17
 331 1521 331 1521 371.5 1487 c 128,-1,18
 412 1453 412 1453 440 1389 c 1,19,-1
 376 1274 l 1,20,21
 358 1323 358 1323 341 1354.5 c 128,-1,22
 324 1386 324 1386 287 1386 c 0,23,24
 247 1386 247 1386 222 1303.5 c 128,-1,25
 197 1221 197 1221 197 1081 c 0,26,27
 197 1049 197 1049 200 1010.5 c 128,-1,28
 203 972 203 972 205 923 c 1,29,-1
 322 923 l 1,30,-1
 322 786 l 1,31,-1
 219 786 l 1,32,33
 227 718 227 718 231 657 c 128,-1,34
 235 596 235 596 235 547 c 0,35,36
 235 454 235 454 230 362.5 c 128,-1,37
 225 271 225 271 207 200 c 1,38,39
 241 207 241 207 266 186.5 c 128,-1,40
 291 166 291 166 314.5 142.5 c 128,-1,41
 338 119 338 119 366 119 c 0,42,43
 386 119 386 119 413 131.5 c 128,-1,44
 440 144 440 144 456 170 c 1,45,-1
 480 27 l 1,46,47
 453 -10 453 -10 427 -23.5 c 128,-1,48
 401 -37 401 -37 374 -37 c 0,49,50
 340 -37 340 -37 305.5 -9 c 128,-1,51
 271 19 271 19 240 46 c 128,-1,52
 209 73 209 73 180 73 c 0,53,54
 157 73 157 73 135.5 50 c 128,-1,55
 114 27 114 27 76 -19 c 1,0,-1
EndSplineSet
EndChar

StartChar: uni20A9
Encoding: 8361 8361 614
Width: 445
VWidth: 2441
GlyphClass: 2
Flags: HW
AnchorPoint: "Anchor-2" 213 0 basechar 0
AnchorPoint: "Anchor-0" 217 1521 basechar 0
LayerCount: 2
Fore
SplineSet
303 615 m 1,0,-1
 307 720 l 1,1,-1
 294 720 l 1,2,-1
 303 615 l 1,0,-1
127 615 m 1,3,-1
 136 720 l 1,4,-1
 121 720 l 1,5,-1
 127 615 l 1,3,-1
213 920 m 1,6,-1
 204 818 l 1,7,-1
 220 818 l 1,8,-1
 213 920 l 1,6,-1
95 0 m 1,9,-1
 55 720 l 1,10,-1
 -11 720 l 1,11,-1
 -11 818 l 1,12,-1
 50 818 l 1,13,-1
 12 1521 l 1,14,-1
 87 1521 l 1,15,-1
 118 818 l 1,16,-1
 145 818 l 1,17,-1
 200 1409 l 1,18,-1
 234 1409 l 1,19,-1
 286 818 l 1,20,-1
 313 818 l 1,21,-1
 339 1521 l 1,22,-1
 410 1521 l 1,23,-1
 373 818 l 1,24,-1
 437 818 l 1,25,-1
 437 720 l 1,26,-1
 367 720 l 1,27,-1
 328 0 l 1,28,-1
 288 0 l 1,29,-1
 230 720 l 1,30,-1
 196 720 l 1,31,-1
 136 0 l 1,32,-1
 95 0 l 1,9,-1
EndSplineSet
EndChar

StartChar: yen
Encoding: 165 165 615
Width: 512
VWidth: 2441
GlyphClass: 1
Flags: HW
LayerCount: 2
Fore
SplineSet
317 0 m 1,0,-1
 211 0 l 1,1,-1
 211 240 l 1,2,-1
 82 240 l 1,3,-1
 82 376 l 1,4,-1
 211 376 l 1,5,-1
 211 529 l 1,6,-1
 82 529 l 1,7,-1
 82 669 l 1,8,-1
 211 669 l 1,9,-1
 211 720 l 1,10,-1
 32 1523 l 1,11,-1
 134 1523 l 1,12,-1
 263 916 l 1,13,-1
 382 1521 l 1,14,-1
 480 1521 l 1,15,-1
 317 720 l 1,16,-1
 317 669 l 1,17,-1
 438 669 l 1,18,-1
 438 529 l 1,19,-1
 317 529 l 1,20,-1
 317 376 l 1,21,-1
 438 376 l 1,22,-1
 438 240 l 1,23,-1
 317 240 l 1,24,-1
 317 0 l 1,0,-1
EndSplineSet
EndChar

StartChar: asteriskmath
Encoding: 8727 8727 616
Width: 512
VWidth: 2441
GlyphClass: 1
Flags: HW
LayerCount: 2
Fore
SplineSet
137 333 m 1,0,-1
 65 417 l 1,1,-1
 204 801 l 1,2,-1
 32 930 l 1,3,-1
 69 1060 l 1,4,-1
 220 908 l 1,5,-1
 208 1340 l 1,6,-1
 308 1340 l 1,7,-1
 290 908 l 1,8,-1
 452 1060 l 1,9,-1
 480 930 l 1,10,-1
 298 801 l 1,11,-1
 445 417 l 1,12,-1
 373 335 l 1,13,-1
 253 706 l 1,14,-1
 137 333 l 1,0,-1
EndSplineSet
EndChar

StartChar: uni2215
Encoding: 8725 8725 618
Width: 509
VWidth: 2408
GlyphClass: 1
Flags: HW
LayerCount: 2
Fore
SplineSet
123 -246 m 1,0,-1
 31 -224 l 1,1,-1
 387 1897 l 1,2,-1
 479 1872 l 1,3,-1
 123 -246 l 1,0,-1
EndSplineSet
EndChar

StartChar: element
Encoding: 8712 8712 619
Width: 512
VWidth: 2441
GlyphClass: 1
Flags: HW
LayerCount: 2
Fore
SplineSet
337 10 m 2,0,1
 194 10 194 10 113 145.5 c 128,-1,2
 32 281 32 281 32 550 c 0,3,4
 32 818 32 818 114 962 c 128,-1,5
 196 1106 196 1106 335 1106 c 2,6,-1
 480 1106 l 1,7,-1
 480 1009 l 1,8,-1
 352 1009 l 2,9,10
 240 1009 240 1009 182 904 c 128,-1,11
 124 799 124 799 118 601 c 1,12,-1
 480 601 l 1,13,-1
 480 503 l 1,14,-1
 118 503 l 1,15,16
 124 305 124 305 179.5 206 c 128,-1,17
 235 107 235 107 352 107 c 2,18,-1
 480 107 l 1,19,-1
 480 10 l 1,20,-1
 337 10 l 2,0,1
EndSplineSet
EndChar

StartChar: plus
Encoding: 43 43 621
Width: 512
VWidth: 2441
GlyphClass: 1
Flags: HW
LayerCount: 2
Fore
SplineSet
212 254 m 1,0,-1
 212 718 l 1,1,-1
 32 718 l 1,2,-1
 32 852 l 1,3,-1
 212 852 l 1,4,-1
 212 1277 l 1,5,-1
 306 1277 l 1,6,-1
 306 852 l 1,7,-1
 480 852 l 1,8,-1
 480 718 l 1,9,-1
 306 718 l 1,10,-1
 306 254 l 1,11,-1
 212 254 l 1,0,-1
EndSplineSet
EndChar

StartChar: minus
Encoding: 8722 8722 622
Width: 512
VWidth: 2441
GlyphClass: 1
Flags: HW
LayerCount: 2
Fore
SplineSet
32 718 m 1,0,-1
 32 852 l 1,1,-1
 480 852 l 1,2,-1
 480 718 l 1,3,-1
 32 718 l 1,0,-1
EndSplineSet
Substitution2: "'sups' Superscript in Latin lookup 20 subtable" uni207B
Substitution2: "'aalt' Access All Alternates in Latin lookup 0 subtable" uni207B
EndChar

StartChar: multiply
Encoding: 215 215 623
Width: 509
VWidth: 2441
GlyphClass: 1
Flags: HW
LayerCount: 2
Fore
SplineSet
398 329 m 1,0,-1
 249 664 l 1,1,-1
 105 340 l 1,2,-1
 32 447 l 1,3,-1
 188 792 l 1,4,-1
 32 1140 l 1,5,-1
 107 1253 l 1,6,-1
 251 920 l 1,7,-1
 400 1253 l 1,8,-1
 477 1146 l 1,9,-1
 315 794 l 1,10,-1
 474 442 l 1,11,-1
 398 329 l 1,0,-1
EndSplineSet
EndChar

StartChar: divide
Encoding: 247 247 624
Width: 503
VWidth: 2441
GlyphClass: 1
Flags: HW
LayerCount: 2
Fore
SplineSet
254 275 m 0,0,1
 227 275 227 275 207.5 301 c 128,-1,2
 188 327 188 327 188 359 c 0,3,4
 188 394 188 394 209 420.5 c 128,-1,5
 230 447 230 447 254 447 c 0,6,7
 284 447 284 447 303 420 c 128,-1,8
 322 393 322 393 322 359 c 0,9,10
 322 327 322 327 303 301 c 128,-1,11
 284 275 284 275 254 275 c 0,0,1
32 685 m 1,12,-1
 32 850 l 1,13,-1
 471 850 l 1,14,-1
 471 685 l 1,15,-1
 32 685 l 1,12,-1
254 1076 m 0,16,17
 227 1076 227 1076 207.5 1102 c 128,-1,18
 188 1128 188 1128 188 1160 c 0,19,20
 188 1195 188 1195 209 1221.5 c 128,-1,21
 230 1248 230 1248 254 1248 c 0,22,23
 284 1248 284 1248 303 1220.5 c 128,-1,24
 322 1193 322 1193 322 1160 c 0,25,26
 322 1128 322 1128 303 1102 c 128,-1,27
 284 1076 284 1076 254 1076 c 0,16,17
EndSplineSet
EndChar

StartChar: equal
Encoding: 61 61 625
Width: 512
VWidth: 2441
GlyphClass: 1
Flags: HW
LayerCount: 2
Fore
SplineSet
32 449 m 1,0,-1
 32 591 l 1,1,-1
 480 591 l 1,2,-1
 480 449 l 1,3,-1
 32 449 l 1,0,-1
32 955 m 1,4,-1
 32 1097 l 1,5,-1
 480 1097 l 1,6,-1
 480 955 l 1,7,-1
 32 955 l 1,4,-1
EndSplineSet
EndChar

StartChar: notequal
Encoding: 8800 8800 626
Width: 512
VWidth: 2441
GlyphClass: 1
Flags: HW
LayerCount: 2
Fore
SplineSet
32 449 m 1,0,-1
 32 591 l 1,1,-1
 158 591 l 1,2,-1
 245 955 l 1,3,-1
 32 955 l 1,4,-1
 32 1097 l 1,5,-1
 280 1097 l 1,6,-1
 366 1458 l 1,7,-1
 456 1396 l 1,8,-1
 384 1097 l 1,9,-1
 480 1097 l 1,10,-1
 480 955 l 1,11,-1
 349 955 l 1,12,-1
 262 591 l 1,13,-1
 480 591 l 1,14,-1
 480 449 l 1,15,-1
 229 449 l 1,16,-1
 143 88 l 1,17,-1
 52 147 l 1,18,-1
 123 449 l 1,19,-1
 32 449 l 1,0,-1
EndSplineSet
EndChar

StartChar: greater
Encoding: 62 62 627
Width: 512
VWidth: 2441
GlyphClass: 1
Flags: HW
LayerCount: 2
Fore
SplineSet
32 114 m 1,0,-1
 32 300 l 1,1,-1
 388 778 l 1,2,-1
 34 1211 l 1,3,-1
 34 1384 l 1,4,-1
 480 832 l 1,5,-1
 480 730 l 1,6,-1
 32 114 l 1,0,-1
EndSplineSet
EndChar

StartChar: less
Encoding: 60 60 628
Width: 512
VWidth: 2441
GlyphClass: 1
Flags: HW
LayerCount: 2
Fore
SplineSet
480 114 m 1,0,-1
 32 730 l 1,1,-1
 32 832 l 1,2,-1
 478 1384 l 1,3,-1
 478 1211 l 1,4,-1
 124 778 l 1,5,-1
 480 300 l 1,6,-1
 480 114 l 1,0,-1
EndSplineSet
EndChar

StartChar: lessequal
Encoding: 8804 8804 630
Width: 512
VWidth: 2441
GlyphClass: 1
Flags: HW
LayerCount: 2
Fore
SplineSet
42 51 m 1,0,-1
 42 186 l 1,1,-1
 480 186 l 1,2,-1
 480 51 l 1,3,-1
 42 51 l 1,0,-1
480 261 m 1,4,-1
 32 747 l 1,5,-1
 32 864 l 1,6,-1
 480 1286 l 1,7,-1
 480 1113 l 1,8,-1
 119 806 l 1,9,-1
 480 435 l 1,10,-1
 480 261 l 1,4,-1
EndSplineSet
EndChar

StartChar: plusminus
Encoding: 177 177 631
Width: 512
VWidth: 2441
GlyphClass: 1
Flags: HW
LayerCount: 2
Fore
SplineSet
32 42 m 1,0,-1
 32 196 l 1,1,-1
 480 196 l 1,2,-1
 480 42 l 1,3,-1
 32 42 l 1,0,-1
202 378 m 1,4,-1
 202 837 l 1,5,-1
 32 837 l 1,6,-1
 32 986 l 1,7,-1
 202 986 l 1,8,-1
 202 1404 l 1,9,-1
 312 1404 l 1,10,-1
 312 986 l 1,11,-1
 478 986 l 1,12,-1
 478 837 l 1,13,-1
 312 837 l 1,14,-1
 312 378 l 1,15,-1
 202 378 l 1,4,-1
EndSplineSet
EndChar

StartChar: asciitilde
Encoding: 126 126 633
Width: 512
VWidth: 2441
GlyphClass: 1
Flags: HW
LayerCount: 2
Fore
SplineSet
349 650 m 128,-1,1
 308 650 308 650 278 682.5 c 128,-1,2
 248 715 248 715 225.5 746.5 c 128,-1,3
 203 778 203 778 185 778 c 128,-1,4
 167 778 167 778 149 755 c 128,-1,5
 131 732 131 732 112 666 c 1,6,-1
 32 720 l 1,7,8
 50 803 50 803 87 859.5 c 128,-1,9
 124 916 124 916 176 916 c 0,10,11
 221 916 221 916 248 880.5 c 128,-1,12
 275 845 275 845 296.5 808 c 128,-1,13
 318 771 318 771 340 771 c 0,14,15
 358 771 358 771 370.5 801.5 c 128,-1,16
 383 832 383 832 404 901 c 1,17,-1
 480 832 l 1,18,19
 450 729 450 729 420 689.5 c 128,-1,0
 390 650 390 650 349 650 c 128,-1,1
EndSplineSet
Substitution2: "'ss01' Style Set 1 in Latin lookup 35 subtable" asciitilde.ss01
Substitution2: "'salt' Stylistic Alternatives in Latin lookup 34 subtable" asciitilde.ss01
Substitution2: "'aalt' Access All Alternates in Latin lookup 0 subtable" asciitilde.ss01
EndChar

StartChar: logicalnot
Encoding: 172 172 634
Width: 457
VWidth: 2441
GlyphClass: 1
Flags: HW
LayerCount: 2
Fore
SplineSet
298 384 m 1,0,-1
 298 694 l 1,1,-1
 32 694 l 1,2,-1
 32 848 l 1,3,-1
 425 848 l 1,4,-1
 425 384 l 1,5,-1
 298 384 l 1,0,-1
EndSplineSet
EndChar

StartChar: asciicircum
Encoding: 94 94 635
Width: 467
VWidth: 2441
GlyphClass: 1
Flags: HW
LayerCount: 2
Fore
SplineSet
115 837 m 1,0,-1
 32 876 l 1,1,-1
 223 1521 l 1,2,-1
 269 1521 l 1,3,-1
 435 879 l 1,4,-1
 349 837 l 1,5,-1
 239 1240 l 1,6,-1
 115 837 l 1,0,-1
EndSplineSet
Substitution2: "'ss01' Style Set 1 in Latin lookup 35 subtable" asciicircum.ss01
Substitution2: "'salt' Stylistic Alternatives in Latin lookup 34 subtable" asciicircum.ss01
Substitution2: "'aalt' Access All Alternates in Latin lookup 0 subtable" asciicircum.ss01
EndChar

StartChar: infinity
Encoding: 8734 8734 636
Width: 438
VWidth: 2441
GlyphClass: 1
Flags: HW
LayerCount: 2
Fore
SplineSet
358 737 m 0,0,1
 358 816 358 816 346.5 862 c 128,-1,2
 335 908 335 908 310 908 c 0,3,4
 276 908 276 908 248 737 c 1,5,6
 276 567 276 567 308 566 c 0,7,8
 336 566 336 566 347 615 c 128,-1,9
 358 664 358 664 358 737 c 0,0,1
168 740 m 1,10,11
 155 835 155 835 141 873 c 128,-1,12
 127 911 127 911 108 911 c 0,13,14
 82 911 82 911 70 863 c 128,-1,15
 58 815 58 815 58 740 c 128,-1,16
 58 665 58 665 70.5 617 c 128,-1,17
 83 569 83 569 108 569 c 0,18,19
 131 569 131 569 144 614 c 128,-1,20
 157 659 157 659 168 740 c 1,10,11
432 737 m 0,21,22
 432 605 432 605 400.5 514.5 c 128,-1,23
 369 424 369 424 319 424 c 0,24,25
 285 424 285 424 257.5 470.5 c 128,-1,26
 230 517 230 517 207 617 c 1,27,28
 159 424 159 424 97 424 c 0,29,30
 49 424 49 424 16.5 513.5 c 128,-1,31
 -16 603 -16 603 -16 737 c 0,32,33
 -16 874 -16 874 16.5 963.5 c 128,-1,34
 49 1053 49 1053 97 1053 c 0,35,36
 131 1053 131 1053 157.5 1010 c 128,-1,37
 184 967 184 967 209 859 c 1,38,39
 252 1052 252 1052 320 1053 c 0,40,41
 368 1053 368 1053 400 967 c 128,-1,42
 432 881 432 881 432 737 c 0,21,22
EndSplineSet
EndChar

StartChar: emptyset
Encoding: 8709 8709 637
Width: 445
VWidth: 2441
GlyphClass: 1
Flags: HW
LayerCount: 2
Fore
SplineSet
211 380 m 0,0,1
 254 380 254 380 283.5 438 c 128,-1,2
 313 496 313 496 327 590.5 c 128,-1,3
 341 685 341 685 341 796 c 0,4,5
 341 908 341 908 326 999 c 1,6,-1
 125 473 l 1,7,8
 159 380 159 380 211 380 c 0,0,1
84 796 m 0,9,10
 84 684 84 684 96 594 c 1,11,-1
 297 1116 l 1,12,13
 263.369565217 1206.01086957 263.369565217 1206.01086957 212.128308129 1206.01086957 c 0,0,0
 211.565217391 1206.01086957 211.565217391 1206.01086957 211 1206 c 0,14,15
 170 1206 170 1206 140.5 1150 c 128,-1,16
 111 1094 111 1094 97.5 1000 c 128,-1,17
 84 906 84 906 84 796 c 0,9,10
40 254 m 1,18,-1
 -11 312 l 1,19,-1
 46 459 l 1,20,21
 7 598 7 598 6 796 c 0,22,23
 6 945 6 945 29.5 1065.5 c 128,-1,24
 53 1186 53 1186 99 1258 c 128,-1,25
 145 1330 145 1330 211 1330 c 0,26,27
 288 1330 288 1330 341 1228 c 1,28,-1
 386 1342 l 1,29,-1
 437 1284 l 1,30,-1
 378 1132 l 1,31,32
 419 993 419 993 420 796 c 0,33,34
 420 649 420 649 395.5 527 c 128,-1,35
 371 405 371 405 325 332 c 128,-1,36
 279 259 279 259 211 259 c 0,37,38
 172 259 172 259 139.5 285.5 c 128,-1,39
 107 312 107 312 82 364 c 1,40,-1
 40 254 l 1,18,-1
EndSplineSet
EndChar

StartChar: integral
Encoding: 8747 8747 638
Width: 444
VWidth: 2358
GlyphClass: 1
Flags: HW
LayerCount: 2
Fore
SplineSet
105 -246 m 0,0,1
 65 -246 65 -246 32 -218 c 1,2,-1
 32 -92 l 1,3,4
 64 -120 64 -120 97 -120 c 0,5,6
 137 -120 137 -120 153.5 -58 c 128,-1,7
 170 4 170 4 170 143 c 2,8,-1
 170 1465 l 2,9,10
 170 1667 170 1667 218.5 1761 c 128,-1,11
 267 1855 267 1855 345 1855 c 0,12,13
 366 1855 366 1855 381.5 1848 c 128,-1,14
 397 1841 397 1841 412 1830 c 1,15,-1
 412 1706 l 1,16,17
 382 1730 382 1730 351 1730 c 0,18,19
 307 1730 307 1730 291 1671 c 128,-1,20
 275 1612 275 1612 275 1448 c 2,21,-1
 275 128 l 2,22,23
 275 -63 275 -63 225 -154.5 c 128,-1,24
 175 -246 175 -246 105 -246 c 0,0,1
EndSplineSet
EndChar

StartChar: uni2126
Encoding: 8486 8486 639
Width: 455
VWidth: 2441
GlyphClass: 1
Flags: HW
LayerCount: 2
Fore
SplineSet
223 1494 m 128,-1,1
 154 1494 154 1494 127.5 1326 c 128,-1,2
 101 1158 101 1158 101 840 c 0,3,4
 101 603 101 603 119 425 c 128,-1,5
 137 247 137 247 190 168 c 1,6,-1
 190 0 l 1,7,-1
 18 0 l 1,8,-1
 18 149 l 1,9,-1
 89 149 l 1,10,11
 45 242 45 242 21 426 c 128,-1,12
 -3 610 -3 610 -3 862 c 0,13,14
 -3 1148 -3 1148 25 1321 c 128,-1,15
 53 1494 53 1494 103.5 1570.5 c 128,-1,16
 154 1647 154 1647 223 1647 c 0,17,18
 290 1647 290 1647 339.5 1571.5 c 128,-1,19
 389 1496 389 1496 417 1323 c 128,-1,20
 445 1150 445 1150 445 859 c 0,21,22
 445 615 445 615 421 427.5 c 128,-1,23
 397 240 397 240 353 149 c 1,24,-1
 425 149 l 1,25,-1
 425 0 l 1,26,-1
 252 0 l 1,27,-1
 252 168 l 1,28,29
 317 254 317 254 330 430 c 128,-1,30
 343 606 343 606 343 837 c 0,31,32
 343 1161 343 1161 317.5 1327.5 c 128,-1,0
 292 1494 292 1494 223 1494 c 128,-1,1
EndSplineSet
EndChar

StartChar: uni2206
Encoding: 8710 8710 640
Width: 512
VWidth: 2441
GlyphClass: 1
Flags: HW
LayerCount: 2
Fore
SplineSet
374 137 m 1,0,-1
 258 1358 l 1,1,-1
 138 137 l 1,2,-1
 374 137 l 1,0,-1
313 1624 m 1,3,-1
 480 103 l 1,4,-1
 480 2 l 1,5,-1
 32 2 l 1,6,-1
 32 105 l 1,7,-1
 201 1624 l 1,8,-1
 313 1624 l 1,3,-1
EndSplineSet
EndChar

StartChar: product
Encoding: 8719 8719 641
Width: 493
VWidth: 2339
GlyphClass: 1
Flags: HW
LayerCount: 2
Fore
SplineSet
32 -246 m 1,0,-1
 32 1521 l 1,1,-1
 461 1521 l 1,2,3
 461 1506 461 1506 457.5 1495 c 128,-1,4
 454 1484 454 1484 454 1473 c 2,5,-1
 454 -246 l 1,6,-1
 345 -246 l 1,7,-1
 345 1401 l 1,8,-1
 143 1401 l 1,9,-1
 143 -246 l 1,10,-1
 32 -246 l 1,0,-1
EndSplineSet
EndChar

StartChar: summation
Encoding: 8721 8721 642
Width: 512
VWidth: 2372
GlyphClass: 1
Flags: HW
LayerCount: 2
Fore
SplineSet
32 -246 m 1,0,-1
 32 -132 l 1,1,-1
 238 693 l 1,2,-1
 32 1503 l 1,3,-1
 32 1631 l 1,4,-1
 480 1631 l 1,5,-1
 480 1505 l 1,6,-1
 151 1505 l 1,7,-1
 352 698 l 1,8,-1
 145 -121 l 1,9,-1
 480 -121 l 1,10,-1
 480 -246 l 1,11,-1
 32 -246 l 1,0,-1
EndSplineSet
EndChar

StartChar: radical
Encoding: 8730 8730 643
Width: 407
VWidth: 2441
GlyphClass: 1
Flags: HW
LayerCount: 2
Fore
SplineSet
128 -17 m 1,0,-1
 32 703 l 1,1,-1
 -31 703 l 1,2,-1
 -31 827 l 1,3,-1
 106 827 l 1,4,-1
 169 266 l 1,5,-1
 329 1647 l 1,6,-1
 417 1647 l 1,7,-1
 211 -17 l 1,8,-1
 128 -17 l 1,0,-1
EndSplineSet
EndChar

StartChar: uni00B5
Encoding: 181 181 644
Width: 446
VWidth: 2299
GlyphClass: 1
Flags: HW
LayerCount: 2
Fore
SplineSet
-4 -246 m 1,0,1
 -4 -209 -4 -209 -2 -130.5 c 128,-1,2
 -0 -52 -0 -52 2.5 46.5 c 128,-1,3
 5 145 5 145 8 245 c 128,-1,4
 11 345 11 345 13 428.5 c 128,-1,5
 15 512 15 512 15 560 c 2,6,-1
 15 1116 l 1,7,-1
 108 1116 l 1,8,-1
 108 524 l 2,9,10
 108 343 108 343 120.5 277.5 c 128,-1,11
 133 212 133 212 169 212 c 0,12,13
 217 212 217 212 234 300.5 c 128,-1,14
 251 389 251 389 251 537 c 2,15,-1
 251 1116 l 1,16,-1
 342 1116 l 1,17,-1
 342 372 l 2,18,19
 342 297 342 297 344 259 c 128,-1,20
 346 221 346 221 366 221 c 0,21,22
 379 221 379 221 392.5 247 c 128,-1,23
 406 273 406 273 411 302 c 2,24,-1
 417 328 l 1,25,-1
 444 216 l 1,26,27
 408.297520661 96.9917355372 408.297520661 96.9917355372 360.792568814 96.9917355372 c 0,0,0
 360.396694215 96.9917355372 360.396694215 96.9917355372 360 97 c 0,28,29
 329 97 329 97 308.5 131.5 c 128,-1,30
 288 166 288 166 284 237 c 1,31,32
 269 167 269 167 236.5 132 c 128,-1,33
 204 97 204 97 167 97 c 0,34,35
 133 97 133 97 113 127.5 c 128,-1,36
 93 158 93 158 84 206 c 1,37,-1
 84 -246 l 1,38,-1
 -4 -246 l 1,0,1
EndSplineSet
EndChar

StartChar: partialdiff
Encoding: 8706 8706 645
Width: 517
VWidth: 2441
GlyphClass: 1
Flags: HW
LayerCount: 2
Fore
SplineSet
228 107 m 0,0,1
 271 107 271 107 301.5 159.5 c 128,-1,2
 332 212 332 212 349.5 299 c 128,-1,3
 367 386 367 386 376 491 c 128,-1,4
 385 596 385 596 387 701 c 1,5,6
 362 827 362 827 327.5 897 c 128,-1,7
 293 967 293 967 249 967 c 0,8,9
 208 967 208 967 182.5 914.5 c 128,-1,10
 157 862 157 862 143 778 c 128,-1,11
 129 694 129 694 126 596 c 128,-1,12
 124.714285714 554 124.714285714 554 124.714285714 513.469387755 c 0,0,0
 124.714285714 459.428571429 124.714285714 459.428571429 127 408 c 0,13,14
 135 259 135 259 158 183 c 128,-1,15
 181 107 181 107 228 107 c 0,0,1
226 -27 m 0,16,17
 137 -27 137 -27 90 96 c 128,-1,18
 43 219 43 219 35 412 c 0,19,20
 32.4285714286 463 32.4285714286 463 32.4285714286 514.459183673 c 0,0,0
 32.4285714286 583.071428571 32.4285714286 583.071428571 37 652.5 c 128,-1,21
 45 774 45 774 69.5 875 c 128,-1,22
 94 976 94 976 134.5 1037.5 c 128,-1,23
 175 1099 175 1099 233 1099 c 0,24,25
 284 1099 284 1099 323.5 1055 c 128,-1,26
 363 1011 363 1011 383 937 c 1,27,28
 385 972 385 972 384 983 c 128,-1,29
 383 994 383 994 381 1025 c 0,30,31
 375 1157 375 1157 360.5 1260 c 128,-1,32
 346 1363 346 1363 317.5 1421 c 128,-1,33
 289 1479 289 1479 237 1479 c 0,34,35
 208 1479 208 1479 174.5 1462 c 128,-1,36
 141 1445 141 1445 117 1411 c 1,37,-1
 111 1556 l 1,38,39
 142 1588 142 1588 174 1601 c 128,-1,40
 206 1614 206 1614 237 1614 c 0,41,42
 312 1614 312 1614 359.5 1555 c 128,-1,43
 407 1496 407 1496 433.5 1365.5 c 128,-1,44
 460 1235 460 1235 474 1016 c 0,45,46
 479.882352941 891.294117647 479.882352941 891.294117647 479.882352941 774.719723183 c 0,0,0
 479.882352941 693.117647059 479.882352941 693.117647059 477 615.5 c 128,-1,47
 470 427 470 427 441.5 283 c 128,-1,48
 413 139 413 139 360 56 c 128,-1,49
 307 -27 307 -27 226 -27 c 0,16,17
EndSplineSet
EndChar

StartChar: percent
Encoding: 37 37 646
Width: 458
VWidth: 2441
GlyphClass: 1
Flags: HW
LayerCount: 2
Fore
SplineSet
336 88 m 0,0,1
 380 88 380 88 380 288 c 0,2,3
 380 374 380 374 371 434 c 128,-1,4
 362 494 362 494 334 494 c 0,5,6
 290 494 290 494 290 293 c 0,7,8
 290 88 290 88 336 88 c 0,0,1
336 -24 m 128,-1,10
 286 -24 286 -24 254.5 57.5 c 128,-1,11
 223 139 223 139 223 291 c 0,12,13
 223 442 223 442 254.5 525 c 128,-1,14
 286 608 286 608 336 608 c 128,-1,15
 386 608 386 608 417 525 c 128,-1,16
 448 442 448 442 448 291 c 128,-1,17
 448 140 448 140 417 58 c 128,-1,9
 386 -24 386 -24 336 -24 c 128,-1,10
113 1030 m 0,18,19
 135 1030 135 1030 145 1077.5 c 128,-1,20
 155 1125 155 1125 155 1230 c 128,-1,21
 155 1335 155 1335 143.5 1383 c 128,-1,22
 132 1431 132 1431 111 1431 c 0,23,24
 92 1431 92 1431 81 1383 c 128,-1,25
 70 1335 70 1335 70 1230 c 0,26,27
 71 1030 71 1030 113 1030 c 0,18,19
17 0 m 1,28,-1
 349 1521 l 1,29,-1
 426 1521 l 1,30,-1
 92 0 l 1,31,-1
 17 0 l 1,28,-1
113 911 m 0,32,33
 65 911 65 911 32.5 992.5 c 128,-1,34
 0 1074 0 1074 0 1230 c 0,35,36
 0 1381 0 1381 32.5 1464 c 128,-1,37
 65 1547 65 1547 113 1547 c 0,38,39
 163 1547 163 1547 194.5 1463 c 128,-1,40
 226 1379 226 1379 226 1228 c 0,41,42
 226 1072 226 1072 195.5 991.5 c 128,-1,43
 165 911 165 911 113 911 c 0,32,33
EndSplineSet
EndChar

StartChar: perthousand
Encoding: 8240 8240 647
Width: 471
VWidth: 2441
GlyphClass: 1
Flags: HW
LayerCount: 2
Fore
SplineSet
351 91 m 128,-1,1
 366 91 366 91 378 135 c 128,-1,2
 390 179 390 179 390 271 c 0,3,4
 390 364 390 364 377.5 408 c 128,-1,5
 365 452 365 452 350 452 c 128,-1,6
 335 452 335 452 323 408 c 128,-1,7
 311 364 311 364 311 271 c 128,-1,8
 311 178 311 178 323.5 134.5 c 128,-1,0
 336 91 336 91 351 91 c 128,-1,1
112 91 m 128,-1,10
 127 91 127 91 139 135 c 128,-1,11
 151 179 151 179 151 271 c 0,12,13
 151 452 151 452 110 452 c 0,14,15
 95 452 95 452 83 408 c 128,-1,16
 71 364 71 364 71 271 c 128,-1,17
 71 178 71 178 84 134.5 c 128,-1,9
 97 91 97 91 112 91 c 128,-1,10
351 -27 m 128,-1,19
 308 -27 308 -27 279.5 48.5 c 128,-1,20
 251 124 251 124 251 271 c 0,21,22
 250.875 278.75 250.875 278.75 250.875 286.349609375 c 0,0,0
 250.875 400.34375 250.875 400.34375 279 480.5 c 128,-1,23
 309 566 309 566 351 566 c 0,24,25
 392 566 392 566 422.5 489 c 128,-1,26
 453 412 453 412 453 268 c 0,27,28
 451 121 451 121 422.5 47 c 128,-1,18
 394 -27 394 -27 351 -27 c 128,-1,19
112 -27 m 0,29,30
 71 -27 71 -27 41.5 48.5 c 128,-1,31
 12 124 12 124 12 271 c 0,32,33
 12 415 12 415 41.5 490.5 c 128,-1,34
 71 566 71 566 112 566 c 128,-1,35
 153 566 153 566 183.5 479.5 c 128,-1,36
 214 393 214 393 214 268 c 0,37,38
 214 119 214 119 184.5 46 c 128,-1,39
 155 -27 155 -27 112 -27 c 0,29,30
5 552 m 1,40,-1
 5 689 l 1,41,-1
 453 1323 l 1,42,-1
 453 1186 l 1,43,-1
 5 552 l 1,40,-1
112 1067 m 128,-1,45
 127 1067 127 1067 139 1111 c 128,-1,46
 151 1155 151 1155 151 1248 c 0,47,48
 151 1428.00549451 151 1428.00549451 110.449311677 1428.00549451 c 0,0,0
 95.0014985015 1428.00549451 95.0014985015 1428.00549451 83 1384 c 128,-1,51
 71 1340 71 1340 71 1248 c 0,52,53
 71 1155 71 1155 84 1111 c 128,-1,44
 97 1067 97 1067 112 1067 c 128,-1,45
112 950 m 0,54,55
 71 950 71 950 41.5 1025.5 c 128,-1,56
 12 1101 12 1101 12 1248 c 0,57,58
 12 1392 12 1392 41.5 1467.5 c 128,-1,59
 71 1543 71 1543 112 1543 c 128,-1,60
 153 1543 153 1543 183.5 1466 c 128,-1,61
 214 1389 214 1389 214 1245 c 0,62,63
 214 1096 214 1096 184.5 1023 c 128,-1,64
 155 950 155 950 112 950 c 0,54,55
EndSplineSet
EndChar

StartChar: circleplus
Encoding: 8853 8853 648
Width: 479
VWidth: 2441
GlyphClass: 1
Flags: HW
LayerCount: 2
Fore
SplineSet
205 415 m 1,0,-1
 205 715 l 1,1,-1
 103 715 l 1,2,-1
 103 803 l 1,3,-1
 205 803 l 1,4,-1
 205 1079 l 1,5,-1
 269 1079 l 1,6,-1
 269 803 l 1,7,-1
 367 803 l 1,8,-1
 367 715 l 1,9,-1
 269 715 l 1,10,-1
 269 415 l 1,11,-1
 205 415 l 1,0,-1
235 359 m 0,12,13
 304 359 304 359 348.5 471 c 128,-1,14
 393 583 393 583 393 752 c 0,15,16
 393 920 393 920 348.5 1031 c 128,-1,17
 304 1142 304 1142 235 1142 c 0,18,19
 168 1142 168 1142 122.5 1031 c 128,-1,20
 77 920 77 920 77 752 c 128,-1,21
 77 584 77 584 122.5 471.5 c 128,-1,22
 168 359 168 359 235 359 c 0,12,13
235 266 m 128,-1,24
 168 266 168 266 118 329.5 c 128,-1,25
 68 393 68 393 39.5 503 c 128,-1,26
 11 613 11 613 11 752 c 0,27,28
 11 894 11 894 39.5 1002.5 c 128,-1,29
 68 1111 68 1111 118 1174 c 128,-1,30
 168 1237 168 1237 235 1237 c 128,-1,31
 302 1237 302 1237 352 1174 c 128,-1,32
 402 1111 402 1111 430.5 1002.5 c 128,-1,33
 459 894 459 894 459 752 c 0,34,35
 459 613 459 613 430.5 503 c 128,-1,36
 402 393 402 393 352 329.5 c 128,-1,23
 302 266 302 266 235 266 c 128,-1,24
EndSplineSet
EndChar

StartChar: arrowup
Encoding: 8593 8593 651
Width: 512
VWidth: 2441
GlyphClass: 1
Flags: HW
LayerCount: 2
Fore
SplineSet
203 17 m 1,0,-1
 203 1035 l 1,1,-1
 105 778 l 1,2,-1
 32 843 l 1,3,-1
 250 1419 l 1,4,-1
 275 1419 l 1,5,-1
 480 837 l 1,6,-1
 409 778 l 1,7,-1
 311 1032 l 1,8,-1
 311 17 l 1,9,-1
 203 17 l 1,0,-1
EndSplineSet
EndChar

StartChar: uni2197
Encoding: 8599 8599 652
Width: 468
VWidth: 2441
GlyphClass: 1
Flags: HW
LayerCount: 2
Fore
SplineSet
0 345 m 1,0,-1
 302 1197 l 1,1,-1
 123 1140 l 1,2,-1
 117 1274 l 1,3,-1
 433 1367 l 1,4,-1
 448 1328 l 1,5,-1
 404 669 l 1,6,-1
 321 683 l 1,7,-1
 348 1072 l 1,8,-1
 54 288 l 1,9,-1
 0 345 l 1,0,-1
EndSplineSet
EndChar

StartChar: arrowright
Encoding: 8594 8594 653
Width: 480
VWidth: 2441
GlyphClass: 1
Flags: HW
LayerCount: 2
Fore
SplineSet
8 792 m 1,0,-1
 317 792 l 1,1,-1
 153 1113 l 1,2,-1
 226 1189 l 1,3,-1
 456 732 l 1,4,-1
 456 678 l 1,5,-1
 224 256 l 1,6,-1
 163 342 l 1,7,-1
 317 647 l 1,8,-1
 8 647 l 1,9,-1
 8 792 l 1,0,-1
EndSplineSet
EndChar

StartChar: arrowboth
Encoding: 8596 8596 659
Width: 440
VWidth: 2441
GlyphClass: 1
Flags: HW
LayerCount: 2
Fore
SplineSet
306 1191 m 1,0,-1
 433 734 l 1,1,-1
 433 681 l 1,2,-1
 304 259 l 1,3,-1
 237 356 l 1,4,-1
 319 650 l 1,5,-1
 99 650 l 1,6,-1
 183 356 l 1,7,-1
 114 259 l 1,8,-1
 -15 681 l 1,9,-1
 -15 734 l 1,10,-1
 112 1191 l 1,11,-1
 183 1111 l 1,12,-1
 99 794 l 1,13,-1
 321 794 l 1,14,-1
 237 1111 l 1,15,-1
 306 1191 l 1,0,-1
EndSplineSet
EndChar

StartChar: arrowupdn
Encoding: 8597 8597 660
Width: 512
VWidth: 2441
GlyphClass: 1
Flags: HW
LayerCount: 2
Fore
SplineSet
480 476 m 1,0,-1
 269 88 l 1,1,-1
 245 88 l 1,2,-1
 32 486 l 1,3,-1
 113 569 l 1,4,-1
 204 386 l 1,5,-1
 204 1060 l 1,6,-1
 113 859 l 1,7,-1
 45 976 l 1,8,-1
 245 1358 l 1,9,-1
 269 1358 l 1,10,-1
 480 976 l 1,11,-1
 414 859 l 1,12,-1
 321 1060 l 1,13,-1
 321 380 l 1,14,-1
 414 569 l 1,15,-1
 480 476 l 1,0,-1
EndSplineSet
EndChar

StartChar: uni21E7
Encoding: 8679 8679 661
Width: 512
VWidth: 2441
GlyphClass: 1
Flags: HW
LayerCount: 2
Fore
SplineSet
224 98 m 1,0,-1
 290 98 l 1,1,-1
 290 991 l 1,2,-1
 399 991 l 1,3,-1
 257 1370 l 1,4,-1
 125 991 l 1,5,-1
 224 991 l 1,6,-1
 224 98 l 1,0,-1
141 0 m 1,7,-1
 141 892 l 1,8,-1
 32 892 l 1,9,-1
 32 999 l 1,10,-1
 243 1553 l 1,11,-1
 271 1553 l 1,12,-1
 480 999 l 1,13,-1
 480 892 l 1,14,-1
 373 892 l 1,15,-1
 373 0 l 1,16,-1
 141 0 l 1,7,-1
EndSplineSet
EndChar

StartChar: uni21E8
Encoding: 8680 8680 662
Width: 440
VWidth: 2441
GlyphClass: 1
Flags: HW
LayerCount: 2
Fore
SplineSet
60 867 m 1,0,-1
 60 517 l 1,1,-1
 255 517 l 1,2,-1
 255 452 l 1,3,-1
 355 694 l 1,4,-1
 255 943 l 1,5,-1
 255 867 l 1,6,-1
 60 867 l 1,0,-1
-15 964 m 1,7,-1
 181 964 l 1,8,-1
 181 1223 l 1,9,-1
 222 1223 l 1,10,-1
 433 725 l 1,11,-1
 433 659 l 1,12,-1
 222 163 l 1,13,-1
 181 163 l 1,14,-1
 181 420 l 1,15,-1
 -15 420 l 1,16,-1
 -15 964 l 1,7,-1
EndSplineSet
EndChar

StartChar: uni2B06
Encoding: 11014 11014 665
Width: 512
VWidth: 2441
GlyphClass: 1
Flags: HW
LayerCount: 2
Fore
SplineSet
480 999 m 1,0,-1
 480 892 l 1,1,-1
 373 892 l 1,2,-1
 373 0 l 1,3,-1
 141 0 l 1,4,-1
 141 892 l 1,5,-1
 32 892 l 1,6,-1
 32 999 l 1,7,-1
 243 1553 l 1,8,-1
 271 1553 l 1,9,-1
 480 999 l 1,0,-1
EndSplineSet
EndChar

StartChar: uni2B05
Encoding: 11013 11013 668
Width: 440
VWidth: 2441
GlyphClass: 1
Flags: HW
LayerCount: 2
Fore
SplineSet
433 420 m 1,0,-1
 239 420 l 1,1,-1
 239 163 l 1,2,-1
 198 163 l 1,3,-1
 -15 659 l 1,4,-1
 -15 725 l 1,5,-1
 198 1223 l 1,6,-1
 239 1223 l 1,7,-1
 239 964 l 1,8,-1
 433 964 l 1,9,-1
 433 420 l 1,0,-1
EndSplineSet
EndChar

StartChar: dneighthblock
Encoding: 9601 9601 669
Width: -402
VWidth: 2440
GlyphClass: 1
Flags: HW
LayerCount: 2
Fore
SplineSet
0 -246 m 1,0,-1
 0 -550 l 1,1,-1
 -434 -550 l 1,2,-1
 -434 -246 l 1,3,-1
 0 -246 l 1,0,-1
EndSplineSet
EndChar

StartChar: dnquarterblock
Encoding: 9602 9602 670
Width: 55
VWidth: 250
GlyphClass: 1
Flags: HW
LayerCount: 2
Fore
SplineSet
-33 -246 m 1,0,-1
 -33 -122 l 1,1,-1
 56 -122 l 1,2,-1
 56 -246 l 1,3,-1
 -33 -246 l 1,0,-1
EndSplineSet
EndChar

StartChar: dnthreeeighthsblock
Encoding: 9603 9603 671
Width: 229
VWidth: 1223
GlyphClass: 1
Flags: HW
LayerCount: 2
Fore
SplineSet
-33 -246 m 1,0,-1
 -33 305 l 1,1,-1
 230 305 l 1,2,-1
 230 -246 l 1,3,-1
 -33 -246 l 1,0,-1
EndSplineSet
EndChar

StartChar: dnhalfblock
Encoding: 9604 9604 672
Width: 316
VWidth: 1709
GlyphClass: 1
Flags: HW
LayerCount: 2
Fore
SplineSet
-32 -246 m 1,0,-1
 -32 732 l 1,1,-1
 317 732 l 1,2,-1
 317 -246 l 1,3,-1
 -32 -246 l 1,0,-1
EndSplineSet
EndChar

StartChar: dnfiveeighthsblock
Encoding: 9605 9605 673
Width: 368
VWidth: 2002
GlyphClass: 1
Flags: HW
LayerCount: 2
Fore
SplineSet
-33 -246 m 1,0,-1
 -33 1160 l 1,1,-1
 369 1160 l 1,2,-1
 369 -246 l 1,3,-1
 -33 -246 l 1,0,-1
EndSplineSet
EndChar

StartChar: dnthreequartersblock
Encoding: 9606 9606 674
Width: 403
VWidth: 2196
GlyphClass: 1
Flags: HW
LayerCount: 2
Fore
SplineSet
-32 -246 m 1,0,-1
 -32 1587 l 1,1,-1
 404 1587 l 1,2,-1
 404 -246 l 1,3,-1
 -32 -246 l 1,0,-1
EndSplineSet
EndChar

StartChar: dnseveneighthsblock
Encoding: 9607 9607 675
Width: 414
VWidth: 2335
GlyphClass: 1
Flags: HW
LayerCount: 2
Fore
SplineSet
-33 -246 m 1,0,-1
 -33 2015 l 1,1,-1
 415 2015 l 1,2,-1
 415 -246 l 1,3,-1
 -33 -246 l 1,0,-1
EndSplineSet
EndChar

StartChar: fullblock
Encoding: 9608 9608 676
Width: 414
VWidth: 2441
GlyphClass: 1
Flags: HW
LayerCount: 2
Fore
SplineSet
-33 -246 m 1,0,-1
 -33 2441 l 1,1,-1
 415 2441 l 1,2,-1
 415 -246 l 1,3,-1
 -33 -246 l 1,0,-1
EndSplineSet
EndChar

StartChar: uphalfblock
Encoding: 9600 9600 677
Width: 414
VWidth: 2441
GlyphClass: 1
Flags: HW
LayerCount: 2
Fore
SplineSet
-33 732 m 1,0,-1
 -33 2441 l 1,1,-1
 415 2441 l 1,2,-1
 415 732 l 1,3,-1
 -33 732 l 1,0,-1
EndSplineSet
EndChar

StartChar: upeighthblock
Encoding: 9620 9620 678
Width: 414
VWidth: 2441
GlyphClass: 1
Flags: HW
LayerCount: 2
Fore
SplineSet
-33 2015 m 1,0,-1
 -33 2441 l 1,1,-1
 415 2441 l 1,2,-1
 415 2015 l 1,3,-1
 -33 2015 l 1,0,-1
EndSplineSet
EndChar

StartChar: lefteighthblock
Encoding: 9615 9615 679
Width: 91
VWidth: 2441
GlyphClass: 1
Flags: HW
LayerCount: 2
Fore
SplineSet
0 -246 m 1,0,-1
 0 2441 l 1,1,-1
 59 2441 l 1,2,-1
 59 -246 l 1,3,-1
 0 -246 l 1,0,-1
EndSplineSet
EndChar

StartChar: leftquarterblock
Encoding: 9614 9614 680
Width: 153
VWidth: 2441
GlyphClass: 1
Flags: HW
LayerCount: 2
Fore
SplineSet
0 -246 m 1,0,-1
 0 2441 l 1,1,-1
 121 2441 l 1,2,-1
 121 -246 l 1,3,-1
 0 -246 l 1,0,-1
EndSplineSet
EndChar

StartChar: leftthreeeighthsblock
Encoding: 9613 9613 681
Width: 213
VWidth: 2441
GlyphClass: 1
Flags: HW
LayerCount: 2
Fore
SplineSet
0 -246 m 1,0,-1
 0 2441 l 1,1,-1
 181 2441 l 1,2,-1
 181 -246 l 1,3,-1
 0 -246 l 1,0,-1
EndSplineSet
EndChar

StartChar: lefthalfblock
Encoding: 9612 9612 682
Width: 272
VWidth: 2441
GlyphClass: 1
Flags: HW
LayerCount: 2
Fore
SplineSet
0 -246 m 1,0,-1
 0 2441 l 1,1,-1
 240 2441 l 1,2,-1
 240 -246 l 1,3,-1
 0 -246 l 1,0,-1
EndSplineSet
EndChar

StartChar: leftfiveeighthsblock
Encoding: 9611 9611 683
Width: 331
VWidth: 2441
GlyphClass: 1
Flags: HW
LayerCount: 2
Fore
SplineSet
0 -246 m 1,0,-1
 0 2441 l 1,1,-1
 299 2441 l 1,2,-1
 299 -246 l 1,3,-1
 0 -246 l 1,0,-1
EndSplineSet
EndChar

StartChar: leftthreequartersblock
Encoding: 9610 9610 684
Width: 393
VWidth: 2441
GlyphClass: 1
Flags: HW
LayerCount: 2
Fore
SplineSet
0 -246 m 1,0,-1
 0 2441 l 1,1,-1
 361 2441 l 1,2,-1
 361 -246 l 1,3,-1
 0 -246 l 1,0,-1
EndSplineSet
EndChar

StartChar: leftseveneighthsblock
Encoding: 9609 9609 685
Width: 479
VWidth: 2441
GlyphClass: 1
Flags: HW
LayerCount: 2
Fore
SplineSet
0 -246 m 1,0,-1
 0 2441 l 1,1,-1
 421 2441 l 1,2,-1
 421 -246 l 1,3,-1
 0 -246 l 1,0,-1
EndSplineSet
EndChar

StartChar: righthalfblock
Encoding: 9616 9616 686
Width: 511
VWidth: 2441
GlyphClass: 1
Flags: HW
LayerCount: 2
Fore
SplineSet
32 -246 m 1,0,-1
 32 2441 l 1,1,-1
 272 2441 l 1,2,-1
 272 -246 l 1,3,-1
 32 -246 l 1,0,-1
EndSplineSet
EndChar

StartChar: righteighthblock
Encoding: 9621 9621 687
Width: 511
VWidth: 2441
GlyphClass: 1
Flags: HW
LayerCount: 2
Fore
SplineSet
32 -246 m 1,0,-1
 32 2441 l 1,1,-1
 91 2441 l 1,2,-1
 91 -246 l 1,3,-1
 32 -246 l 1,0,-1
EndSplineSet
EndChar

StartChar: dnleftquadrant
Encoding: 9622 9622 688
Width: 207
VWidth: 1709
GlyphClass: 1
Flags: HW
LayerCount: 2
Fore
SplineSet
0 -246 m 1,0,-1
 0 732 l 1,1,-1
 175 732 l 1,2,-1
 175 -246 l 1,3,-1
 0 -246 l 1,0,-1
EndSplineSet
EndChar

StartChar: dnrightquadrant
Encoding: 9623 9623 689
Width: 381
VWidth: 1709
GlyphClass: 1
Flags: HW
LayerCount: 2
Fore
SplineSet
32 -246 m 1,0,-1
 32 732 l 1,1,-1
 207 732 l 1,2,-1
 207 -246 l 1,3,-1
 32 -246 l 1,0,-1
EndSplineSet
EndChar

StartChar: upleftquadrant
Encoding: 9624 9624 690
Width: 337
VWidth: 2441
GlyphClass: 1
Flags: HW
LayerCount: 2
Fore
SplineSet
0 732 m 1,0,-1
 0 2441 l 1,1,-1
 305 2441 l 1,2,-1
 305 732 l 1,3,-1
 0 732 l 1,0,-1
EndSplineSet
EndChar

StartChar: upleftdnleftdnrightquadrant
Encoding: 9625 9625 691
Width: 414
VWidth: 2441
GlyphClass: 1
Flags: HW
LayerCount: 2
Fore
SplineSet
-33 -246 m 1,0,-1
 -33 2441 l 1,1,-1
 191 2441 l 1,2,-1
 191 1097 l 1,3,-1
 415 1097 l 1,4,-1
 415 -246 l 1,5,-1
 -33 -246 l 1,0,-1
EndSplineSet
EndChar

StartChar: upleftdnrightquadrant
Encoding: 9626 9626 692
Width: 414
VWidth: 2441
GlyphClass: 1
Flags: HW
LayerCount: 2
Fore
SplineSet
191 1097 m 1,0,-1
 415 1097 l 1,1,-1
 415 -246 l 1,2,-1
 191 -246 l 1,3,-1
 191 1097 l 1,0,-1
191 1097 m 1,4,-1
 -33 1097 l 1,5,-1
 -33 2441 l 1,6,-1
 191 2441 l 1,7,-1
 191 1097 l 1,4,-1
EndSplineSet
EndChar

StartChar: upleftuprightdnleftquadrant
Encoding: 9627 9627 693
Width: 414
VWidth: 2441
GlyphClass: 1
Flags: HW
LayerCount: 2
Fore
SplineSet
-33 -246 m 1,0,-1
 -33 2441 l 1,1,-1
 415 2441 l 1,2,-1
 415 1097 l 1,3,-1
 191 1097 l 1,4,-1
 191 -246 l 1,5,-1
 -33 -246 l 1,0,-1
EndSplineSet
EndChar

StartChar: upleftuprightdnrightquadrant
Encoding: 9628 9628 694
Width: 414
VWidth: 2441
GlyphClass: 1
Flags: HW
LayerCount: 2
Fore
SplineSet
191 -246 m 1,0,-1
 191 1097 l 1,1,-1
 -33 1097 l 1,2,-1
 -33 2441 l 1,3,-1
 415 2441 l 1,4,-1
 415 -246 l 1,5,-1
 191 -246 l 1,0,-1
EndSplineSet
EndChar

StartChar: uprightquadrant
Encoding: 9629 9629 695
Width: 642
VWidth: 2441
GlyphClass: 1
Flags: HW
LayerCount: 2
Fore
SplineSet
32 732 m 1,0,-1
 32 2441 l 1,1,-1
 337 2441 l 1,2,-1
 337 732 l 1,3,-1
 32 732 l 1,0,-1
EndSplineSet
EndChar

StartChar: uprightdnleftquadrant
Encoding: 9630 9630 696
Width: 414
VWidth: 2441
GlyphClass: 1
Flags: HW
LayerCount: 2
Fore
SplineSet
-33 -246 m 1,0,-1
 -33 1097 l 1,1,-1
 191 1097 l 1,2,-1
 191 -246 l 1,3,-1
 -33 -246 l 1,0,-1
191 1097 m 1,4,-1
 191 2441 l 1,5,-1
 415 2441 l 1,6,-1
 415 1097 l 1,7,-1
 191 1097 l 1,4,-1
EndSplineSet
EndChar

StartChar: uprightdnleftdnrightquadrant
Encoding: 9631 9631 697
Width: 414
VWidth: 2441
GlyphClass: 1
Flags: HW
LayerCount: 2
Fore
SplineSet
-33 -246 m 1,0,-1
 -33 1097 l 1,1,-1
 191 1097 l 1,2,-1
 191 2441 l 1,3,-1
 415 2441 l 1,4,-1
 415 -246 l 1,5,-1
 -33 -246 l 1,0,-1
EndSplineSet
EndChar

StartChar: lightshade
Encoding: 9617 9617 698
Width: 459
VWidth: 2427
GlyphClass: 1
Flags: HW
LayerCount: 2
Fore
SplineSet
-3 -246 m 1
 -3 -149 l 1
 46 -149 l 1
 46 -246 l 1
 -3 -246 l 1
158 -246 m 1
 158 -149 l 1
 206 -149 l 1
 206 -246 l 1
 158 -246 l 1
316 -246 m 1
 316 -149 l 1
 365 -149 l 1
 365 -246 l 1
 316 -246 l 1
77 -51 m 1
 77 46 l 1
 126 46 l 1
 126 -51 l 1
 77 -51 l 1
236 -51 m 1
 236 46 l 1
 284 46 l 1
 284 -51 l 1
 236 -51 l 1
396 -51 m 1
 396 46 l 1
 445 46 l 1
 445 -51 l 1
 396 -51 l 1
-3 143 m 1
 -3 240 l 1
 46 240 l 1
 46 143 l 1
 -3 143 l 1
158 143 m 1
 158 240 l 1
 206 240 l 1
 206 143 l 1
 158 143 l 1
316 143 m 1
 316 240 l 1
 365 240 l 1
 365 143 l 1
 316 143 l 1
396 337 m 1
 396 435 l 1
 445 435 l 1
 445 337 l 1
 396 337 l 1
236 337 m 1
 236 435 l 1
 284 435 l 1
 284 337 l 1
 236 337 l 1
77 337 m 1
 77 435 l 1
 126 435 l 1
 126 337 l 1
 77 337 l 1
-3 532 m 1
 -3 630 l 1
 46 630 l 1
 46 532 l 1
 -3 532 l 1
158 532 m 1
 158 630 l 1
 206 630 l 1
 206 532 l 1
 158 532 l 1
316 532 m 1
 316 630 l 1
 365 630 l 1
 365 532 l 1
 316 532 l 1
77 727 m 1
 77 824 l 1
 126 824 l 1
 126 727 l 1
 77 727 l 1
236 727 m 1
 236 824 l 1
 284 824 l 1
 284 727 l 1
 236 727 l 1
396 727 m 1
 396 824 l 1
 445 824 l 1
 445 727 l 1
 396 727 l 1
-3 921 m 1
 -3 1018 l 1
 46 1018 l 1
 46 921 l 1
 -3 921 l 1
158 921 m 1
 158 1018 l 1
 206 1018 l 1
 206 921 l 1
 158 921 l 1
316 921 m 1
 316 1018 l 1
 365 1018 l 1
 365 921 l 1
 316 921 l 1
77 1116 m 1
 77 1213 l 1
 126 1213 l 1
 126 1116 l 1
 77 1116 l 1
236 1116 m 1
 236 1213 l 1
 284 1213 l 1
 284 1116 l 1
 236 1116 l 1
396 1116 m 1
 396 1213 l 1
 445 1213 l 1
 445 1116 l 1
 396 1116 l 1
-3 1310 m 1
 -3 1408 l 1
 46 1408 l 1
 46 1310 l 1
 -3 1310 l 1
158 1310 m 1
 158 1408 l 1
 206 1408 l 1
 206 1310 l 1
 158 1310 l 1
316 1310 m 1
 316 1408 l 1
 365 1408 l 1
 365 1310 l 1
 316 1310 l 1
77 1505 m 1
 77 1603 l 1
 126 1603 l 1
 126 1505 l 1
 77 1505 l 1
236 1505 m 1
 236 1603 l 1
 284 1603 l 1
 284 1505 l 1
 236 1505 l 1
396 1505 m 1
 396 1603 l 1
 445 1603 l 1
 445 1505 l 1
 396 1505 l 1
316 1699 m 1
 316 1796 l 1
 365 1796 l 1
 365 1699 l 1
 316 1699 l 1
158 1699 m 1
 158 1796 l 1
 206 1796 l 1
 206 1699 l 1
 158 1699 l 1
-3 1699 m 1
 -3 1796 l 1
 46 1796 l 1
 46 1699 l 1
 -3 1699 l 1
77 1894 m 1
 77 1991 l 1
 126 1991 l 1
 126 1894 l 1
 77 1894 l 1
236 1894 m 1
 236 1991 l 1
 284 1991 l 1
 284 1894 l 1
 236 1894 l 1
396 1894 m 1
 396 1991 l 1
 445 1991 l 1
 445 1894 l 1
 396 1894 l 1
-3 2089 m 1
 -3 2186 l 1
 46 2186 l 1
 46 2089 l 1
 -3 2089 l 1
158 2089 m 1
 158 2186 l 1
 206 2186 l 1
 206 2089 l 1
 158 2089 l 1
316 2089 m 1
 316 2186 l 1
 365 2186 l 1
 365 2089 l 1
 316 2089 l 1
77 2283 m 1
 77 2381 l 1
 126 2381 l 1
 126 2283 l 1
 77 2283 l 1
236 2283 m 1
 236 2381 l 1
 284 2381 l 1
 284 2283 l 1
 236 2283 l 1
396 2283 m 1
 396 2381 l 1
 445 2381 l 1
 445 2283 l 1
 396 2283 l 1
EndSplineSet
EndChar

StartChar: mediumshade
Encoding: 9618 9618 699
Width: 420
VWidth: 2435
GlyphClass: 1
Flags: HW
LayerCount: 2
Fore
SplineSet
-29 -246 m 1
 -29 -91 l 1
 43 -91 l 1
 43 -246 l 1
 -29 -246 l 1
121 -246 m 1
 121 -91 l 1
 193 -91 l 1
 193 -246 l 1
 121 -246 l 1
273 -246 m 1
 273 -91 l 1
 345 -91 l 1
 345 -246 l 1
 273 -246 l 1
47 -53 m 1
 47 102 l 1
 119 102 l 1
 119 -53 l 1
 47 -53 l 1
197 -53 m 1
 197 102 l 1
 269 102 l 1
 269 -53 l 1
 197 -53 l 1
347 -53 m 1
 347 102 l 1
 419 102 l 1
 419 -53 l 1
 347 -53 l 1
-29 140 m 1
 -29 295 l 1
 43 295 l 1
 43 140 l 1
 -29 140 l 1
121 140 m 1
 121 295 l 1
 193 295 l 1
 193 140 l 1
 121 140 l 1
273 140 m 1
 273 295 l 1
 345 295 l 1
 345 140 l 1
 273 140 l 1
347 333 m 1
 347 488 l 1
 419 488 l 1
 419 333 l 1
 347 333 l 1
197 333 m 1
 197 488 l 1
 269 488 l 1
 269 333 l 1
 197 333 l 1
47 333 m 1
 47 488 l 1
 119 488 l 1
 119 333 l 1
 47 333 l 1
-29 526 m 1
 -29 680 l 1
 43 680 l 1
 43 526 l 1
 -29 526 l 1
121 526 m 1
 121 680 l 1
 193 680 l 1
 193 526 l 1
 121 526 l 1
273 526 m 1
 273 680 l 1
 345 680 l 1
 345 526 l 1
 273 526 l 1
47 719 m 1
 47 873 l 1
 119 873 l 1
 119 719 l 1
 47 719 l 1
197 719 m 1
 197 873 l 1
 269 873 l 1
 269 719 l 1
 197 719 l 1
347 719 m 1
 347 873 l 1
 419 873 l 1
 419 719 l 1
 347 719 l 1
-29 912 m 1
 -29 1066 l 1
 43 1066 l 1
 43 912 l 1
 -29 912 l 1
121 912 m 1
 121 1066 l 1
 193 1066 l 1
 193 912 l 1
 121 912 l 1
273 912 m 1
 273 1066 l 1
 345 1066 l 1
 345 912 l 1
 273 912 l 1
47 1105 m 1
 47 1260 l 1
 119 1260 l 1
 119 1105 l 1
 47 1105 l 1
197 1105 m 1
 197 1260 l 1
 269 1260 l 1
 269 1105 l 1
 197 1105 l 1
347 1105 m 1
 347 1260 l 1
 419 1260 l 1
 419 1105 l 1
 347 1105 l 1
-29 1298 m 1
 -29 1453 l 1
 43 1453 l 1
 43 1298 l 1
 -29 1298 l 1
121 1298 m 1
 121 1453 l 1
 193 1453 l 1
 193 1298 l 1
 121 1298 l 1
273 1298 m 1
 273 1453 l 1
 345 1453 l 1
 345 1298 l 1
 273 1298 l 1
47 1490 m 1
 47 1645 l 1
 119 1645 l 1
 119 1490 l 1
 47 1490 l 1
197 1490 m 1
 197 1645 l 1
 269 1645 l 1
 269 1490 l 1
 197 1490 l 1
347 1490 m 1
 347 1645 l 1
 419 1645 l 1
 419 1490 l 1
 347 1490 l 1
273 1684 m 1
 273 1838 l 1
 345 1838 l 1
 345 1684 l 1
 273 1684 l 1
121 1684 m 1
 121 1838 l 1
 193 1838 l 1
 193 1684 l 1
 121 1684 l 1
-29 1684 m 1
 -29 1838 l 1
 43 1838 l 1
 43 1684 l 1
 -29 1684 l 1
47 1877 m 1
 47 2031 l 1
 119 2031 l 1
 119 1877 l 1
 47 1877 l 1
197 1877 m 1
 197 2031 l 1
 269 2031 l 1
 269 1877 l 1
 197 1877 l 1
347 1877 m 1
 347 2031 l 1
 419 2031 l 1
 419 1877 l 1
 347 1877 l 1
-29 2070 m 1
 -29 2224 l 1
 43 2224 l 1
 43 2070 l 1
 -29 2070 l 1
121 2070 m 1
 121 2224 l 1
 193 2224 l 1
 193 2070 l 1
 121 2070 l 1
273 2070 m 1
 273 2224 l 1
 345 2224 l 1
 345 2070 l 1
 273 2070 l 1
47 2263 m 1
 47 2418 l 1
 119 2418 l 1
 119 2263 l 1
 47 2263 l 1
197 2263 m 1
 197 2418 l 1
 269 2418 l 1
 269 2263 l 1
 197 2263 l 1
347 2263 m 1
 347 2418 l 1
 419 2418 l 1
 419 2263 l 1
 347 2263 l 1
EndSplineSet
EndChar

